<svg xmlns="http://www.w3.org/2000/svg" xmlns:xlink="http://www.w3.org/1999/xlink" width="17.625" height="7.593" viewBox="0 0 17.625 7.593">
  <defs>
    <clipPath id="clip-path">
      <rect id="Прямоугольник_2180" data-name="Прямоугольник 2180" width="17.625" height="7.593" fill="#fff"/>
    </clipPath>
  </defs>
  <g id="Сгруппировать_213" data-name="Сгруппировать 213" transform="translate(0 0)">
    <g id="Сгруппировать_212" data-name="Сгруппировать 212" transform="translate(0 0)" clip-path="url(#clip-path)">
      <path id="Контур_1522" data-name="Контур 1522" d="M8.533,6.652c-1.233,0-2.467-.011-3.7.007-.343.005-.45-.1-.464-.446A1.774,1.774,0,0,0,2.52,4.476,1.841,1.841,0,0,0,.686,6.257c-.006.122.084.3-.078.354C.428,6.669.283,6.536.166,6.4A.722.722,0,0,1,0,5.925,6.152,6.152,0,0,1,.837,2.458c.254-.42.532-.829.743-1.269A2.094,2.094,0,0,1,3.661.006C4.947-.007,6.233,0,7.52,0c.729,0,1.459.006,2.188,0A1.791,1.791,0,0,1,11,.5c.748.695,1.515,1.369,2.269,2.058a.955.955,0,0,0,.6.257,12.67,12.67,0,0,1,1.819.174,2.39,2.39,0,0,1,1.93,2.387c0,.119,0,.239,0,.358,0,.735-.414,1.056-1.137.914-.254-.049-.171-.228-.181-.369a1.832,1.832,0,0,0-2-1.8,1.767,1.767,0,0,0-1.675,1.7c0,.406-.154.48-.514.474-1.193-.018-2.386-.007-3.58-.007m3.056-3.8c-.548-.575-1.035-1.094-1.533-1.6A.849.849,0,0,0,9.408,1c-.727.01-1.456,0-2.183.008-.89.009-.89.014-.89.883,0,.132,0,.265,0,.4a.22.22,0,0,0,.238.25c.938.056,1.874.116,2.812.171.132.008.285.014.308-.168.026-.211.077-.412.316-.444a.53.53,0,0,1,.54.337c.206.417.56.425,1.039.415M4.717,2.464c1.069.015.917.165.93-.9,0-.092,0-.185,0-.278C5.655,1.083,5.559,1,5.359,1c-.383.005-.768,0-1.151,0C3.266,1,2.995,1.2,2.68,2.07c-.084.232-.03.305.214.312.608.017,1.215.053,1.823.082" transform="translate(0 0)" fill="#fff"/>
      <path id="Контур_1523" data-name="Контур 1523" d="M3.122,13.646a1.294,1.294,0,0,1,1.3-1.272A1.287,1.287,0,0,1,4.4,14.947a1.294,1.294,0,0,1-1.276-1.3" transform="translate(-1.855 -7.354)" fill="#fff"/>
      <path id="Контур_1524" data-name="Контур 1524" d="M35.017,13.681a1.285,1.285,0,0,1-1.3,1.265,1.287,1.287,0,0,1,.04-2.573,1.286,1.286,0,0,1,1.264,1.308" transform="translate(-19.292 -7.353)" fill="#fff"/>
    </g>
  </g>
</svg>
