<svg xmlns="http://www.w3.org/2000/svg" width="67" height="73.85" viewBox="0 0 67 73.85">
	<g id="Сгруппировать_9766" data-name="Сгруппировать 9766" transform="translate(-856 -1676)">
		<g id="Сгруппировать_81" data-name="Сгруппировать 81" transform="translate(697.113 1230.346)" opacity="0.251">
			<path id="Контур_1450" data-name="Контур 1450" d="M161.643,466.249c-.036.087-.071.173-.106.259a2.089,2.089,0,0,0,.34,2.122l40.508,46.716a1.653,1.653,0,0,0,1.91.473l.24-.1Z" transform="translate(0.146 1.204)" />
			<path id="Контур_1451" data-name="Контур 1451" d="M163.772,461.932l-.007.013a2.04,2.04,0,0,0,.2,2.325l42.585,49.112a1.607,1.607,0,0,0,2.1.333l.012-.007Z" transform="translate(0.269 0.951)" />
			<path id="Контур_1452" data-name="Контур 1452" d="M166.362,458.112c-.287.375-.57.751-.845,1.138l45.756,52.77c.364-.283.72-.577,1.073-.874Z" transform="translate(0.387 0.728)" />
			<path id="Контур_1453" data-name="Контур 1453" d="M159.01,476.763q-.056.537-.1,1.079a2.036,2.036,0,0,0,.483,1.48l32.745,37.764a1.667,1.667,0,0,0,1.321.6c.329-.012.657-.031.983-.054Z" transform="translate(0.001 1.818)" />
			<path id="Контур_1454" data-name="Контур 1454" d="M160.514,492.046c.362,1.158.779,2.288,1.243,3.391a1.985,1.985,0,0,0,.333.538l14.159,16.33a1.836,1.836,0,0,0,.473.392,31.415,31.415,0,0,0,3.021,1.525Z" transform="translate(0.095 2.711)" />
			<path id="Контур_1455" data-name="Контур 1455" d="M160.012,471.141q-.079.3-.152.613a2.08,2.08,0,0,0,.438,1.828l37.346,43.071a1.67,1.67,0,0,0,1.64.567q.283-.067.563-.139Z" transform="translate(0.054 1.489)" />
			<path id="Контур_1456" data-name="Контур 1456" d="M158.887,483.4c.041.594.1,1.182.168,1.768a2.017,2.017,0,0,0,.476,1.086L185.5,516.208a1.715,1.715,0,0,0,.964.574c.528.1,1.059.195,1.6.269Z" transform="translate(0 2.206)" />
			<path id="Контур_1457" data-name="Контур 1457" d="M172.671,451.831q-.551.419-1.085.861l45.923,52.961q.425-.567.831-1.152Z" transform="translate(0.742 0.361)" />
			<path id="Контур_1458" data-name="Контур 1458" d="M197.765,446.871a1.725,1.725,0,0,0-.939-.569q-.818-.175-1.649-.3l28.513,32.884q-.079-.921-.2-1.827a2.027,2.027,0,0,0-.473-1.058Z" transform="translate(2.121 0.02)" />
			<path id="Контур_1459" data-name="Контур 1459" d="M206.893,450.628a1.912,1.912,0,0,0-.419-.362,32.2,32.2,0,0,0-3.278-1.79l18.043,20.809a38.635,38.635,0,0,0-1.471-3.687,2.025,2.025,0,0,0-.309-.478Z" transform="translate(2.589 0.165)" />
			<path id="Контур_1460" data-name="Контур 1460" d="M191.359,446.256a1.673,1.673,0,0,0-1.294-.6q-.514.011-1.024.04l35,40.358q.049-.559.085-1.121a2.035,2.035,0,0,0-.486-1.452Z" transform="translate(1.762 0)" />
			<path id="Контур_1461" data-name="Контур 1461" d="M181.423,448.35a1.646,1.646,0,0,0-1.881-.488l-.274.114,42.671,49.212.117-.3a2.079,2.079,0,0,0-.355-2.09Z" transform="translate(1.191 0.122)" />
			<path id="Контур_1462" data-name="Контур 1462" d="M177.326,450.4a1.611,1.611,0,0,0-2.088-.344l-.028.016,44.756,51.615h0a2.092,2.092,0,0,0-.22-2.365Z" transform="translate(0.954 0.243)" />
			<path id="Контур_1463" data-name="Контур 1463" d="M215.559,508.073l-46.237-53.325q-.491.491-.964,1l46.25,53.339Q215.093,508.589,215.559,508.073Z" transform="translate(0.553 0.531)" />
			<path id="Контур_1464" data-name="Контур 1464" d="M186.042,446.9a1.669,1.669,0,0,0-1.618-.573q-.3.067-.59.138l39.513,45.569q.078-.321.152-.642a2.083,2.083,0,0,0-.445-1.806Z" transform="translate(1.458 0.037)" />
		</g>
		<g id="mqIYM6.tif" transform="translate(217.275 1476.789)">
			<g id="Сгруппировать_13" data-name="Сгруппировать 13" transform="translate(656.725 217.329)">
				<path id="Контур_1309" data-name="Контур 1309" d="M675.681,217.329c1.107.561,2.21,1.131,3.324,1.678.286.141.388.259.214.578-.4.729-.76,1.478-1.129,2.223-.095.191-.2.206-.386.121-.681-.316-.683-.31-1.017.353-.141.28-.271.565-.428.836-.119.2-.066.311.139.392.14.056.267.143.407.2.218.087.222.211.126.405-.26.529-.247.517.315.719a10.736,10.736,0,0,1,7.221,7.843,10.583,10.583,0,0,1-1.348,8.306.533.533,0,0,0,.016.725,8.02,8.02,0,0,1,1.624,4.2.4.4,0,0,0,.3.39,4.317,4.317,0,0,1,2.794,3.309,3,3,0,0,1,.035.386c.013.183-.056.29-.257.279-.125-.007-.236.013-.279.161-.026.088-.113.09-.188.093-.108,0-.216,0-.324,0H657.292c-.568,0-.6,0-.548-.565a4.163,4.163,0,0,1,2.638-3.59,4.1,4.1,0,0,1,1.641-.307c1.174-.016,2.349-.009,3.522-.009,1.076,0,2.155-.04,3.23.024.28.017.376-.085.4-.356a7.063,7.063,0,0,1,.467-1.945c.091-.23-.009-.251-.2-.251-1.253,0-2.505,0-3.758,0-.972,0-1.944-.007-2.915.005-.28,0-.376-.086-.373-.372q.02-1.733,0-3.466c0-.29.1-.369.377-.366,1.152.011,2.3.008,3.455,0s2.283-.029,3.425-.028,2.283.017,3.425.034a1.366,1.366,0,0,0,.649-.153,8.057,8.057,0,0,1,4.255-.882.52.52,0,0,0,.506-.2,4.634,4.634,0,0,0-3.018-7.472c-.956-.124-.742-.137-1.153.645-.276.526-.524,1.066-.8,1.591-.1.193-.055.278.128.373.666.344.662.35.323,1.027-.31.617-.625,1.233-.925,1.855-.105.218-.209.275-.446.156q-2.96-1.5-5.932-2.981c-.237-.118-.311-.234-.171-.5.391-.734.758-1.48,1.122-2.227.105-.217.2-.283.444-.166.647.316.652.3.985-.357q2.083-4.136,4.162-8.275c.123-.245.232-.278.467-.152.591.315.6.307.919-.29.168-.314.318-.638.487-.951.085-.158.07-.263-.107-.326a.228.228,0,0,1-.029-.014c-.674-.355-.677-.357-.342-1.032.278-.561.564-1.118.846-1.676Zm-3.367,29.83c-2.861,0-5.721-.009-8.582,0a29.436,29.436,0,0,0-3.364.057,2.986,2.986,0,0,0-2.44,2.217c-.045.206-.011.263.209.258.947-.022,1.894-.011,2.841-.013,1.27,0,2.54.006,3.811,0,.5,0,1.012,0,1.518,0,.722.006,1.443.018,2.165.006.549-.009,1.1.013,1.647-.007.709-.026,1.421.029,2.132.014,1-.021,2-.006,3-.014,1.259-.01,2.519,0,3.778,0,.505,0,1.012,0,1.518,0,.722,0,1.443.009,2.165.012.6,0,1.2,0,1.807,0,.657,0,1.314.006,1.971.008.183,0,.25-.077.2-.266a2.993,2.993,0,0,0-.507-1.076,3.041,3.041,0,0,0-2.569-1.2Q677.965,247.151,672.314,247.159Zm4.127-1.123h1.295c1.845,0,3.691,0,5.536.007.28,0,.4-.081.356-.374a7.07,7.07,0,0,0-1.084-2.987,7.245,7.245,0,0,0-13.257,2.984c-.032.289.068.375.354.374C671.909,246.031,674.175,246.035,676.441,246.036Zm3.148-10.945a5.933,5.933,0,0,1-.893,3.214c-.123.205-.077.268.13.331a8.225,8.225,0,0,1,3.045,1.667c.2.176.293.145.424-.08a9.255,9.255,0,0,0,1.263-6.406,9.611,9.611,0,0,0-7.083-8.063.357.357,0,0,0-.505.227c-.474.97-.965,1.932-1.45,2.9-.285.568-.285.568.338.684A5.712,5.712,0,0,1,679.589,235.091Zm-4.077-10.668c-.018-.146-.136-.171-.228-.218-.7-.355-1.417-.691-2.108-1.068-.275-.15-.373-.089-.5.169q-1.916,3.839-3.857,7.665c-.111.218-.052.294.138.387.708.347,1.415.7,2.109,1.067.263.141.384.1.518-.167q1.9-3.809,3.827-7.608C675.447,224.572,675.48,224.492,675.512,224.423Zm-4.729,16.027a.674.674,0,0,0-.343-.028c-1.014,0-2.028,0-3.041,0h-4.562c-.173,0-.359-.028-.356.244.006.518,0,1.035,0,1.553,0,.139.041.245.2.224.442-.06.882.044,1.323,0,.558-.052,1.118,0,1.677-.016,1.107-.027,2.216.008,3.323.023a.382.382,0,0,0,.368-.205,8.224,8.224,0,0,1,1.313-1.635C670.73,240.567,670.8,240.535,670.783,240.449Zm-3.461-8.641c-.182.115-.215.332-.326.5-.164.242-.088.367.164.49,1.23.6,2.453,1.221,3.677,1.836.656.33.508.365.87-.307.1-.177.09-.272-.113-.373-1.342-.667-2.677-1.348-4.014-2.024C667.5,231.887,667.423,231.855,667.322,231.809Zm7.488-12.7c.024.147.136.178.229.225q.924.468,1.85.932c.657.33.688.313.92-.392a.181.181,0,0,0-.1-.259l-2.372-1.188c-.057-.029-.13-.073-.172,0C675.036,218.652,674.923,218.884,674.81,219.105Zm1.159,2.1c.019-.132-.064-.17-.14-.209-.143-.075-.294-.135-.431-.219-.157-.1-.249-.065-.326.1-.15.321-.31.638-.47.954-.329.649-.327.64.354.942.169.075.226.024.293-.113.213-.434.433-.865.65-1.3C675.928,221.3,675.952,221.241,675.97,221.2Z" transform="translate(-656.725 -217.329)" />
				<path id="Контур_1310" data-name="Контур 1310" d="M937.979,572.268a1.577,1.577,0,1,1-1.6,1.577A1.625,1.625,0,0,1,937.979,572.268Zm-.038,2.034c.33.005.49-.137.5-.449a.489.489,0,0,0-.977-.03A.427.427,0,0,0,937.941,574.3Z" transform="translate(-918.221 -549.222)" />
			</g>
		</g>
	</g>
</svg>
