<svg xmlns="http://www.w3.org/2000/svg" width="41.272" height="41.3" viewBox="0 0 41.272 41.3">
	<g id="MYrJcL.tif" transform="translate(-338.057 -254.924)">
		<g id="Сгруппировать_17" data-name="Сгруппировать 17" transform="translate(338.057 254.924)">
			<path id="Контур_1354" data-name="Контур 1354" d="M357.994,261.3a2.4,2.4,0,0,1,0-.257,1.391,1.391,0,0,0-.774-1.612,2.318,2.318,0,0,1-.857-2.875,2.505,2.505,0,0,1,4.8.387,2.434,2.434,0,0,1-1.226,2.682.819.819,0,0,0-.527.922c.034.555.008,1.113.008,1.669,0,.578,0,.592.586.641a12.578,12.578,0,0,1,6.844,2.852c.294.249.457.209.7-.05.455-.492.932-.966,1.42-1.425a.6.6,0,0,0,.186-.706,2.5,2.5,0,0,1,.914-2.778,2.563,2.563,0,0,1,2.933.006,2.507,2.507,0,0,1-.954,4.474,2.11,2.11,0,0,1-1.381-.11.433.433,0,0,0-.559.127c-.512.517-1.022,1.039-1.565,1.521-.264.234-.231.382-.028.621a12.633,12.633,0,0,1,2.6,5.057,13.813,13.813,0,0,1,.347,2.063c.028.272.154.357.418.352.685-.014,1.371-.022,2.055,0a.6.6,0,0,0,.652-.4,2.462,2.462,0,0,1,2.485-1.4,2.536,2.536,0,0,1,2.125,1.692,2.5,2.5,0,0,1-1.41,3.118,2.453,2.453,0,0,1-3.152-1.121.745.745,0,0,0-.822-.478c-.569.034-1.141.009-1.712.009-.615,0-.626,0-.677.595a12.315,12.315,0,0,1-1,3.831,12.184,12.184,0,0,1-1.886,3.046c-.2.238-.206.386.023.6.519.489,1.023,1,1.516,1.511a.532.532,0,0,0,.633.16,2.511,2.511,0,1,1,1.109,4.874,2.553,2.553,0,0,1-2.77-1.968,2.3,2.3,0,0,1,.117-1.424.408.408,0,0,0-.116-.524c-.545-.545-1.091-1.09-1.61-1.659-.226-.248-.36-.1-.527.036a12.6,12.6,0,0,1-5.85,2.773c-.447.085-.9.139-1.352.2a.288.288,0,0,0-.289.339c.006.771.014,1.542,0,2.312-.006.288.185.346.377.443a2.488,2.488,0,0,1,.712,4,2.5,2.5,0,1,1-2.971-3.94.722.722,0,0,0,.462-.787c-.028-.584-.007-1.17-.007-1.755,0-.6,0-.611-.609-.663a12.24,12.24,0,0,1-3.791-.982,12.068,12.068,0,0,1-3.05-1.879c-.245-.207-.4-.233-.632.016-.5.532-1.018,1.04-1.539,1.549a.439.439,0,0,0-.131.523,2.521,2.521,0,1,1-2.57-1.6,2.341,2.341,0,0,1,1.094.135.406.406,0,0,0,.525-.125c.5-.511,1-1.024,1.52-1.507.272-.25.274-.423.037-.7a12.257,12.257,0,0,1-2.607-5.236c-.136-.6-.222-1.2-.3-1.812-.033-.262-.109-.379-.389-.374q-1.113.021-2.226,0a.439.439,0,0,0-.446.309,2.507,2.507,0,0,1-2.732,1.459,2.512,2.512,0,0,1-.327-4.872,2.437,2.437,0,0,1,2.932,1.155.833.833,0,0,0,.922.532c.539-.039,1.084-.009,1.626-.009.636,0,.646,0,.7-.622a11.522,11.522,0,0,1,.483-2.426,12.412,12.412,0,0,1,2.385-4.413c.218-.261.2-.412-.035-.632-.529-.5-1.041-1.017-1.548-1.54a.443.443,0,0,0-.527-.117,2.427,2.427,0,0,1-2.693-.684,2.5,2.5,0,0,1,1.735-4.164,2.472,2.472,0,0,1,2.478,3.293.53.53,0,0,0,.156.664c.494.474.978.96,1.445,1.461.227.243.393.284.67.053a12.563,12.563,0,0,1,6.237-2.818,6.871,6.871,0,0,1,.847-.106c.313-.009.379-.167.367-.439C357.983,262.015,357.994,261.658,357.994,261.3Zm.689,25.577a11.312,11.312,0,1,0-11.295-11.424A11.347,11.347,0,0,0,358.683,286.878Zm-11.737-24.1a1.056,1.056,0,0,0-1.027-1.044,1.089,1.089,0,0,0-1.047,1.079,1.064,1.064,0,0,0,1.036.992A1.045,1.045,0,0,0,346.946,262.783Zm25.6.015a1.089,1.089,0,0,0-1.065-1.059,1.056,1.056,0,0,0-1.006,1.02,1.041,1.041,0,0,0,1.014,1.051A1.061,1.061,0,0,0,372.547,262.8ZM345.919,287.34a1.054,1.054,0,0,0-1.046,1.023,1.086,1.086,0,0,0,1.036,1.045,1.058,1.058,0,0,0,1.037-1.034A1.044,1.044,0,0,0,345.919,287.34Zm24.555,1.015a1.055,1.055,0,0,0,1.028,1.052,1.083,1.083,0,0,0,1.042-1.046,1.035,1.035,0,0,0-2.069-.006ZM340.59,276.586a1.011,1.011,0,1,0,.024-2.021,1.011,1.011,0,1,0-.024,2.021Zm36.183.005a1.011,1.011,0,1,0,.035-2.02,1.007,1.007,0,0,0-1.029,1.021A.968.968,0,0,0,376.773,276.591ZM357.7,257.483a1.011,1.011,0,1,0,2.021-.03,1.011,1.011,0,1,0-2.021.03Zm0,36.183a1.011,1.011,0,1,0,2.021.032,1.011,1.011,0,1,0-2.021-.032Z" transform="translate(-338.057 -254.924)" />
			<path id="Контур_1355" data-name="Контур 1355" d="M638.18,516.138c.421.514.414.97.01,1.256a.735.735,0,0,1-1.044-.214c-.26-.427-.089-.84.5-1.144a2.258,2.258,0,0,1-1.256-1.206,2.14,2.14,0,0,1,.024-1.745,2.165,2.165,0,0,1,2.569-1.172,2.215,2.215,0,0,1,1.559,2.246A2.192,2.192,0,0,1,638.18,516.138Zm.865-2.139a.723.723,0,0,0-.671-.7.645.645,0,0,0-.651.687.676.676,0,0,0,.674.679A.7.7,0,0,0,639.046,514Z" transform="translate(-610.632 -489.784)" />
			<path id="Контур_1356" data-name="Контур 1356" d="M553.508,472.512a2.165,2.165,0,1,1,2.164,2.186A2.186,2.186,0,0,1,553.508,472.512Zm2.824.015a.637.637,0,0,0-.648-.647.674.674,0,0,0-.669.684.636.636,0,0,0,.7.635A.62.62,0,0,0,556.333,472.527Z" transform="translate(-535.021 -451.882)" />
			<path id="Контур_1357" data-name="Контур 1357" d="M514.746,565.7a2.157,2.157,0,1,1,2.166-2.184A2.164,2.164,0,0,1,514.746,565.7Zm.647-2.14a.727.727,0,0,0-.687-.682.661.661,0,1,0,.026,1.32A.654.654,0,0,0,515.393,563.558Z" transform="translate(-497.609 -535.086)" />
			<path id="Контур_1358" data-name="Контур 1358" d="M475.046,439.587a2.184,2.184,0,0,1-2.168,2.14,2.207,2.207,0,0,1-2.161-2.2,2.165,2.165,0,0,1,4.329.061Zm-1.506-.03a.608.608,0,0,0-.624-.654.661.661,0,1,0,.624.654Z" transform="translate(-459.334 -421.742)" />
			<path id="Контур_1359" data-name="Контур 1359" d="M595.316,381.66a2.115,2.115,0,0,1,2.168-2.155,2.151,2.151,0,0,1,2.117,2.138,2.182,2.182,0,0,1-2.166,2.189A2.143,2.143,0,0,1,595.316,381.66Zm2.1-.651a.654.654,0,0,0-.659.643.688.688,0,1,0,.659-.643Z" transform="translate(-573.241 -368.815)" />
			<path id="Контур_1360" data-name="Контур 1360" d="M657.872,434.419a2.182,2.182,0,0,1,2.175,1.742,2.15,2.15,0,0,1-1.184,2.373.758.758,0,0,1-1.046-.243.735.735,0,0,1,.32-1.05c.349-.2.548-.458.408-.872-.129-.379-.4-.5-.9-.4a.766.766,0,0,1-.962-.546.756.756,0,0,1,.6-.891A1.684,1.684,0,0,1,657.872,434.419Z" transform="translate(-629.319 -419.014)" />
			<path id="Контур_1361" data-name="Контур 1361" d="M517.591,379.932a2.2,2.2,0,0,1,1.715-2.239,2.144,2.144,0,0,1,2.389,1.157.764.764,0,0,1-.255,1.077.749.749,0,0,1-1.044-.357c-.251-.4-.534-.52-.884-.371a.673.673,0,0,0-.38.885.741.741,0,1,1-1.432.362A5.008,5.008,0,0,1,517.591,379.932Z" transform="translate(-502.185 -367.109)" />
			<path id="Контур_1362" data-name="Контур 1362" d="M594.927,574.925a2.163,2.163,0,0,1-4.115.917.745.745,0,1,1,1.3-.712c.261.412.526.531.877.393.372-.146.481-.406.385-.917a.741.741,0,0,1,.531-.929.73.73,0,0,1,.892.535A1.9,1.9,0,0,1,594.927,574.925Z" transform="translate(-569.028 -546.303)" />
			<path id="Контур_1363" data-name="Контур 1363" d="M463.071,511.8a2.172,2.172,0,0,1-2.155-1.682,2.148,2.148,0,0,1,1.115-2.409.776.776,0,0,1,1.113.247.753.753,0,0,1-.373,1.039.666.666,0,0,0-.376.85c.124.369.412.5.863.422.539-.1.9.095.993.537s-.161.775-.687.912A1.435,1.435,0,0,1,463.071,511.8Z" transform="translate(-450.319 -485.905)" />
			<path id="Контур_1364" data-name="Контур 1364" d="M473.47,488.327a.806.806,0,0,1,.766.757.774.774,0,0,1-.7.73.789.789,0,0,1-.783-.741A.737.737,0,0,1,473.47,488.327Z" transform="translate(-461.195 -468.299)" />
			<path id="Контур_1365" data-name="Контур 1365" d="M498.515,417.891a.847.847,0,0,1-.794-.75.74.74,0,0,1,.727-.7.749.749,0,0,1,.765.795A.667.667,0,0,1,498.515,417.891Z" transform="translate(-484.02 -402.58)" />
			<path id="Контур_1366" data-name="Контур 1366" d="M648.8,412.351a.635.635,0,0,1-.695.721.726.726,0,0,1-.722-.739.755.755,0,0,1,.757-.758A.691.691,0,0,1,648.8,412.351Z" transform="translate(-620.843 -398.132)" />
			<path id="Контур_1367" data-name="Контур 1367" d="M670.487,493.313a.765.765,0,0,1-.806-.76.738.738,0,0,1,.727-.7.761.761,0,0,1,.742.739A.647.647,0,0,1,670.487,493.313Z" transform="translate(-641.224 -471.521)" />
			<path id="Контур_1368" data-name="Контур 1368" d="M495.189,558.9a.744.744,0,0,1-1.486-.032.744.744,0,0,1,1.486.032Z" transform="translate(-480.347 -532.138)" />
			<path id="Контур_1369" data-name="Контур 1369" d="M592.192,541.2a.738.738,0,0,1-.74.725.74.74,0,1,1,.74-.725Z" transform="translate(-569.036 -515.943)" />
			<path id="Контур_1370" data-name="Контур 1370" d="M524.317,505.728a.719.719,0,0,1-.7-.716.727.727,0,0,1,.742-.725.721.721,0,1,1-.038,1.44Z" transform="translate(-507.691 -482.89)" />
			<path id="Контур_1371" data-name="Контур 1371" d="M573.232,378.825a.735.735,0,1,1,.013,1.471.754.754,0,0,1-.745-.725A.779.779,0,0,1,573.232,378.825Z" transform="translate(-552.383 -368.193)" />
			<path id="Контур_1372" data-name="Контур 1372" d="M617.763,469.117a.713.713,0,1,1-.712-.735A.692.692,0,0,1,617.763,469.117Z" transform="translate(-592.458 -450.065)" />
			<path id="Контур_1373" data-name="Контур 1373" d="M556.259,448.353a.782.782,0,0,1-.752.728.767.767,0,0,1-.712-.721.776.776,0,0,1,.726-.757A.792.792,0,0,1,556.259,448.353Z" transform="translate(-536.196 -431.07)" />
			<path id="Контур_1374" data-name="Контур 1374" d="M570.016,592.01a.654.654,0,0,1-.68.7.763.763,0,0,1-.732-.745.732.732,0,0,1,.713-.71A.7.7,0,0,1,570.016,592.01Z" transform="translate(-548.821 -562.4)" />
		</g>
	</g>
</svg>
