<svg id="C9riUa.tif" xmlns="http://www.w3.org/2000/svg" width="23.05" height="26.959" viewBox="0 0 23.05 26.959">
  <g id="Сгруппировать_9559" data-name="Сгруппировать 9559" transform="translate(0 0)">
    <path id="Контур_3821" data-name="Контур 3821" d="M185.547,695.2q-4.053,0-8.107,0a1.623,1.623,0,0,1-1.666-1.659q0-3.484,0-6.968a1.637,1.637,0,0,1,1.615-1.605c5.4,0,10.809.009,16.214-.01a1.747,1.747,0,0,1,1.746,1.766c-.038,2.25-.012,4.5-.012,6.751A1.631,1.631,0,0,1,193.6,695.2Zm2.814-5.016c0-.117,0-.235,0-.352a2.219,2.219,0,0,0-1.449-2.15,3.556,3.556,0,0,0-1.69-.095,2.054,2.054,0,0,0-1.778,1.7,3.891,3.891,0,0,0,.035,1.931,2.066,2.066,0,0,0,1.692,1.566,3.972,3.972,0,0,0,1.054.047,2.107,2.107,0,0,0,2.037-1.681A3.051,3.051,0,0,0,188.361,690.18Zm-10.223,0c0,.778,0,1.555,0,2.333,0,.172.037.273.239.268.677-.017,1.354.023,2.031-.056a2.27,2.27,0,0,0,2.006-1.653,3.481,3.481,0,0,0,.13-.773,2.256,2.256,0,0,0-2.2-2.657c-.642-.055-1.283-.015-1.924-.041-.236-.01-.289.088-.286.3C178.144,688.659,178.138,689.418,178.139,690.177Zm11.058.048a4.022,4.022,0,0,0,.061.782,2.093,2.093,0,0,0,1.623,1.762,3.92,3.92,0,0,0,1.8-.067c.4-.108.4-.113.4-.537,0-.145-.009-.29,0-.434.019-.225-.047-.3-.273-.2a3.12,3.12,0,0,1-.918.223,1.045,1.045,0,0,1-1.174-.676,2.431,2.431,0,0,1,.094-1.923.9.9,0,0,1,.722-.508,2.02,2.02,0,0,1,1.078.2c.183.076.282.057.346-.139a5.657,5.657,0,0,1,.235-.605c.077-.17.013-.247-.142-.306a3.426,3.426,0,0,0-.836-.223,2.619,2.619,0,0,0-2.312.645A2.7,2.7,0,0,0,189.2,690.225Z" transform="translate(-175.771 -674.055)" fill="#8e71f6"/>
    <path id="Контур_3822" data-name="Контур 3822" d="M199.641,685.777c0,3.119-.019,6.239.011,9.358a1.769,1.769,0,0,1-1.8,1.8c-5.768-.025-11.536-.012-17.3-.012a1.655,1.655,0,0,1-1.721-1.725c0-.977.008-1.953,0-2.93,0-.252.081-.332.327-.322.557.023.526-.074.526.527,0,.859,0,1.718,0,2.577a.9.9,0,0,0,1.016,1.023q8.57,0,17.139,0c.6,0,.9-.332.906-.97q0-1.98,0-3.96,0-7.255,0-14.51c0-.508-.093-.6-.6-.6-.995,0-1.989,0-2.983,0a1.6,1.6,0,0,1-1.62-1.615c-.006-1.022,0-2.043,0-3.065,0-.367-.159-.527-.526-.527H180.772a2.237,2.237,0,0,0-.271.012.809.809,0,0,0-.823.913c-.006,1.374,0,2.748,0,4.122,0,1.293-.007,2.586.005,3.878,0,.269-.07.367-.35.357-.5-.017-.5,0-.5-.5q0-4,0-8a1.611,1.611,0,0,1,1.615-1.623q6.482,0,12.964-.005a.62.62,0,0,1,.476.2q1.752,1.758,3.514,3.506c.672.668,1.346,1.336,2.028,2a.666.666,0,0,1,.22.524q-.008,4.787,0,9.574Zm-2.231-10.6-3.021-3.085c0,.774-.021,1.551.008,2.325a.744.744,0,0,0,.776.752C195.939,675.2,196.707,675.182,197.41,675.182Z" transform="translate(-176.602 -669.976)" fill="#8e71f6"/>
    <path id="Контур_3823" data-name="Контур 3823" d="M190.294,691.552a2.269,2.269,0,0,1-.111.89,1.02,1.02,0,0,1-1.884.044,2.7,2.7,0,0,1,0-1.882.915.915,0,0,1,.9-.616.958.958,0,0,1,.95.592A2.152,2.152,0,0,1,190.294,691.552Z" transform="translate(-179.137 -675.426)" fill="#8e71f6"/>
    <path id="Контур_3824" data-name="Контур 3824" d="M180.918,691.594c0-.406.007-.813,0-1.219,0-.2.075-.262.271-.268.92-.027,1.332.363,1.339,1.29a3.459,3.459,0,0,1-.057.808,1.151,1.151,0,0,1-1.414.862c-.153-.039-.135-.151-.136-.254,0-.407,0-.813,0-1.22Z" transform="translate(-177.172 -675.458)" fill="#8e71f6"/>
  </g>
</svg>
