<svg xmlns="http://www.w3.org/2000/svg" xmlns:xlink="http://www.w3.org/1999/xlink" width="24.268" height="24.314" viewBox="0 0 24.268 24.314">
  <defs>
    <clipPath id="clip-path">
      <rect id="Прямоугольник_2081" data-name="Прямоугольник 2081" width="24.268" height="24.314" fill="#fff"/>
    </clipPath>
  </defs>
  <g id="Сгруппировать_130" data-name="Сгруппировать 130" clip-path="url(#clip-path)">
    <path id="Контур_1482" data-name="Контур 1482" d="M0,7.335a2.877,2.877,0,0,1,.481-.993A2.411,2.411,0,0,1,1.373,5.7Q4.53,4.29,7.686,2.879c.644-.287,1.285-.58,1.93-.863a.441.441,0,0,0,.267-.31,2.168,2.168,0,0,1,2.852-1.6q4.932,1.337,9.859,2.7a2.172,2.172,0,0,1,1.563,2.763q-.635,2.342-1.274,4.683c-.026.1-.054.191-.086.285a.443.443,0,1,1-.851-.241c.238-.891.484-1.779.726-2.668.212-.776.43-1.55.632-2.329a1.269,1.269,0,0,0-.945-1.626Q17.443,2.32,12.526.978a1.288,1.288,0,0,0-1.755,1Q9.012,8.352,7.26,14.731a1.286,1.286,0,0,0,.973,1.685q1.5.407,3.009.818c.344.094.5.315.428.577a.508.508,0,0,1-.683.313c-1.039-.279-2.079-.551-3.112-.85a2.151,2.151,0,0,1-1.51-2.652c.086-.342.179-.682.274-1.021.04-.145.072-.243-.157-.194a.408.408,0,0,1-.5-.309.428.428,0,0,1,.241-.543c.2-.1.411-.188.618-.278.093-.04.181-.078.211-.19.172-.635.347-1.27.52-1.9-.095-.075-.155-.012-.215.014-.538.236-1.074.475-1.612.712A2.392,2.392,0,0,1,5.517,11a.458.458,0,0,1-.607-.253.441.441,0,0,1,.256-.58,14.032,14.032,0,0,1,1.712-.75A1.664,1.664,0,0,0,8.207,7.875a5.424,5.424,0,0,1,.183-.707c.019-.081.1-.183.016-.249-.064-.048-.153.027-.226.059q-1.115.494-2.228.994c-.066.03-.131.062-.2.09-.321.135-.58.063-.692-.19s-.007-.5.31-.648c.559-.254,1.122-.5,1.683-.753.511-.229,1.021-.462,1.535-.685a.426.426,0,0,0,.267-.311c.189-.717.388-1.43.581-2.146.02-.074.083-.164,0-.223-.065-.045-.137.019-.2.048l-4.928,2.2q-1.325.591-2.648,1.185a1.267,1.267,0,0,0-.612.553A1.252,1.252,0,0,0,1,8.259q.96,2.155,1.918,4.31c1.15,2.584,2.306,5.166,3.447,7.754a1.458,1.458,0,0,0,1.075.968,1.364,1.364,0,0,0,.839-.144q1.71-.758,3.418-1.522a.485.485,0,0,1,.416-.05.449.449,0,0,1,.3.413.474.474,0,0,1-.334.449l-2.6,1.16c-.256.114-.514.224-.768.342a2.179,2.179,0,0,1-3.088-1.133c-1.04-2.3-2.06-4.6-3.09-6.9q-1.1-2.462-2.2-4.924C.211,8.706.11,8.426,0,8.149Z" transform="translate(0 0.001)" fill="#fff"/>
    <path id="Контур_1483" data-name="Контур 1483" d="M235.674,227.93a3.854,3.854,0,0,1-2.03-1.069,3.441,3.441,0,0,1-1.014-2.466c0-.265-.056-.39-.339-.467a2.8,2.8,0,0,1-2.053-2.713q0-2.644,0-5.287c0-.464.131-.592.6-.594.226,0,.452,0,.678,0a.436.436,0,0,1,.481.437.425.425,0,0,1-.465.45c-.454,0-.4.035-.4.431,0,1.482,0,2.964,0,4.447a1.97,1.97,0,0,0,1.182,1.879A1.925,1.925,0,0,0,235,221.192c.028-1.572,0-3.145.01-4.718,0-.19-.072-.265-.256-.249a1.071,1.071,0,0,1-.217,0,.428.428,0,0,1-.395-.438.414.414,0,0,1,.389-.441,8.363,8.363,0,0,1,.975,0,.4.4,0,0,1,.391.438c.007.316,0,.633,0,.949q0,2.21,0,4.419a2.823,2.823,0,0,1-2.146,2.811c-.167.045-.238.109-.243.289A2.757,2.757,0,0,0,235.768,227a2.708,2.708,0,0,0,3.055-2,3.133,3.133,0,0,0,.093-.751c0-1.13-.007-2.26.005-3.389a.358.358,0,0,0-.312-.41,2.59,2.59,0,0,1-1.861-2.7,2.622,2.622,0,1,1,3.493,2.666c-.432.151-.432.151-.432.612q0,1.64,0,3.281a3.587,3.587,0,0,1-2.816,3.553c-.079.019-.156.042-.234.064Zm3.678-8.26a1.72,1.72,0,1,0-1.71-1.744,1.749,1.749,0,0,0,1.71,1.744" transform="translate(-217.72 -203.617)" fill="#fff"/>
    <path id="Контур_1484" data-name="Контур 1484" d="M238.959,113.963c-.075-.017-.182-.036-.286-.064q-2.995-.811-5.989-1.624c-.319-.087-.464-.261-.449-.524a.471.471,0,0,1,.41-.436.783.783,0,0,1,.319.047l3.107.863,2.9.8a1.246,1.246,0,0,1,.256.087.452.452,0,0,1-.267.851" transform="translate(-219.609 -105.261)" fill="#fff"/>
    <path id="Контур_1485" data-name="Контур 1485" d="M225.333,160.069a2.64,2.64,0,0,1-.564-.13q-2.17-.591-4.337-1.189a1.855,1.855,0,0,1-.334-.11.424.424,0,0,1-.247-.515.446.446,0,0,1,.479-.354,1.473,1.473,0,0,1,.265.055l4.812,1.3a1.132,1.132,0,0,1,.154.052.448.448,0,0,1,.278.55.453.453,0,0,1-.506.34" transform="translate(-207.884 -149.192)" fill="#fff"/>
    <path id="Контур_1486" data-name="Контур 1486" d="M272.348,73.619a7.119,7.119,0,0,1-.841-.213l-2.694-.729c-.061-.017-.122-.034-.182-.053-.333-.106-.478-.324-.4-.6s.313-.4.649-.309c.7.186,1.394.38,2.091.571.523.143,1.046.284,1.567.433a.468.468,0,0,1,.386.534c-.048.246-.232.375-.574.364" transform="translate(-253.628 -67.791)" fill="#fff"/>
    <path id="Контур_1487" data-name="Контур 1487" d="M368.381,94.54c-.057.159.009.235.19.285a.451.451,0,1,1-.227.872c-.161-.028-.259-.013-.33.167a.454.454,0,0,1-.554.273.422.422,0,0,1-.3-.531.218.218,0,0,0-.163-.28.42.42,0,0,1-.273-.523.43.43,0,0,1,.508-.337.238.238,0,0,0,.284-.176.425.425,0,0,1,.522-.278.452.452,0,0,1,.343.527" transform="translate(-346.775 -88.889)" fill="#fff"/>
    <path id="Контур_1488" data-name="Контур 1488" d="M380.158,244.619a.414.414,0,0,1-.395.432c-.177.013-.25.064-.262.252a.439.439,0,0,1-.875,0c-.012-.185-.078-.243-.259-.256a.44.44,0,0,1-.017-.873c.189-.013.267-.067.277-.268a.439.439,0,0,1,.872,0c.012.2.081.258.274.271a.41.41,0,0,1,.385.441" transform="translate(-357.421 -230.28)" fill="#fff"/>
  </g>
</svg>
