<svg xmlns="http://www.w3.org/2000/svg" width="13.875" height="13.866" viewBox="0 0 13.875 13.866">
  <g id="Сгруппировать_9731" data-name="Сгруппировать 9731" transform="translate(-666.874 -550.242)">
    <path id="Контур_3873" data-name="Контур 3873" d="M672.534,550.242c.271.045.545.073.81.138a5.186,5.186,0,0,1,3.467,2.672,5.249,5.249,0,0,1-.05,5.026l-.09.163c.27.265.546.531.817.8.98.979,1.966,1.951,2.933,2.943a1.271,1.271,0,0,1,.266,1.279,1.075,1.075,0,0,1-.913.82,1.342,1.342,0,0,1-1.233-.361q-1.75-1.762-3.51-3.515a1.56,1.56,0,0,1-.124-.153c-.392.168-.739.343-1.1.467a4.884,4.884,0,0,1-2.612.178,5.184,5.184,0,0,1-4.081-3.625,7.987,7.987,0,0,1-.21-1.029c-.008-.04-.018-.078-.026-.118v-.812a.533.533,0,0,0,.023-.09,4.749,4.749,0,0,1,.371-1.514,5.207,5.207,0,0,1,3.843-3.166c.21-.046.424-.07.637-.1Zm-4.147,5.313a3.764,3.764,0,1,0,3.7-3.8A3.757,3.757,0,0,0,668.386,555.555Z" />
  </g>
</svg>
