<svg xmlns="http://www.w3.org/2000/svg" width="12.248" height="12.247" viewBox="0 0 12.248 12.247">
	<path id="Контур_1466" data-name="Контур 1466" d="M232.722,63.744c-1.231,0-2.461,0-3.691,0a2.356,2.356,0,0,1-2.348-1.778,2.478,2.478,0,0,1-.072-.607q-.007-3.732,0-7.464a2.355,2.355,0,0,1,2.033-2.371,2.563,2.563,0,0,1,.4-.022q3.691,0,7.382,0a2.356,2.356,0,0,1,2.369,1.839,2.506,2.506,0,0,1,.064.568q.006,3.711,0,7.423a2.369,2.369,0,0,1-2.046,2.392,2.755,2.755,0,0,1-.436.022Q234.547,63.746,232.722,63.744ZM227.8,56.377v.152q0,2.392,0,4.784a1.167,1.167,0,0,0,1.232,1.236q3.69,0,7.382,0a1.177,1.177,0,0,0,1.239-1.247q0-2.386,0-4.771v-.148h-1.769c.062.373.14.737.179,1.105a2.808,2.808,0,0,1-.138,1.118,3.33,3.33,0,0,1-.5.994,3.4,3.4,0,0,1-.811.786,3.337,3.337,0,0,1-3.764.008,3.352,3.352,0,0,1-1.235-4.016Zm7.075,1.245a2.152,2.152,0,1,0-2.181,2.15A2.151,2.151,0,0,0,234.879,57.622Zm2.547-4.7h-2.058v2.057h2.058" transform="translate(-226.608 -51.499)" />
</svg>
