<svg id="Сгруппировать_9560" data-name="Сгруппировать 9560" xmlns="http://www.w3.org/2000/svg" width="21.904" height="21.899" viewBox="0 0 21.904 21.899">
  <path id="Контур_3825" data-name="Контур 3825" d="M1021.919,363.374a3.954,3.954,0,0,1-1.155,2.713c-1.01,1.022-2.012,2.051-3.049,3.043a3.833,3.833,0,0,1-4.168.889c-.317-.109-.321-.135-.089-.366,1.636-1.637,3.244-3.3,4.922-4.9a1.851,1.851,0,0,0-.013-2.887,3.151,3.151,0,0,0-.975-.75,1.7,1.7,0,0,0-1.7.266,4.045,4.045,0,0,0-.354.326l-4.893,4.891c-.245.244-.276.242-.386-.083a3.839,3.839,0,0,1,.9-4.145c1-1.049,2.042-2.068,3.08-3.085a3.918,3.918,0,0,1,5.47,0,18.2,18.2,0,0,1,1.586,1.636A3.933,3.933,0,0,1,1021.919,363.374Z" transform="translate(-1000.015 -358.176)" fill="#8e71f6"/>
  <path id="Контур_3826" data-name="Контур 3826" d="M1001.517,380.9a1.615,1.615,0,0,0,1.229-.537q2.533-2.54,5.071-5.073c.245-.244.269-.241.381.087a3.853,3.853,0,0,1-.934,4.2c-.969,1-1.965,1.978-2.954,2.96a3.918,3.918,0,0,1-5.654-.013c-.376-.376-.755-.751-1.129-1.129a3.922,3.922,0,0,1,.013-5.618c.99-.993,1.969-2,2.978-2.971a3.852,3.852,0,0,1,4.184-.922c.319.109.319.137.084.372q-2.482,2.482-4.965,4.964a1.942,1.942,0,0,0-.635,1.123,1.675,1.675,0,0,0,.423,1.405c.226.251.468.488.715.719A1.573,1.573,0,0,0,1001.517,380.9Z" transform="translate(-996.349 -361.841)" fill="#8e71f6"/>
  <path id="Контур_3827" data-name="Контур 3827" d="M1004.546,374.983a1.257,1.257,0,0,1,.439-.959q2.448-2.444,4.893-4.891c.8-.8,1.6-1.6,2.4-2.4a1.285,1.285,0,0,1,1.454-.257,1.322,1.322,0,0,1,.774,1.237,1.422,1.422,0,0,1-.464.981q-2.45,2.442-4.893,4.891c-.782.782-1.561,1.569-2.349,2.345a1.315,1.315,0,0,1-1.956-.057A1.239,1.239,0,0,1,1004.546,374.983Z" transform="translate(-998.582 -360.404)" fill="#8e71f6"/>
</svg>
