<svg xmlns="http://www.w3.org/2000/svg" width="16.283" height="13.189" viewBox="0 0 16.283 13.189">
  <path id="Контур_3863" data-name="Контур 3863" d="M1528.785,464.486a1.856,1.856,0,0,1-.514,1.187q-2.975,3.176-5.949,6.354c-1.1,1.18-2.216,2.355-3.315,3.541-.167.18-.273.221-.465.027-1.819-1.831-3.656-3.643-5.466-5.482a1.857,1.857,0,1,1,2.649-2.6c.9.889,1.791,1.777,2.671,2.681.218.224.341.232.562,0q3.273-3.511,6.568-7a1.827,1.827,0,0,1,2.593-.212A1.93,1.93,0,0,1,1528.785,464.486Z" transform="translate(-1512.502 -462.534)" fill="#fff"/>
</svg>
