<svg xmlns="http://www.w3.org/2000/svg" width="10.724" height="9.141" viewBox="0 0 10.724 9.141">
  <g id="Сгруппировать_9767" data-name="Сгруппировать 9767" transform="translate(-95.1 -149.828)">
    <path id="Контур_3894" data-name="Контур 3894" d="M95.1,154.483a2.583,2.583,0,0,1,.219-.248q2.451-2.152,4.9-4.3a.319.319,0,0,1,.476,0l4.969,4.354a.312.312,0,0,1,.026.522l-.263.288a.322.322,0,0,1-.519.03l-2.223-1.948-2.152-1.885-.073-.061c-.029.023-.059.045-.087.07l-4.336,3.8c-.226.2-.371.193-.571-.031-.128-.143-.248-.292-.371-.439Z" fill="#8978f7"/>
    <path id="Контур_3895" data-name="Контур 3895" d="M105.52,165.063v-.115q0-1.344,0-2.688c0-.189-.056-.246-.243-.246h-1.55c-.166,0-.227.061-.227.229q0,1.312,0,2.625c0,.06,0,.119,0,.2H103.4c-.74,0-1.48,0-2.22,0a.666.666,0,0,1-.682-.688c0-.942,0-1.884,0-2.826a.212.212,0,0,1,.079-.18q1.929-1.685,3.854-3.376c.064-.057.1-.066.171,0q1.927,1.7,3.861,3.384a.191.191,0,0,1,.076.16q0,1.413,0,2.826a.67.67,0,0,1-.7.7H105.52Z" transform="translate(-4.048 -6.095)" fill="#8978f7"/>
    <path id="Контур_3896" data-name="Контур 3896" d="M127.382,154.444l-.782-.685c-.163-.143-.329-.284-.488-.432a.216.216,0,0,1-.059-.132c-.008-.112,0-.225,0-.338a.3.3,0,0,1,.3-.307c.244,0,.488,0,.732,0a.29.29,0,0,1,.3.294C127.384,153.369,127.382,153.894,127.382,154.444Z" transform="translate(-23.236 -2.042)" fill="#8978f7"/>
  </g>
</svg>
