<svg xmlns="http://www.w3.org/2000/svg" width="28" height="28" viewBox="0 0 28 28">
  <g id="iRuxHS.tif" transform="translate(-642.405 -217.329)">
    <g id="Сгруппировать_16" data-name="Сгруппировать 16" transform="translate(642.405 217.329)">
      <path id="Контур_1343" data-name="Контур 1343" d="M663.738,217.329h2.842a.77.77,0,0,1,.353.745c-.018.372,0,.745-.005,1.118,0,.425,0,.42.423.423a3.046,3.046,0,0,1,2.28.933,3.314,3.314,0,0,1,.774,1.481v20.931c-.029.086-.06.172-.087.259a2.9,2.9,0,0,1-2.859,2.11q-11.078,0-22.155,0a2.888,2.888,0,0,1-2.9-2.874q0-9.971,0-19.942a2.744,2.744,0,0,1,.546-1.656,2.969,2.969,0,0,1,2.466-1.239c.481-.011.483-.013.485-.5,0-.355.013-.711,0-1.065a.753.753,0,0,1,.352-.72h2.842a.771.771,0,0,1,.353.746c-.019.381,0,.764-.005,1.146s.01.395.4.394h6.931c2.1,0,4.2,0,6.3,0,.231,0,.329-.069.321-.313-.014-.418.01-.837-.006-1.255A.758.758,0,0,1,663.738,217.329Zm-7.321,8.2v0h-12.4c-.371,0-.376,0-.376.388q0,2.8,0,5.6,0,5.477,0,10.954a1.64,1.64,0,0,0,1.552,1.606c.673.02,1.347.01,2.021.01h10.135q5.081,0,10.162,0a1.657,1.657,0,0,0,1.513-.951,2.374,2.374,0,0,0,.167-1.228q0-7.977,0-15.953c0-.416-.015-.43-.431-.43Zm0-1.23h12.458c.134,0,.31.024.309-.174a8.757,8.757,0,0,0-.049-1.988,1.775,1.775,0,0,0-2.041-1.291c-.145.012-.165.117-.165.236,0,.3,0,.6,0,.9a.554.554,0,0,1-.594.6q-1.175.011-2.349,0a.554.554,0,0,1-.586-.584c-.009-.273-.017-.547,0-.819s-.078-.347-.344-.345c-1.175.012-2.349,0-3.524,0q-4.89,0-9.781,0c-.247,0-.319.091-.307.323.014.282.007.565,0,.847a.543.543,0,0,1-.563.576q-1.2.014-2.4,0a.55.55,0,0,1-.562-.58c-.008-.209-.006-.419,0-.628,0-.556.005-.556-.555-.531a1.705,1.705,0,0,0-1.708,1.782c0,.41,0,.82,0,1.229,0,.446,0,.443.431.443Zm-9.285-4.35c0,.236,0,.472,0,.708,0,.778-.084.694.728.708.256,0,.359-.084.354-.347-.012-.672-.007-1.344,0-2.017,0-.46.005-.46-.468-.463-.082,0-.164,0-.245,0-.337,0-.363.025-.364.351C647.132,219.245,647.132,219.6,647.132,219.953Zm17.489-.029h0c0,.245,0,.491,0,.736,0,.779-.084.7.726.7.322,0,.351-.031.351-.368,0-.636,0-1.272,0-1.908,0-.541.007-.541-.519-.547-.1,0-.2,0-.3,0-.187-.007-.26.087-.258.267C664.624,219.179,664.621,219.552,664.621,219.924Z" transform="translate(-642.405 -217.329)" fill="#4faaed"/>
      <path id="Контур_1344" data-name="Контур 1344" d="M689.249,389.226c0,.555,0,1.11,0,1.666,0,.46-.207.664-.671.665q-1.679,0-3.358,0a.6.6,0,0,1-.686-.64q-.022-1.72,0-3.44a.6.6,0,0,1,.642-.637q1.706-.02,3.413,0a.609.609,0,0,1,.661.695C689.252,388.1,689.249,388.661,689.249,389.226Zm-2.355-1.165h0c-.273,0-.547.009-.819,0-.231-.01-.329.071-.324.313.011.555.007,1.111,0,1.666,0,.193.066.29.266.289.583,0,1.165,0,1.748,0,.167,0,.255-.073.255-.246q0-.887,0-1.775c0-.19-.1-.253-.277-.248C687.458,388.065,687.176,388.06,686.894,388.06Z" transform="translate(-682.216 -377.548)" fill="#4faaed"/>
      <path id="Контур_1345" data-name="Контур 1345" d="M1008.619,389.2c0,.564,0,1.129,0,1.693,0,.446-.208.655-.652.656q-1.693.005-3.386,0a.6.6,0,0,1-.679-.648c-.014-1.137-.013-2.275,0-3.413a.6.6,0,0,1,.652-.656q1.706-.019,3.413,0c.442.005.651.253.653.7C1008.622,388.094,1008.619,388.649,1008.619,389.2Zm-3.494-.023h0c0,.3,0,.6,0,.9,0,.159.072.238.229.238l1.8,0a.208.208,0,0,0,.235-.236q0-.9,0-1.8c0-.158-.081-.228-.24-.227q-.888.005-1.775,0c-.173,0-.248.075-.246.247C1005.129,388.6,1005.125,388.89,1005.125,389.181Z" transform="translate(-984.098 -377.546)" fill="#4faaed"/>
      <path id="Контур_1346" data-name="Контур 1346" d="M897.9,495.81c0-.564,0-1.129,0-1.693a.584.584,0,0,1,.62-.642q1.72-.011,3.44,0a.6.6,0,0,1,.652.626q.026,1.733,0,3.467a.6.6,0,0,1-.673.631q-1.693.009-3.386,0a.6.6,0,0,1-.653-.669C897.9,496.957,897.9,496.383,897.9,495.81Zm2.377,1.157c.291,0,.582,0,.873,0,.171,0,.248-.079.247-.249,0-.582,0-1.164,0-1.746,0-.2-.09-.271-.284-.269q-.845.01-1.691,0c-.21,0-.3.085-.293.292q.007.846,0,1.691c0,.2.08.283.276.28C899.7,496.963,899.988,496.967,900.279,496.967Z" transform="translate(-883.911 -478.349)" fill="#4faaed"/>
      <path id="Контур_1347" data-name="Контур 1347" d="M793.514,600.217c.564,0,1.129,0,1.693,0a.6.6,0,0,1,.679.672q.009,1.679,0,3.359a.6.6,0,0,1-.649.684q-1.706.024-3.413,0a.618.618,0,0,1-.664-.7q-.009-1.679,0-3.359a.594.594,0,0,1,.662-.657C792.385,600.215,792.949,600.217,793.514,600.217Zm0,3.5h0c.291,0,.582,0,.873,0,.179,0,.272-.065.271-.254q-.005-.873,0-1.746c0-.178-.07-.271-.258-.269q-.859.006-1.719,0c-.188,0-.287.069-.285.272,0,.582,0,1.164,0,1.746,0,.173.078.249.247.248C792.929,603.711,793.22,603.712,793.511,603.712Z" transform="translate(-783.01 -579.25)" fill="#4faaed"/>
      <path id="Контур_1348" data-name="Контур 1348" d="M795.839,495.779c0,.555.005,1.11,0,1.665a.634.634,0,0,1-.712.707q-1.679.008-3.357,0a.618.618,0,0,1-.658-.649q-.012-1.706,0-3.412a.615.615,0,0,1,.67-.666q1.706-.014,3.412,0a.619.619,0,0,1,.644.662C795.843,494.651,795.839,495.215,795.839,495.779Zm-1.235.034c0-.3,0-.6,0-.9,0-.165-.054-.258-.234-.257q-.9,0-1.8,0c-.161,0-.23.075-.229.233q0,.9,0,1.8c0,.16.075.23.233.229q.9,0,1.8,0c.16,0,.231-.075.229-.233C794.6,496.4,794.6,496.1,794.6,495.813Z" transform="translate(-782.961 -478.3)" fill="#4faaed"/>
      <path id="Контур_1349" data-name="Контур 1349" d="M900.2,391.487c-.564,0-1.128,0-1.692,0a.586.586,0,0,1-.656-.658q0-1.678,0-3.356a.622.622,0,0,1,.681-.708c1.119-.014,2.237-.011,3.356,0a.645.645,0,0,1,.685.692q.014,1.664,0,3.329a.625.625,0,0,1-.711.7C901.307,391.49,900.752,391.487,900.2,391.487Zm.023-3.5c-.291,0-.582,0-.873,0-.183,0-.268.069-.266.256q.006.873,0,1.747c0,.181.073.267.26.266.573,0,1.146,0,1.719,0,.208,0,.3-.075.292-.289-.009-.573-.007-1.146,0-1.719,0-.184-.067-.268-.256-.263C900.8,388,900.511,387.991,900.22,387.991Z" transform="translate(-883.86 -377.478)" fill="#4faaed"/>
      <path id="Контур_1350" data-name="Контур 1350" d="M686.831,600.168c.555,0,1.11,0,1.664,0a.593.593,0,0,1,.675.666q0,1.678,0,3.356a.618.618,0,0,1-.685.7q-1.678.016-3.356,0a.646.646,0,0,1-.683-.694c-.009-1.109-.011-2.219,0-3.329a.632.632,0,0,1,.719-.7C685.721,600.165,686.276,600.168,686.831,600.168Zm-.046,3.5h0c.282,0,.565-.011.846,0,.243.013.319-.093.314-.323-.01-.555-.009-1.11,0-1.665,0-.192-.067-.287-.269-.285-.582,0-1.164,0-1.746,0-.166,0-.254.064-.253.242,0,.591,0,1.183,0,1.774,0,.191.085.257.267.253C686.221,603.662,686.5,603.667,686.785,603.667Z" transform="translate(-682.137 -579.205)" fill="#4faaed"/>
      <path id="Контур_1351" data-name="Контур 1351" d="M793.517,391.557c-.555,0-1.11,0-1.664,0a.612.612,0,0,1-.687-.694q-.007-1.651,0-3.3a.639.639,0,0,1,.7-.725q1.664-.017,3.328,0a.639.639,0,0,1,.7.723q.009,1.664,0,3.328a.622.622,0,0,1-.688.671c-.564,0-1.128,0-1.692,0Zm1.141-2.371h0c0-.282-.006-.564,0-.845.005-.19-.056-.285-.265-.283-.582.007-1.163,0-1.745,0-.189,0-.258.081-.257.264q.009.872,0,1.745c0,.187.077.263.26.261.582,0,1.163-.007,1.745,0,.189,0,.259-.081.254-.265C794.652,389.769,794.657,389.478,794.657,389.187Z" transform="translate(-783.017 -377.547)" fill="#4faaed"/>
      <path id="Контур_1352" data-name="Контур 1352" d="M689.245,495.847c0,.555,0,1.109,0,1.664a.632.632,0,0,1-.71.7q-1.623,0-3.247,0c-.53,0-.766-.234-.769-.77q-.009-1.6,0-3.192c0-.537.239-.769.767-.771q1.61,0,3.219,0c.516,0,.735.216.739.727C689.249,494.755,689.245,495.3,689.245,495.847Zm-2.37-1.126v0c-.291,0-.582,0-.872,0-.164,0-.259.052-.258.234q.006.9,0,1.8c0,.161.073.231.232.23q.9,0,1.8,0c.161,0,.23-.073.23-.231,0-.591,0-1.181,0-1.772,0-.187-.084-.259-.267-.255C687.457,494.726,687.166,494.72,686.875,494.72Z" transform="translate(-682.209 -478.36)" fill="#4faaed"/>
      <path id="Контур_1353" data-name="Контур 1353" d="M1008.623,495.865q0,.8,0,1.61c0,.5-.233.742-.727.743q-1.6,0-3.192,0c-.57,0-.8-.223-.807-.788q-.008-1.582,0-3.165c0-.552.237-.78.784-.781q1.6,0,3.192,0c.533,0,.746.213.749.744C1008.626,494.774,1008.623,495.32,1008.623,495.865Zm-3.5-.019h0c0,.291.006.582,0,.872,0,.184.066.266.255.264q.886-.009,1.772,0c.18,0,.238-.087.237-.253q0-.872,0-1.745c0-.183-.075-.262-.262-.261q-.872.007-1.745,0c-.207,0-.269.095-.264.285C1005.129,495.283,1005.124,495.564,1005.124,495.846Z" transform="translate(-984.099 -478.362)" fill="#4faaed"/>
    </g>
  </g>
</svg>
