<?xml version="1.0" encoding="UTF-8" standalone="no"?>
<!DOCTYPE svg PUBLIC "-//W3C//DTD SVG 1.1//EN" "http://www.w3.org/Graphics/SVG/1.1/DTD/svg11.dtd">
<svg width="100%" height="100%" viewBox="0 0 33 38" version="1.1" xmlns="http://www.w3.org/2000/svg" xmlns:xlink="http://www.w3.org/1999/xlink" xml:space="preserve" xmlns:serif="http://www.serif.com/" style="fill-rule:evenodd;clip-rule:evenodd;stroke-linejoin:round;stroke-miterlimit:2;">
    <g transform="matrix(1,0,0,1,-4.78446,-4.78421)">
        <g transform="matrix(1,0,0,1,1,1)">
            <path d="M12.117,34.684C14.044,35.858 16.13,36.759 18.118,37.821C19.967,38.808 21.529,39.946 23.212,41.192L23.6,41.613L28.435,41.613C25.925,38.891 23.433,37.169 20.19,35.573C18.031,34.512 15.853,33.497 13.714,32.39C11.899,31.452 8.794,29.355 8.404,26.959C8.307,23.86 10.572,21.527 12.715,19.703C13.524,19.015 14.332,18.325 15.176,17.689C19.111,14.727 23.286,12.064 27.048,8.888C28.822,7.39 31.303,5.998 33.252,3.797L28.719,3.784C27.288,4.845 25.837,5.872 24.371,6.875C20.362,9.615 16.755,12.134 13.017,15.349C12.394,15.885 11.793,16.454 11.204,17.034C6.887,21.283 6.669,31.366 12.117,34.684L12.117,34.684Z" style="fill:rgb(79,168,0);"/>
        </g>
        <g transform="matrix(1,0,0,1,1,1)">
            <path d="M25.578,3.794C29.568,5.982 34.055,8.786 34.695,13.522C35.114,16.628 34.983,21.737 32.81,24.23C30.678,26.678 27.272,28.52 24.651,30.41C21.909,32.386 19.133,34.309 16.406,36.309C14.214,37.915 12.366,39.209 11.467,41.627L8.605,41.614C9.135,38.777 10.653,36.917 13.081,35.138C16.36,32.737 19.785,30.535 23.054,28.116C25.226,26.507 27.347,24.813 29.486,23.153C31.985,21.213 33.637,20.411 34.045,17.28C34.093,15.99 33.986,14.752 33.314,13.522C30.975,9.243 25.628,6.468 20.486,3.794L25.578,3.794Z" style="fill:rgb(0,71,186);"/>
        </g>
        <g transform="matrix(1,0,0,1,1,1)">
            <path d="M32.5,29.318C30.835,31.072 30.22,32.528 29.38,34.042C29.11,34.538 28.3,35.813 28.045,35.813C28,35.813 28,35.782 27.67,35.782C26.995,35.782 25.285,36.173 25.51,36.847L25.69,37.402C25.705,37.462 25.735,37.6 26.5,37.6C27.115,37.6 27.625,37.313 28.18,36.968C29.155,37.357 29.711,37.66 30.58,37.66C33.655,37.66 36.325,34.102 36.325,31.148C36.325,28.493 34.315,27.218 32.485,27.218C30.701,27.218 29.44,28.357 28.48,29.633L29.651,30.458C30.701,28.823 31.541,28.298 32.485,28.298C33.61,28.298 34.96,29.018 34.96,31.103C34.96,33.262 32.65,36.637 30.385,36.637C29.83,36.637 29.14,36.382 29.14,36.262C29.14,36.082 29.365,36.382 30.385,34.807C31.645,32.873 31.795,31.913 33.445,29.857L32.5,29.317L32.5,29.318Z" style="fill:rgb(79,168,0);fill-rule:nonzero;"/>
        </g>
        <g transform="matrix(1,0,0,1,1,1)">
            <path d="M13.099,12.833C12.649,13.193 11.809,13.658 11.419,13.658C11.314,13.658 11.059,13.627 11.059,13.358C11.059,12.727 11.944,10.792 14.839,5.258L13.489,4.508C12.289,6.908 10.939,8.782 8.78,11.122C7.52,12.473 6.395,13.658 5.704,13.658C5.48,13.658 5.374,13.538 5.374,13.418C5.374,13.178 5.615,12.922 5.645,12.742C5.645,12.697 5.66,12.667 5.645,12.622C5.629,12.517 5.57,12.488 5.495,12.442L4.655,11.977C4.235,11.738 3.784,13.118 3.784,13.717C3.784,14.782 4.759,14.904 5.074,14.904C5.689,14.904 6.62,14.722 8.825,12.337C9.334,11.782 10.309,10.687 10.94,9.877L11.045,9.938C9.874,12.142 9.529,13.133 9.529,13.807C9.529,14.497 9.995,14.904 10.55,14.904C11.134,14.904 12.125,14.332 12.74,13.852L13.1,12.833L13.099,12.833Z" style="fill:rgb(0,71,186);fill-rule:nonzero;"/>
        </g>
    </g>
</svg>