<svg id="Сгруппировать_87" data-name="Сгруппировать 87" xmlns="http://www.w3.org/2000/svg" width="17.576" height="10.558" viewBox="0 0 17.576 10.558">
	<path id="Контур_45" data-name="Контур 45" d="M451.29,53.2c.323,0,.646.009.968,0a.793.793,0,0,1,.721.385q.349.513.68,1.038c.486.773.936,1.568,1.448,2.325a4.05,4.05,0,0,0,.632.777c.27.241.458.2.6-.134a4.01,4.01,0,0,0,.238-1.25c.051-.619.044-1.24.039-1.861,0-.461-.2-.652-.657-.662-.122,0-.244.005-.365,0-.046,0-.107.021-.133-.032s.027-.1.063-.138a3.369,3.369,0,0,1,1.818-.982,8.991,8.991,0,0,1,1.385-.039c.219-.006.438,0,.657,0a.655.655,0,0,1,.694.5,3.441,3.441,0,0,1,.12,1.138c0,.858-.1,1.714-.013,2.572a2.257,2.257,0,0,0,.169.744.423.423,0,0,0,.779.086,1.983,1.983,0,0,0,.26-.481,21.652,21.652,0,0,1,2.193-3.911.7.7,0,0,1,.607-.274,6.9,6.9,0,0,1,2.584.381,1.271,1.271,0,0,1,.151.066c.222.11.266.2.2.439a4.45,4.45,0,0,1-.549,1.148c-.533.89-1.181,1.7-1.782,2.541a5.852,5.852,0,0,0-.344.538c-.24.429-.212.594.18.882a8.679,8.679,0,0,1,1.231,1.112,9.793,9.793,0,0,1,1.1,1.335,1.068,1.068,0,0,1-.1,1.347,1.23,1.23,0,0,1-.883.381c-.676.009-1.352,0-2.027,0a.691.691,0,0,1-.486-.176q-.283-.259-.555-.529a13.591,13.591,0,0,0-1.308-1.193c-.1-.074-.2-.141-.3-.208a.948.948,0,0,0-1.078-.094,1.222,1.222,0,0,0-.672,1.058,2.53,2.53,0,0,1-.075.686.559.559,0,0,1-.612.457,6.375,6.375,0,0,1-2.093-.236,6.265,6.265,0,0,1-2.287-1.4,16.84,16.84,0,0,1-4.234-6.1c-.2-.483-.4-.966-.6-1.451-.181-.448-.042-.7.44-.744.393-.032.79-.007,1.185-.007Z" transform="translate(-449.589 -52.618)" />
</svg>
