<svg id="Сгруппировать_215" data-name="Сгруппировать 215" xmlns="http://www.w3.org/2000/svg" xmlns:xlink="http://www.w3.org/1999/xlink" width="8.997" height="15.518" viewBox="0 0 8.997 15.518">
  <defs>
    <clipPath id="clip-path">
      <rect id="Прямоугольник_2181" data-name="Прямоугольник 2181" width="8.997" height="15.518" fill="#fff"/>
    </clipPath>
  </defs>
  <g id="Сгруппировать_214" data-name="Сгруппировать 214" clip-path="url(#clip-path)">
    <path id="Контур_1525" data-name="Контур 1525" d="M3.91,118.664c-.042.262-.08.506-.119.749a5.65,5.65,0,0,1-.547,1.534c-.381.792-.75,1.59-1.124,2.385a.92.92,0,0,1-.671.555.841.841,0,0,1-.865-.31.872.872,0,0,1-.12-.956c.288-.637.591-1.267.888-1.9.142-.3.279-.607.432-.9a4.649,4.649,0,0,0,.347-1.475q.163-1.034.3-2.071c.086-.633.158-1.268.236-1.9-.06-.021-.078.03-.1.055a5.4,5.4,0,0,0-1.017,1.412c-.047.089-.094.178-.146.264a.749.749,0,0,1-.989.307.729.729,0,0,1-.329-1A8.948,8.948,0,0,1,.925,114,6.161,6.161,0,0,1,3.3,112.119a1.521,1.521,0,0,1,.91-.144,3.193,3.193,0,0,0,.649.038,1.357,1.357,0,0,1,1.108.517c.3.34.591.693.872,1.051a5.931,5.931,0,0,0,1.605,1.332,1.544,1.544,0,0,1,.366.277.733.733,0,0,1,.03.936.708.708,0,0,1-.935.212,7.848,7.848,0,0,1-2-1.53c-.052-.06-.106-.117-.185-.2l-.121.572c-.139.657-.275,1.315-.418,1.971a.285.285,0,0,0,.1.306c.347.326.685.663,1.025,1a3.325,3.325,0,0,1,.9,1.614c.22.894.442,1.787.657,2.682A.9.9,0,0,1,7.09,123.9a.872.872,0,0,1-.949-.667c-.135-.511-.255-1.027-.382-1.54q-.141-.57-.284-1.139a1.733,1.733,0,0,0-.508-.88c-.334-.31-.655-.633-.982-.95a.945.945,0,0,0-.075-.057" transform="translate(0 -108.39)" fill="#fff"/>
    <path id="Контур_1526" data-name="Контур 1526" d="M100.031,0a1.6,1.6,0,0,1,1.629,1.631,1.6,1.6,0,0,1-1.629,1.625A1.627,1.627,0,0,1,98.4,1.648,1.613,1.613,0,0,1,100.031,0" transform="translate(-95.265 0)" fill="#fff"/>
  </g>
</svg>
