<svg xmlns="http://www.w3.org/2000/svg" width="31.364" height="31.881" viewBox="0 0 31.364 31.881">
	<g id="Lj2zjF.tif" transform="translate(-656.886 -229.395)">
		<g id="Сгруппировать_14" data-name="Сгруппировать 14" transform="translate(656.886 229.395)">
			<path id="Контур_1311" data-name="Контур 1311" d="M672.561,261.276h-15.2c-.476,0-.477,0-.477-.487q0-7.4,0-14.8c0-.4.009-.409.428-.409l7.4,0c.518,0,.521,0,.521-.508q0-2.38,0-4.761c0-.476,0-.474.462-.474,1.663,0,3.326,0,4.989,0,.244,0,.377-.04.3-.322a.564.564,0,0,1,0-.259c.061-.294.025-.48-.352-.436-.189.022-.172-.158-.172-.285,0-.652-.011-1.3,0-1.956.006-.265-.079-.366-.353-.36-.641.015-1.283,0-1.924.009-.252,0-.344-.077-.342-.336q.014-1.777,0-3.554c0-.26.1-.34.347-.336.641.012,1.283-.006,1.924.011.276.007.356-.092.35-.358-.016-.641,0-1.283-.011-1.924-.005-.258.093-.341.344-.339,1.185.009,2.37.012,3.554,0,.268,0,.332.108.328.35-.011.63.008,1.261-.008,1.891-.007.28.076.387.368.379.641-.018,1.283,0,1.924-.009.236,0,.327.074.326.318q-.011,1.793,0,3.587c0,.242-.094.324-.328.32-.652-.01-1.3.005-1.956-.01-.26-.006-.34.086-.334.34.015.63,0,1.261.011,1.891.005.264-.052.425-.357.388-.15-.018-.219.036-.188.207a1.042,1.042,0,0,1,.008.421c-.078.32.052.377.345.374,1.663-.012,3.326,0,4.989-.012.333,0,.424.1.421.426-.014,1.652,0,3.3-.012,4.956,0,.288.084.372.37.371,2.522-.01,5.043,0,7.565-.012.322,0,.429.082.428.42q-.016,7.4-.009,14.8c0,.479,0,.48-.484.48Zm-6.237-10.718q0,1.516,0,3.032c0,2.065.009,4.13-.006,6.195,0,.341.109.443.43.41a3.692,3.692,0,0,1,.716,0c.3.029.389-.078.388-.382-.012-2.163-.006-4.326-.006-6.489,0-.436,0-.44.43-.44h3.652c1.663,0,3.326.007,4.989,0,.288,0,.386.09.371.375-.02.368,0,.739,0,1.108,0,1.826,0,3.652-.006,5.478,0,.267.077.375.352.354.248-.02.5,0,.75,0,.426,0,.427,0,.427-.433q0-9.195,0-18.39c0-.443,0-.444-.454-.444q-5.82,0-11.64-.005c-.29,0-.4.069-.395.38C666.328,244.385,666.323,247.472,666.324,250.558Zm13.567,2.834q0,3.21,0,6.421c0,.232.009.385.322.384q3.276-.019,6.551,0c.322,0,.4-.109.4-.413q-.013-6.372,0-12.744c0-.308-.1-.383-.392-.381q-3.243.016-6.486,0c-.324,0-.4.108-.4.412C679.9,249.177,679.891,251.284,679.891,253.392Zm-21.918.035c0,2.119.005,4.237-.006,6.356,0,.3.068.415.394.413q3.275-.02,6.551,0c.266,0,.328-.095.327-.343q-.008-6.388,0-12.777c0-.338-.108-.419-.43-.417q-3.227.019-6.453,0c-.327,0-.4.112-.394.414C657.979,249.19,657.974,251.308,657.973,253.427ZM673.588,231.8h0c0-.337-.009-.674,0-1.011.008-.227-.084-.308-.307-.3-.467.01-.935.017-1.4,0-.284-.012-.351.105-.344.364.016.521.011,1.043.005,1.565-.008.775.087.678-.672.687-.543.006-1.087.006-1.63,0-.217,0-.318.059-.312.294q.019.717,0,1.435c-.006.24.081.327.322.323.652-.011,1.3.006,1.956-.008.257-.005.343.085.338.34-.013.652,0,1.3-.008,1.956,0,.242.086.327.325.32.467-.012.935-.017,1.4,0,.272.011.333-.1.327-.347-.013-.532-.01-1.065-.005-1.6.008-.755-.08-.662.656-.671.543-.006,1.087-.008,1.63,0,.232.005.337-.06.329-.311q-.023-.7,0-1.4c.008-.255-.083-.345-.339-.34-.652.013-1.3,0-1.956.007-.24,0-.331-.083-.321-.323C673.6,232.451,673.588,232.125,673.588,231.8Zm-.479,25.287h0c0,.934,0,1.867,0,2.8,0,.22.065.311.3.309q1.254-.014,2.508,0c.239,0,.291-.1.291-.315-.005-1.856-.008-3.713,0-5.569,0-.282-.11-.349-.367-.345-.792.012-1.585.015-2.377,0-.269,0-.358.076-.354.35C673.119,255.239,673.109,256.162,673.109,257.085Zm-1.088.009h0c0-.934-.005-1.867,0-2.8,0-.232-.062-.331-.312-.327-.825.012-1.65.01-2.475,0-.222,0-.308.068-.307.3q.011,2.8,0,5.6c0,.27.1.33.345.327.8-.011,1.607-.015,2.41,0,.286.006.344-.111.341-.366C672.015,258.919,672.022,258.007,672.022,257.094Zm.552-17.263a.472.472,0,0,0,.485-.493.494.494,0,1,0-.485.493Z" transform="translate(-656.886 -229.395)" />
			<path id="Контур_1312" data-name="Контур 1312" d="M821.776,485.956c-1.62,0-3.239-.009-4.859.007-.335,0-.432-.1-.42-.427.028-.756-.071-.663.664-.664,3.142,0,6.283,0,9.425-.01.322,0,.411.107.4.413-.024.78.081.676-.679.679C824.8,485.96,823.287,485.956,821.776,485.956Z" transform="translate(-806.064 -468.166)" />
			<path id="Контур_1313" data-name="Контур 1313" d="M821.8,517.982h-4.761c-.459,0-.46,0-.462-.44,0-.718-.067-.648.641-.648h9.391c.449,0,.451,0,.446.452-.007.71.07.63-.626.632-1.543,0-3.087,0-4.63,0Z" transform="translate(-806.135 -498.101)" />
			<path id="Контур_1314" data-name="Контур 1314" d="M821.713,549.905c-1.609,0-3.217-.007-4.826.006-.313,0-.418-.093-.406-.409.031-.781-.081-.681.681-.682q4.679-.008,9.358,0c.444,0,.445,0,.447.455,0,.7.061.633-.624.633Z" transform="translate(-806.049 -527.94)" />
			<path id="Контур_1315" data-name="Контур 1315" d="M821.718,454.082c-1.608,0-3.217-.008-4.825.006-.317,0-.417-.1-.406-.41.026-.778-.074-.682.681-.682q4.679-.006,9.357,0c.447,0,.453,0,.449.451-.006.712.066.632-.626.634-1.543.006-3.086,0-4.63,0Z" transform="translate(-806.054 -438.379)" />
			<path id="Контур_1316" data-name="Контур 1316" d="M821.788,421.011c1.6,0,3.2.008,4.794-.007.329,0,.436.092.423.423-.029.759.071.667-.661.667-3.142,0-6.283,0-9.425.009-.318,0-.415-.1-.4-.41.025-.783-.082-.68.675-.682C818.722,421.008,820.255,421.011,821.788,421.011Z" transform="translate(-806.08 -408.48)" />
			<path id="Контур_1317" data-name="Контур 1317" d="M1025.21,509.955c-.261,0-.521-.005-.782,0-.2.005-.267-.085-.267-.275,0-.978-.1-.8.772-.81.358-.005.717.006,1.075,0,.212,0,.285.087.284.293-.005.95.093.781-.756.794-.109,0-.217,0-.326,0Z" transform="translate(-1000.154 -490.599)" />
			<path id="Контур_1318" data-name="Контур 1318" d="M1073.18,508.876c.239,0,.479.013.717,0,.263-.017.339.1.332.346-.024.872.092.725-.716.742-.38.008-.76-.005-1.141,0-.187,0-.28-.061-.278-.263.009-1.007-.1-.8.76-.823C1072.962,508.873,1073.071,508.876,1073.18,508.876Z" transform="translate(-1044.955 -490.605)" />
			<path id="Контур_1319" data-name="Контур 1319" d="M1024.944,541.989c-.239,0-.478,0-.717,0-.065,0-.147.018-.192-.014-.317-.225-.094-.554-.145-.832-.029-.159.066-.237.23-.236.554,0,1.108,0,1.662,0,.087,0,.192,0,.208.112a3.152,3.152,0,0,1,0,.843c-.016.128-.137.122-.233.123-.271,0-.543,0-.815,0Z" transform="translate(-999.876 -520.546)" />
			<path id="Контур_1320" data-name="Контур 1320" d="M1073.1,541.923c-.239,0-.479-.012-.717,0-.264.018-.335-.1-.332-.347.011-.857-.084-.737.712-.742.369,0,.739.006,1.108,0,.214-.005.317.063.315.3-.009.945.094.779-.76.791C1073.32,541.924,1073.212,541.922,1073.1,541.923Z" transform="translate(-1044.919 -520.479)" />
			<path id="Контур_1321" data-name="Контур 1321" d="M1024.915,573.911c-.163,0-.327.01-.489,0s-.437.1-.51-.088a1.676,1.676,0,0,1-.016-.9c.018-.1.135-.093.22-.094.543,0,1.086,0,1.629,0,.182,0,.249.085.249.259,0,1.005.093.8-.758.827-.109,0-.217,0-.326,0Z" transform="translate(-999.862 -550.38)" />
			<path id="Контур_1322" data-name="Контур 1322" d="M1072.856,573.928c-.239,0-.478,0-.717,0-.065,0-.147.018-.192-.014-.32-.223-.1-.553-.148-.83-.029-.157.062-.239.228-.238.554,0,1.108,0,1.662,0,.086,0,.193,0,.21.11a3.152,3.152,0,0,1,0,.843c-.015.128-.135.124-.232.125-.271,0-.543,0-.814,0Z" transform="translate(-1044.653 -550.397)" />
			<path id="Контур_1323" data-name="Контур 1323" d="M1025.185,605.789c-.239,0-.479-.013-.717,0-.263.019-.339-.1-.335-.344.015-.869-.08-.731.713-.745.38-.007.76,0,1.141,0,.186,0,.281.063.279.263-.009,1.013.107.8-.756.825C1025.4,605.792,1025.294,605.789,1025.185,605.789Z" transform="translate(-1000.13 -580.171)" />
			<path id="Контур_1324" data-name="Контур 1324" d="M1073.143,605.794c-.261,0-.521-.005-.782,0-.2.005-.27-.083-.269-.274.01-.991-.109-.794.767-.813.358-.008.717.006,1.075,0,.209,0,.29.08.288.288-.007.958.089.779-.755.8C1073.361,605.8,1073.252,605.794,1073.143,605.794Z" transform="translate(-1044.954 -580.174)" />
			<path id="Контур_1325" data-name="Контур 1325" d="M1025.219,637.715c-.261,0-.521,0-.782,0-.178,0-.255-.072-.254-.252.005-1.023-.1-.812.75-.832.369-.009.739,0,1.108,0,.192,0,.277.074.274.269-.017,1,.108.788-.77.819-.109,0-.217,0-.326,0Z" transform="translate(-1000.176 -610.011)" />
			<path id="Контур_1326" data-name="Контур 1326" d="M1073.122,637.707c-.261,0-.522-.006-.782,0-.2.006-.27-.082-.269-.273,0-.98-.1-.8.772-.812.348-.007.7,0,1.043,0,.213-.006.32.059.317.294-.014.962.1.774-.755.8-.109,0-.217,0-.326,0Z" transform="translate(-1044.934 -610.003)" />
			<path id="Контур_1327" data-name="Контур 1327" d="M1025.228,668.551c.272,0,.543,0,.815,0,.162,0,.244.069.237.234,0,.011,0,.022,0,.033,0,.985.1.8-.764.816-.369.005-.739,0-1.108,0-.177,0-.255-.072-.256-.252,0-1.013-.1-.817.748-.833.109,0,.217,0,.326,0Z" transform="translate(-1000.146 -639.841)" />
			<path id="Контур_1328" data-name="Контур 1328" d="M1073.167,668.606c.261,0,.521.005.782,0,.2-.005.273.081.27.273-.016.988.1.79-.741.813-.369.01-.739-.007-1.108,0-.212,0-.287-.084-.284-.29.012-.961-.1-.775.755-.8.109,0,.217,0,.326,0Z" transform="translate(-1044.948 -639.896)" />
			<path id="Контур_1329" data-name="Контур 1329" d="M689.591,510.03h-.652a.609.609,0,0,1-.194-.006c-.415-.148-.141-.5-.205-.749-.04-.158-.021-.334.229-.332.554.005,1.108,0,1.662,0,.087,0,.191,0,.208.113a2.918,2.918,0,0,1,0,.843c-.017.128-.139.12-.235.121-.271,0-.543,0-.815,0Z" transform="translate(-686.443 -490.673)" />
			<path id="Контур_1330" data-name="Контур 1330" d="M737.783,508.866c.239,0,.479.014.717,0,.265-.019.337.1.332.344-.018.869.088.731-.712.743-.369.005-.739-.006-1.108,0-.213.005-.322-.059-.316-.294.022-.96-.1-.766.762-.795.108,0,.217,0,.326,0Z" transform="translate(-731.479 -490.594)" />
			<path id="Контур_1331" data-name="Контур 1331" d="M689.6,541.981c-.239,0-.478,0-.717,0-.065,0-.147.018-.192-.014-.318-.224-.1-.554-.147-.832-.029-.159.067-.237.231-.236.554,0,1.108,0,1.662,0,.087,0,.191.006.207.115a3.189,3.189,0,0,1,0,.844c-.015.127-.136.122-.233.123C690.144,541.982,689.873,541.98,689.6,541.981Z" transform="translate(-686.449 -520.538)" />
			<path id="Контур_1332" data-name="Контур 1332" d="M737.465,541.955h-.652a1.3,1.3,0,0,1-.163,0c-.422-.054-.216-.384-.231-.59-.012-.175-.153-.484.225-.49.554-.01,1.108,0,1.662,0,.087,0,.19,0,.207.114a2.913,2.913,0,0,1,0,.843c-.018.127-.14.119-.235.121-.271,0-.543,0-.815,0Z" transform="translate(-731.186 -520.51)" />
			<path id="Контур_1333" data-name="Контур 1333" d="M689.62,573.928H688.9c-.065,0-.147.018-.192-.013-.318-.224-.1-.553-.148-.831-.029-.156.061-.24.228-.239.554,0,1.108,0,1.662,0,.086,0,.194,0,.21.11a2.626,2.626,0,0,1-.008.873c-.02.1-.135.094-.22.1-.271,0-.543,0-.815,0Z" transform="translate(-686.467 -550.397)" />
			<path id="Контур_1334" data-name="Контур 1334" d="M737.779,573.833c-.261,0-.522-.006-.782,0-.2.006-.27-.082-.269-.273,0-.979-.1-.795.772-.812.347-.007.7,0,1.043,0,.213-.006.32.059.317.294-.014.961.1.774-.755.795-.109,0-.217,0-.326,0Z" transform="translate(-731.508 -550.303)" />
			<path id="Контур_1335" data-name="Контур 1335" d="M689.642,604.724h.326c.731-.006.862.163.716.9-.031.158-.125.187-.254.187l-1.629,0c-.032,0-.074.006-.1-.011-.305-.232-.1-.557-.144-.837-.031-.187.1-.239.266-.237C689.1,604.725,689.37,604.723,689.642,604.724Z" transform="translate(-686.467 -580.191)" />
			<path id="Контур_1336" data-name="Контур 1336" d="M737.781,605.779c-.261,0-.521,0-.782,0-.18,0-.253-.076-.252-.254.006-1.02-.1-.809.752-.829.369-.009.739,0,1.108,0,.194,0,.274.078.271.271-.016.99.1.787-.739.816-.119,0-.239,0-.358,0Z" transform="translate(-731.526 -580.162)" />
			<path id="Контур_1337" data-name="Контур 1337" d="M689.515,637.83a2.944,2.944,0,0,1-.358,0c-.218-.027-.518.121-.636-.1a1.643,1.643,0,0,1-.031-.834c0-.108.088-.145.182-.145.576,0,1.151,0,1.727,0,.021,0,.049,0,.064.008.3.237.085.561.136.842.03.163-.078.231-.236.23-.282,0-.565,0-.847,0Z" transform="translate(-686.387 -610.124)" />
			<path id="Контур_1338" data-name="Контур 1338" d="M737.529,637.774c-.239,0-.478,0-.717,0-.065,0-.148.017-.192-.016-.311-.226-.1-.554-.148-.833-.028-.158.069-.238.232-.237.554,0,1.108,0,1.662,0,.086,0,.192,0,.208.113a3.02,3.02,0,0,1,0,.843c-.018.126-.137.124-.234.125C738.072,637.776,737.8,637.774,737.529,637.774Z" transform="translate(-731.247 -610.068)" />
			<path id="Контур_1339" data-name="Контур 1339" d="M689.913,668.6c.271,0,.543,0,.815,0,.16,0,.246.065.239.232,0,.011,0,.022,0,.032,0,.991.1.8-.764.819-.358.007-.717,0-1.075,0-.207,0-.292-.077-.29-.287.011-.971-.1-.781.747-.8.109,0,.217,0,.326,0Z" transform="translate(-686.751 -639.89)" />
			<path id="Контур_1340" data-name="Контур 1340" d="M737.745,669.658c-.25,0-.5-.009-.749,0-.23.011-.3-.093-.3-.311.021-.928-.1-.755.747-.776.369-.009.739.005,1.108,0,.186,0,.281.059.279.261-.009,1.01.1.8-.759.825-.109,0-.217,0-.326,0Z" transform="translate(-731.48 -639.866)" />
		</g>
	</g>
</svg>
