<svg xmlns="http://www.w3.org/2000/svg" xmlns:xlink="http://www.w3.org/1999/xlink" width="99.746" height="99.927" viewBox="0 0 99.746 99.927">
  <defs>
    <clipPath id="clip-path">
      <rect id="Прямоугольник_2081" data-name="Прямоугольник 2081" width="98.046" height="98.231" fill="#fff"/>
    </clipPath>
  </defs>
  <g id="Сгруппировать_132" data-name="Сгруппировать 132" transform="matrix(1, 0.017, -0.017, 1, 1.714, 0)">
    <g id="Сгруппировать_130" data-name="Сгруппировать 130" clip-path="url(#clip-path)">
      <path id="Контур_1482" data-name="Контур 1482" d="M0,29.638a11.625,11.625,0,0,1,1.945-4.011,9.741,9.741,0,0,1,3.6-2.613Q18.3,17.333,31.052,11.634c2.6-1.161,5.191-2.344,7.8-3.488A1.781,1.781,0,0,0,39.93,6.893C41.553,1.4,45.906-1.071,51.454.432q19.928,5.4,39.83,10.892A8.773,8.773,0,0,1,97.6,22.485Q95.033,31.947,92.449,41.4c-.106.387-.218.774-.349,1.153a1.792,1.792,0,1,1-3.437-.973c.96-3.6,1.954-7.187,2.933-10.78.855-3.135,1.735-6.263,2.553-9.408a5.125,5.125,0,0,0-3.819-6.571Q70.474,9.375,50.609,3.953c-3.6-.981-6.1.449-7.091,4.03Q36.41,33.746,29.333,59.518a5.194,5.194,0,0,0,3.932,6.807q6.08,1.643,12.155,3.3c1.389.382,2.025,1.273,1.727,2.329a2.051,2.051,0,0,1-2.759,1.266c-4.2-1.125-8.4-2.225-12.573-3.436a8.689,8.689,0,0,1-6.1-10.716c.347-1.381.725-2.754,1.107-4.126.163-.585.289-.981-.633-.782a1.648,1.648,0,0,1-2.028-1.248,1.73,1.73,0,0,1,.975-2.194c.806-.424,1.659-.76,2.5-1.125.374-.163.73-.316.853-.77.7-2.567,1.4-5.131,2.1-7.67-.383-.3-.628-.05-.871.057-2.173.953-4.341,1.918-6.512,2.877a9.665,9.665,0,0,1-.913.37,1.849,1.849,0,0,1-2.453-1.021,1.78,1.78,0,0,1,1.036-2.343,56.691,56.691,0,0,1,6.915-3.031c3.214-.995,5.052-2.857,5.369-6.246a21.916,21.916,0,0,1,.74-2.858c.077-.328.418-.74.064-1.007-.26-.2-.62.11-.912.239q-4.506,2-9,4.018c-.266.119-.528.25-.8.364-1.3.546-2.343.256-2.794-.769-.473-1.073-.03-2.036,1.253-2.619,2.26-1.027,4.532-2.029,6.8-3.043,2.066-.924,4.124-1.867,6.2-2.767a1.721,1.721,0,0,0,1.078-1.256c.762-2.895,1.567-5.779,2.349-8.669.081-.3.334-.662-.012-.9-.262-.182-.552.076-.812.192q-9.956,4.432-19.91,8.87Q12.048,24,6.7,26.4a5.12,5.12,0,0,0-2.474,2.235,5.059,5.059,0,0,0-.187,4.736q3.877,8.705,7.748,17.412c4.647,10.44,9.315,20.871,13.926,31.326.882,2,2.1,3.467,4.342,3.911a5.509,5.509,0,0,0,3.39-.58q6.909-3.064,13.808-6.148a1.959,1.959,0,0,1,1.679-.2,1.814,1.814,0,0,1,1.221,1.669,1.916,1.916,0,0,1-1.348,1.814q-5.252,2.342-10.5,4.687c-1.034.461-2.075.9-3.1,1.38-5.148,2.383-10.126.611-12.475-4.577-4.2-9.279-8.323-18.594-12.482-27.893q-4.45-9.948-8.9-19.9c-.489-1.1-.9-2.232-1.344-3.35Z" transform="translate(0 0.001)" fill="#fff"/>
      <path id="Контур_1483" data-name="Контур 1483" d="M252.205,266.261a15.571,15.571,0,0,1-8.2-4.318,13.9,13.9,0,0,1-4.1-9.964c.008-1.07-.226-1.577-1.368-1.889a11.3,11.3,0,0,1-8.3-10.963q-.018-10.68,0-21.36c0-1.874.53-2.392,2.421-2.4.913,0,1.826-.017,2.738.007a1.762,1.762,0,0,1,1.944,1.764,1.718,1.718,0,0,1-1.877,1.819c-1.835-.019-1.614.142-1.616,1.742-.006,5.988-.015,11.976,0,17.965a7.959,7.959,0,0,0,4.774,7.593,7.776,7.776,0,0,0,10.865-7.22c.115-6.351.02-12.706.041-19.06,0-.769-.29-1.069-1.036-1.006a4.326,4.326,0,0,1-.875-.017,1.73,1.73,0,0,1-1.594-1.772A1.672,1.672,0,0,1,247.6,215.4a33.8,33.8,0,0,1,3.94,0,1.624,1.624,0,0,1,1.58,1.769c.029,1.277.012,2.556.012,3.834q0,8.928,0,17.855a11.405,11.405,0,0,1-8.671,11.355c-.676.183-.961.439-.983,1.166a11.137,11.137,0,0,0,9.109,11.134,10.94,10.94,0,0,0,12.341-8.075,12.658,12.658,0,0,0,.376-3.034c0-4.564-.029-9.129.022-13.692a1.445,1.445,0,0,0-1.26-1.654c-4.851-1.458-7.695-5.637-7.518-10.911a10.594,10.594,0,1,1,14.111,10.772c-1.745.611-1.746.611-1.746,2.471q0,6.627,0,13.254A14.491,14.491,0,0,1,257.535,266c-.318.075-.631.171-.946.257Zm14.86-33.373a6.95,6.95,0,1,0-6.908-7.046,7.065,7.065,0,0,0,6.908,7.046" transform="translate(-179.669 -168.03)" fill="#fff"/>
      <path id="Контур_1484" data-name="Контур 1484" d="M259.4,122.024c-.3-.067-.733-.144-1.155-.258q-12.1-3.275-24.2-6.561c-1.289-.351-1.875-1.056-1.815-2.117a1.9,1.9,0,0,1,1.658-1.761,3.165,3.165,0,0,1,1.29.188q6.277,1.739,12.553,3.486,5.855,1.622,11.714,3.234a5.034,5.034,0,0,1,1.032.352,1.825,1.825,0,0,1-1.08,3.437" transform="translate(-181.228 -86.864)" fill="#fff"/>
      <path id="Контур_1485" data-name="Контур 1485" d="M242.045,167.059a10.665,10.665,0,0,1-2.277-.527q-8.767-2.386-17.524-4.8a7.5,7.5,0,0,1-1.349-.445,1.713,1.713,0,0,1-1-2.08,1.8,1.8,0,0,1,1.934-1.428A5.945,5.945,0,0,1,222.9,158q9.722,2.624,19.442,5.257a4.573,4.573,0,0,1,.622.209,1.809,1.809,0,0,1,1.124,2.223,1.831,1.831,0,0,1-2.044,1.372" transform="translate(-171.552 -123.118)" fill="#fff"/>
      <path id="Контур_1486" data-name="Контур 1486" d="M284.931,79.491a28.76,28.76,0,0,1-3.4-.861q-5.444-1.469-10.885-2.946c-.247-.067-.493-.136-.736-.214-1.344-.429-1.933-1.308-1.62-2.415.319-1.131,1.266-1.609,2.621-1.248,2.821.751,5.633,1.535,8.449,2.308,2.111.58,4.226,1.149,6.332,1.748a1.889,1.889,0,0,1,1.559,2.158c-.193,1-.935,1.516-2.32,1.47" transform="translate(-209.301 -55.943)" fill="#fff"/>
      <path id="Контур_1487" data-name="Контур 1487" d="M373.46,96.183c-.23.64.035.95.768,1.15a1.822,1.822,0,1,1-.918,3.525c-.651-.114-1.045-.052-1.335.674a1.836,1.836,0,0,1-2.24,1.1,1.7,1.7,0,0,1-1.2-2.143.879.879,0,0,0-.66-1.13,1.7,1.7,0,0,1-1.1-2.113,1.739,1.739,0,0,1,2.052-1.36.96.96,0,0,0,1.146-.711,1.718,1.718,0,0,1,2.107-1.124,1.827,1.827,0,0,1,1.385,2.13" transform="translate(-286.168 -73.353)" fill="#fff"/>
      <path id="Контур_1488" data-name="Контур 1488" d="M386.816,247.962a1.673,1.673,0,0,1-1.6,1.747c-.714.054-1.011.257-1.06,1.02a1.774,1.774,0,0,1-3.536.014c-.048-.746-.316-.982-1.046-1.033a1.776,1.776,0,0,1-.068-3.528c.762-.055,1.077-.269,1.12-1.081a1.773,1.773,0,0,1,3.523-.014c.047.794.328,1.044,1.107,1.095a1.658,1.658,0,0,1,1.555,1.781" transform="translate(-294.954 -190.034)" fill="#fff"/>
    </g>
  </g>
</svg>
