<svg id="Сгруппировать_58" data-name="Сгруппировать 58" xmlns="http://www.w3.org/2000/svg" width="30.5" height="29.164" viewBox="0 0 30.5 29.164">
	<path id="Контур_1416" data-name="Контур 1416" d="M647.379,254.573a1.637,1.637,0,0,1,.1-.614c.335-1.094.663-2.191,1.005-3.283a.382.382,0,0,0-.157-.5c-.93-.685-1.85-1.385-2.768-2.085a1.7,1.7,0,0,1,.015-2.891c.913-.692,1.821-1.39,2.745-2.067a.4.4,0,0,0,.161-.525c-.345-1.091-.676-2.187-1.005-3.283a1.742,1.742,0,0,1,.223-1.648A1.67,1.67,0,0,1,649,237c1.145-.066,2.29-.043,3.435-.058.5-.006.508-.014.672-.492.365-1.064.728-2.128,1.1-3.19a1.691,1.691,0,0,1,2.622-.861q1.479,1.013,2.936,2.058a.358.358,0,0,0,.5,0q1.422-1.016,2.862-2.007a1.7,1.7,0,0,1,2.723.9c.364,1.054.748,2.1,1.083,3.164a.556.556,0,0,0,.632.433c.787,0,1.574,0,2.361.014.418.006.836.022,1.253.051a1.668,1.668,0,0,1,1.424,2.114c-.322,1.16-.685,2.309-1.045,3.458a.432.432,0,0,0,.179.572c.91.662,1.8,1.349,2.7,2.029a1.715,1.715,0,0,1-.015,2.947c-.907.684-1.807,1.376-2.723,2.047a.38.38,0,0,0-.153.5c.358,1.15.718,2.3,1.047,3.457a1.655,1.655,0,0,1-1.256,2.125,6.055,6.055,0,0,1-1.13.076c-.846.015-1.693.014-2.54.02-.579,0-.576.007-.758.537-.362,1.054-.722,2.109-1.092,3.161a1.686,1.686,0,0,1-2.58.87c-1.007-.68-2-1.384-2.987-2.088a.342.342,0,0,0-.47,0q-1.423,1.015-2.862,2.008a1.7,1.7,0,0,1-2.742-.907c-.366-1.064-.747-2.122-1.094-3.192a.489.489,0,0,0-.54-.39c-.737,0-1.474,0-2.211-.011-.488-.007-.975-.024-1.462-.054A1.649,1.649,0,0,1,647.379,254.573Zm21.945.247c.478,0,.957.006,1.435,0,.374-.006.439-.1.332-.458q-.6-1.957-1.19-3.914a.8.8,0,0,1,.345-1.06q1.62-1.227,3.241-2.452c.332-.252.332-.316,0-.57q-1.608-1.218-3.219-2.433a.8.8,0,0,1-.361-1.08q.585-1.944,1.178-3.886c.118-.388.057-.482-.359-.481-1.315,0-2.629-.025-3.944-.06-.656-.018-.823-.129-1.039-.76q-.644-1.879-1.293-3.756c-.13-.376-.2-.4-.525-.171q-1.655,1.153-3.308,2.309a.836.836,0,0,1-1.215-.008q-1.64-1.149-3.281-2.3c-.338-.236-.406-.212-.543.184q-.658,1.906-1.314,3.812a.822.822,0,0,1-.941.685c-1.344.038-2.688.065-4.033.062-.394,0-.456.1-.343.47q.6,1.957,1.188,3.915a.8.8,0,0,1-.359,1.056q-1.608,1.218-3.218,2.434c-.348.264-.347.325,0,.589q1.62,1.227,3.242,2.451a.787.787,0,0,1,.334,1.037q-.591,1.958-1.188,3.915c-.113.371-.05.47.347.469,1.345,0,2.689.025,4.033.061a.815.815,0,0,1,.929.66q.662,1.92,1.324,3.84c.136.393.2.416.545.177q1.666-1.163,3.33-2.331a.814.814,0,0,1,1.12-.005c.418.289.832.583,1.248.874.71.5,1.418,1,2.131,1.49.292.2.364.173.488-.168.017-.047.033-.094.05-.141q.653-1.892,1.307-3.783a.747.747,0,0,1,.783-.607C667.493,254.9,668.407,254.792,669.323,254.819Z" transform="translate(-644.764 -232.069)" />
	<path id="Контур_1417" data-name="Контур 1417" d="M807.49,372.335a.855.855,0,0,1,.789,1.358,2.737,2.737,0,0,1-.28.31q-5.123,5.125-10.248,10.248a2.3,2.3,0,0,1-.312.277.863.863,0,0,1-1.141-.121.872.872,0,0,1-.014-1.15,1.476,1.476,0,0,1,.1-.109q5.25-5.251,10.5-10.5A.885.885,0,0,1,807.49,372.335Z" transform="translate(-787.012 -363.933)" />
	<path id="Контур_1418" data-name="Контур 1418" d="M796.042,375.233a2.792,2.792,0,1,1,2.8-2.785A2.81,2.81,0,0,1,796.042,375.233Zm-.018-3.958a1.17,1.17,0,0,0-1.174,1.177,1.216,1.216,0,0,0,1.211,1.188,1.17,1.17,0,0,0,1.157-1.192A1.133,1.133,0,0,0,796.024,371.275Z" transform="translate(-784.362 -361.407)" />
	<path id="Контур_1419" data-name="Контур 1419" d="M915.044,488.149a2.789,2.789,0,0,1,.034,5.578,2.823,2.823,0,0,1-2.823-2.816A2.785,2.785,0,0,1,915.044,488.149Zm.013,3.957a1.175,1.175,0,0,0,1.187-1.166,1.2,1.2,0,0,0-1.2-1.2,1.182,1.182,0,0,0,.009,2.364Z" transform="translate(-896.233 -472.81)" />
</svg>
