<svg xmlns="http://www.w3.org/2000/svg" width="19.605" height="34.015" viewBox="0 0 19.605 34.015">
	<g id="mjnJKA.tif" transform="translate(-759.005 -238.88)">
		<g id="Сгруппировать_64" data-name="Сгруппировать 64" transform="translate(759.005 238.88)">
			<path id="Контур_1431" data-name="Контур 1431" d="M775.793,403.617a1.539,1.539,0,0,0-.618-.059q-5.237,0-10.475,0a.831.831,0,0,1-.927-.875.821.821,0,0,1,.871-.863c.979-.008,1.958,0,2.937,0,2.937,0,5.875,0,8.812.009.346,0,.512-.1.495-.454a2.221,2.221,0,0,1,.034-.28c.066-.789-.054-.927-.832-.927q-4.123,0-8.246,0c-.13,0-.26,0-.389,0a.868.868,0,0,1,.027-1.735q3.946-.007,7.892-.005a.816.816,0,0,0,.439-.047,9.855,9.855,0,0,0-1.5-1.06c-.332-.224-.68-.427-1.007-.658a.829.829,0,0,1-.231-1.157.82.82,0,0,1,1.107-.333,16.381,16.381,0,0,1,2.983,2.075,5.432,5.432,0,0,1,.542,6.892,5.531,5.531,0,0,1-2.111,1.728c-3.063,1.549-6.133,3.082-9.19,4.641-1.25.637-2.541,1.2-3.737,1.935a3.388,3.388,0,0,0-1.652,3.262c.022.471.036.943.028,1.415a.852.852,0,0,1-.793.883.831.831,0,0,1-.944-.714,11.816,11.816,0,0,1-.063-1.976,4.884,4.884,0,0,1,.561-2.314,5.129,5.129,0,0,1,2.3-2.319q6.148-3.091,12.3-6.182A5.967,5.967,0,0,0,775.793,403.617Z" transform="translate(-759.22 -383.981)" />
			<path id="Контур_1432" data-name="Контур 1432" d="M772.48,245.722q-2.618,0-5.236,0a.829.829,0,0,1-.826-.595.9.9,0,0,1,.369-1.024,1.03,1.03,0,0,1,.579-.122c2.571,0,5.143-.011,7.714.016a1.035,1.035,0,0,0,1.012-.539,5.051,5.051,0,0,0,.4-.787c.1-.262.043-.352-.251-.35-1.439.012-2.878.006-4.317.006q-3.716,0-7.431,0a.826.826,0,0,1-.93-.94c.026-.505.375-.8.968-.8l11.713,0c.475,0,.475,0,.48-.487,0-.153,0-.307.009-.46a.811.811,0,0,1,.8-.747c.466-.021.9.241.905.657a9.615,9.615,0,0,1-.313,3.848,5.112,5.112,0,0,1-2.449,2.775c-2.079,1.062-4.172,2.1-6.258,3.147-2.149,1.081-4.289,2.18-6.447,3.244a3.517,3.517,0,0,0-2.048,2.425,3.6,3.6,0,0,0,1.71,4.1c.568.36,1.137.717,1.694,1.093a.869.869,0,1,1-.934,1.463,14.91,14.91,0,0,1-3.035-2.179,5.371,5.371,0,0,1,1.478-8.293c3.383-1.724,6.78-3.421,10.171-5.131.167-.084.331-.172.5-.259Z" transform="translate(-759.005 -238.888)" />
			<path id="Контур_1433" data-name="Контур 1433" d="M833.346,596.648c-.226-.165-.391-.271-.541-.4a.838.838,0,0,1-.145-1.147.825.825,0,0,1,1.091-.293,15.474,15.474,0,0,1,3.057,2.15,5.03,5.03,0,0,1,1.433,3.477c.011.719,0,1.439,0,2.158a.869.869,0,1,1-1.737.022c-.024-.831-.024-.831-.854-.831h-11.5a.839.839,0,0,1-.957-.881.83.83,0,0,1,.912-.859c1.45,0,2.9,0,4.352,0l7.571,0c.406,0,.422-.024.3-.426-.013-.045-.029-.09-.045-.134-.358-1.038-.442-1.1-1.524-1.1-1.663,0-3.326,0-4.988,0a.868.868,0,1,1-.038-1.736c1.1-.008,2.193,0,3.29-.005Z" transform="translate(-818.642 -569.471)" />
			<path id="Контур_1434" data-name="Контур 1434" d="M760.917,240.623a5.254,5.254,0,0,0,.369,2.384,3.492,3.492,0,0,0,1.247,1.455c.666.444,1.345.869,2.008,1.318a.787.787,0,0,1,.362.857.9.9,0,0,1-.734.726.685.685,0,0,1-.538-.113,16.9,16.9,0,0,1-2.9-2,5.072,5.072,0,0,1-1.542-3.357c-.046-.716-.016-1.436-.011-2.155a.8.8,0,0,1,.833-.853.816.816,0,0,1,.9.86C760.922,240.034,760.917,240.329,760.917,240.623Z" transform="translate(-759.154 -238.88)" />
		</g>
	</g>
</svg>
