<?xml version="1.0" encoding="UTF-8" standalone="no"?>
<!DOCTYPE svg PUBLIC "-//W3C//DTD SVG 1.1//EN" "http://www.w3.org/Graphics/SVG/1.1/DTD/svg11.dtd">
<svg width="100%" height="100%" viewBox="0 0 258 34" version="1.1" xmlns="http://www.w3.org/2000/svg" xmlns:xlink="http://www.w3.org/1999/xlink" xml:space="preserve" xmlns:serif="http://www.serif.com/" style="fill-rule:evenodd;clip-rule:evenodd;stroke-linejoin:round;stroke-miterlimit:2;">
    <g transform="matrix(1,0,0,1,-39.7915,-1.30179)">
        <g transform="matrix(1,0,0,1,-4.78446,-4.78421)">
            <g transform="matrix(1,0,0,1,1,1)">
                <path d="M43.576,37.169L43.576,33.956C45.269,33.749 46.286,33.037 46.628,31.82C46.966,30.603 47.137,27.933 47.137,23.805L47.137,20.694L57.769,20.694L57.769,37.169L53.917,37.169L53.917,23.907L50.988,23.907L50.988,24.912C50.988,28.942 50.663,31.888 50.018,33.752C49.37,35.616 47.222,36.758 43.576,37.169ZM73.089,34.17L67.066,34.17L66.117,37.169L62.245,37.169L67.776,20.694L72.368,20.694L77.899,37.169L74.027,37.169L73.089,34.17ZM68.025,31.112L72.119,31.112L70.077,24.559L68.025,31.112ZM88.491,34.276C89.3,34.276 89.884,34.11 90.243,33.778C90.628,33.421 90.823,32.897 90.823,32.216C90.823,31.545 90.628,31.033 90.243,30.682C89.891,30.351 89.307,30.185 88.491,30.185L86.231,30.185L86.231,34.275L88.491,34.275L88.491,34.276ZM88.771,37.169L82.379,37.169L82.379,20.694L93.673,20.694L93.673,23.907L86.231,23.907L86.231,26.972L88.771,26.972C90.659,26.972 92.14,27.402 93.213,28.265C94.186,29.044 94.674,30.317 94.674,32.08C94.674,33.831 94.186,35.097 93.213,35.876C92.14,36.739 90.659,37.169 88.771,37.169Z" style="fill:white;fill-rule:nonzero;"/>
            </g>
        </g>
        <g transform="matrix(1,0,0,1,-4.78446,-4.78421)">
            <g transform="matrix(1,0,0,1,1,1)">
                <path d="M105.501,33.956L109.659,33.956L109.659,23.907L106.43,23.907L106.43,24.909C106.43,29.617 106.118,32.634 105.501,33.956ZM100.957,33.956C101.649,33.447 102.093,32.822 102.288,32.076C102.482,31.327 102.578,28.573 102.578,23.805L102.578,20.694L113.51,20.694L113.51,33.956L115.621,33.956L115.621,39.065L112.708,39.065L112.708,37.169L102.749,37.169L102.749,39.065L99.837,39.065L99.837,33.956L100.957,33.956ZM134.615,20.694L134.615,37.169L130.965,37.169L130.965,25.869L125.533,37.169L121.231,37.169L121.231,20.694L124.881,20.694L124.881,31.993L130.312,20.694L134.615,20.694ZM149.931,34.17L143.908,34.17L142.959,37.169L139.087,37.169L144.618,20.694L149.211,20.694L154.742,37.169L150.87,37.169L149.931,34.17ZM144.868,31.112L148.962,31.112L146.92,24.559L144.868,31.112ZM159.222,37.169L159.222,20.694L169.833,20.694L169.833,23.907L163.073,23.907L163.073,37.169L159.222,37.169ZM174.77,20.694L178.622,20.694L178.622,26.972L184.303,26.972L184.303,20.694L188.154,20.694L188.154,37.169L184.303,37.169L184.303,30.185L178.622,30.185L178.622,37.169L174.77,37.169L174.77,20.694ZM201.232,23.474C200.057,23.474 199.149,23.952 198.5,24.909C197.855,25.865 197.531,27.21 197.531,28.946C197.531,30.679 197.855,32.02 198.5,32.976C199.149,33.933 200.057,34.412 201.232,34.412C202.413,34.412 203.325,33.933 203.973,32.976C204.618,32.019 204.943,30.679 204.943,28.946C204.943,27.21 204.618,25.865 203.973,24.909C203.325,23.952 202.413,23.474 201.232,23.474ZM201.232,20.396C203.632,20.396 205.513,21.153 206.872,22.671C208.234,24.185 208.914,26.276 208.914,28.946C208.914,31.609 208.234,33.699 206.872,35.214C205.513,36.732 203.632,37.488 201.232,37.488C198.838,37.488 196.96,36.732 195.594,35.214C194.233,33.699 193.55,31.609 193.55,28.946C193.55,26.276 194.232,24.186 195.594,22.671C196.96,21.153 198.838,20.396 201.232,20.396ZM226.166,36.264C225.46,36.668 224.722,36.972 223.953,37.18C223.189,37.387 222.386,37.488 221.553,37.488C219.068,37.488 217.098,36.72 215.643,35.187C214.189,33.654 213.462,31.575 213.462,28.946C213.462,26.314 214.189,24.231 215.643,22.697C217.098,21.165 219.068,20.396 221.553,20.396C222.386,20.396 223.189,20.498 223.953,20.705C224.722,20.912 225.459,21.217 226.166,21.62L226.166,25.029C225.453,24.49 224.749,24.099 224.056,23.85C223.363,23.598 222.633,23.474 221.864,23.474C220.492,23.474 219.41,23.959 218.624,24.931C217.835,25.903 217.443,27.24 217.443,28.946C217.443,30.649 217.835,31.982 218.624,32.953C219.41,33.926 220.492,34.412 221.864,34.412C222.633,34.412 223.363,34.287 224.056,34.035C224.749,33.786 225.453,33.394 226.166,32.856L226.166,36.264ZM230.069,20.694L243.832,20.694L243.832,23.907L238.881,23.907L238.881,37.169L235.03,37.169L235.03,23.907L230.069,23.907L230.069,20.694ZM261.706,20.694L261.706,37.169L258.056,37.169L258.056,25.869L252.624,37.169L248.322,37.169L248.322,20.694L251.972,20.694L251.972,31.993L257.404,20.694L261.706,20.694ZM267.961,20.694L271.813,20.694L271.813,27.492L277.835,20.694L282.195,20.694L276.265,27.368L282.526,37.169L278.286,37.169L273.793,30.152L271.813,32.381L271.813,37.169L267.961,37.169L267.961,20.694ZM296.263,34.17L290.24,34.17L289.291,37.169L285.419,37.169L290.95,20.694L295.542,20.694L301.074,37.169L297.201,37.169L296.263,34.17ZM291.199,31.112L295.293,31.112L293.251,24.559L291.199,31.112Z" style="fill:white;fill-rule:nonzero;"/>
            </g>
        </g>
        <g transform="matrix(1,0,0,1,-4.78446,-4.78421)">
            <g transform="matrix(1,0,0,1,1,1)">
                <path d="M46.101,16.544L46.101,15.443C46.974,15.307 47.546,14.939 47.814,14.334C48.141,13.483 48.303,11.971 48.303,9.796L48.303,8.478L53.756,8.478L53.756,16.544L52.431,16.544L52.431,9.538L49.629,9.538L49.629,10.337C49.629,12.411 49.417,13.914 48.994,14.845C48.544,15.838 47.578,16.404 46.101,16.544ZM63.27,12.18L63.27,12.83L57.178,12.83C57.234,13.742 57.51,14.435 58.001,14.914C58.496,15.391 59.179,15.63 60.059,15.63C60.568,15.63 61.06,15.568 61.539,15.443C62.016,15.317 62.49,15.13 62.96,14.88L62.96,16.134C62.485,16.335 61.996,16.49 61.497,16.596C60.998,16.702 60.491,16.753 59.978,16.753C58.692,16.753 57.672,16.38 56.92,15.63C56.17,14.88 55.794,13.867 55.794,12.591C55.794,11.271 56.151,10.224 56.864,9.447C57.576,8.672 58.537,8.284 59.747,8.284C60.834,8.284 61.691,8.633 62.323,9.331C62.955,10.032 63.27,10.981 63.27,12.18ZM61.945,11.792C61.934,11.067 61.733,10.489 61.338,10.056C60.939,9.624 60.416,9.408 59.764,9.408C59.024,9.408 58.432,9.617 57.989,10.035C57.544,10.452 57.288,11.04 57.222,11.799L61.945,11.792ZM70.104,16.544L70.104,13.152L67.633,13.152C66.898,13.152 66.285,12.923 65.797,12.468C65.354,12.055 65.133,11.406 65.133,10.524L65.133,8.478L66.458,8.478L66.458,10.401C66.458,10.961 66.584,11.384 66.832,11.667C67.087,11.949 67.463,12.092 67.965,12.092L70.104,12.092L70.104,8.478L71.428,8.478L71.428,16.544L70.104,16.544ZM81.058,12.18L81.058,12.83L74.966,12.83C75.023,13.742 75.298,14.435 75.789,14.914C76.283,15.391 76.967,15.63 77.847,15.63C78.356,15.63 78.848,15.568 79.327,15.443C79.804,15.317 80.279,15.13 80.748,14.88L80.748,16.134C80.274,16.335 79.784,16.49 79.285,16.596C78.786,16.702 78.28,16.753 77.766,16.753C76.48,16.753 75.46,16.38 74.708,15.63C73.958,14.88 73.582,13.867 73.582,12.591C73.582,11.271 73.938,10.224 74.651,9.447C75.364,8.672 76.326,8.284 77.535,8.284C78.622,8.284 79.479,8.633 80.111,9.331C80.743,10.032 81.058,10.981 81.058,12.18ZM79.733,11.792C79.723,11.067 79.521,10.489 79.126,10.056C78.728,9.624 78.204,9.408 77.552,9.408C76.812,9.408 76.22,9.617 75.778,10.035C75.332,10.452 75.077,11.04 75.011,11.799L79.733,11.792ZM86.43,8.284C87.582,8.284 88.487,8.657 89.146,9.408C89.802,10.157 90.131,11.192 90.131,12.517C90.131,13.84 89.802,14.875 89.146,15.627C88.487,16.377 87.582,16.753 86.43,16.753C85.271,16.753 84.375,16.389 83.735,15.659C83.096,14.929 82.761,13.882 82.727,12.517L82.683,10.87C82.661,10.298 82.648,9.914 82.648,9.717C82.648,8.948 82.786,8.282 83.067,7.716C83.504,6.826 84.099,6.19 84.856,5.806C85.613,5.423 86.624,5.226 87.892,5.217C88.479,5.212 88.902,5.167 89.161,5.086L89.527,6.138C89.291,6.237 89.065,6.286 88.851,6.291L87.049,6.413C86.444,6.456 85.957,6.583 85.593,6.795C84.637,7.355 84.114,8.004 84.023,8.739L83.971,9.143C84.596,8.57 85.417,8.284 86.43,8.284ZM86.43,9.408C85.719,9.408 85.156,9.686 84.743,10.238C84.33,10.794 84.123,11.554 84.123,12.517C84.123,13.483 84.33,14.243 84.74,14.799C85.151,15.352 85.714,15.629 86.43,15.629C87.135,15.629 87.695,15.351 88.108,14.794C88.522,14.238 88.728,13.479 88.728,12.518C88.728,11.563 88.521,10.807 88.108,10.246C87.695,9.688 87.135,9.408 86.43,9.408ZM92.277,8.478L93.61,8.478L93.61,11.77L97.91,11.77L97.91,8.478L99.242,8.478L99.242,16.544L97.91,16.544L97.91,12.83L93.61,12.83L93.61,16.544L92.277,16.544L92.277,8.478ZM105.098,9.408C104.387,9.408 103.825,9.686 103.412,10.238C102.999,10.794 102.792,11.554 102.792,12.517C102.792,13.483 102.999,14.243 103.409,14.799C103.82,15.352 104.382,15.629 105.098,15.629C105.804,15.629 106.364,15.351 106.777,14.794C107.19,14.238 107.396,13.479 107.396,12.518C107.396,11.563 107.19,10.807 106.777,10.246C106.364,9.688 105.803,9.408 105.098,9.408ZM105.098,8.284C106.251,8.284 107.156,8.657 107.814,9.408C108.471,10.157 108.8,11.192 108.8,12.517C108.8,13.84 108.471,14.875 107.814,15.627C107.156,16.377 106.251,16.753 105.098,16.753C103.94,16.753 103.035,16.377 102.379,15.627C101.723,14.875 101.396,13.84 101.396,12.517C101.396,11.192 101.723,10.157 102.379,9.408C103.035,8.657 103.94,8.284 105.098,8.284ZM110.327,11.915L114.208,11.915L114.208,13.095L110.327,13.095L110.327,11.915ZM118.117,15.484L121.962,15.484L121.962,9.538L119.177,9.538L119.177,10.546C119.177,12.522 118.894,14.039 118.326,15.096L118.117,15.484ZM116.195,15.484C116.633,15.293 116.947,14.993 117.139,14.585C117.608,13.572 117.844,12.045 117.844,10.005L117.844,8.478L123.294,8.478L123.294,15.484L124.354,15.484L124.354,18.582L123.294,18.582L123.294,16.544L116.758,16.544L116.758,18.582L115.698,18.582L115.698,15.484L116.195,15.484ZM133.371,8.478L133.371,16.544L132.053,16.544L132.053,10.069L128.161,16.544L126.462,16.544L126.462,8.478L127.78,8.478L127.78,14.938L131.665,8.478L133.371,8.478ZM139.765,12.49C138.695,12.49 137.953,12.613 137.54,12.857C137.127,13.102 136.921,13.52 136.921,14.11C136.921,14.58 137.075,14.953 137.385,15.231C137.695,15.506 138.115,15.644 138.649,15.644C139.384,15.644 139.971,15.384 140.416,14.862C140.861,14.341 141.083,13.65 141.083,12.785L141.083,12.49L139.765,12.49ZM142.408,11.941L142.408,16.544L141.083,16.544L141.083,15.32C140.78,15.809 140.404,16.17 139.952,16.404C139.502,16.637 138.949,16.753 138.294,16.753C137.471,16.753 136.815,16.522 136.326,16.057C135.839,15.595 135.596,14.973 135.596,14.196C135.596,13.289 135.901,12.605 136.508,12.144C137.115,11.684 138.02,11.453 139.224,11.453L141.083,11.453L141.083,11.322C141.083,10.712 140.881,10.241 140.48,9.908C140.079,9.574 139.516,9.407 138.791,9.407C138.332,9.407 137.882,9.461 137.447,9.572C137.009,9.683 136.589,9.85 136.186,10.071L136.186,8.847C136.67,8.66 137.142,8.518 137.597,8.424C138.054,8.331 138.497,8.284 138.929,8.284C140.097,8.284 140.967,8.586 141.543,9.191C142.12,9.795 142.408,10.712 142.408,11.941ZM145.09,16.544L145.09,8.478L150.778,8.478L150.778,9.538L146.422,9.538L146.422,16.544L145.09,16.544ZM152.838,8.478L154.17,8.478L154.17,11.77L158.47,11.77L158.47,8.478L159.802,8.478L159.802,16.544L158.47,16.544L158.47,12.829L154.17,12.829L154.17,16.544L152.838,16.544L152.838,8.478ZM165.658,9.407C164.948,9.407 164.385,9.685 163.972,10.238C163.559,10.794 163.352,11.554 163.352,12.517C163.352,13.483 163.559,14.243 163.969,14.799C164.38,15.351 164.943,15.629 165.658,15.629C166.364,15.629 166.924,15.351 167.337,14.794C167.75,14.238 167.957,13.479 167.957,12.517C167.957,11.563 167.75,10.806 167.337,10.246C166.924,9.688 166.364,9.407 165.658,9.407ZM165.658,8.284C166.811,8.284 167.716,8.657 168.375,9.407C169.031,10.157 169.36,11.192 169.36,12.517C169.36,13.839 169.031,14.875 168.375,15.627C167.716,16.376 166.811,16.753 165.658,16.753C164.5,16.753 163.596,16.376 162.939,15.627C162.283,14.875 161.956,13.839 161.956,12.517C161.956,11.192 162.283,10.157 162.939,9.407C163.596,8.657 164.5,8.284 165.658,8.284ZM177.362,8.788L177.362,10.027C176.989,9.82 176.612,9.665 176.234,9.562C175.858,9.459 175.477,9.407 175.093,9.407C174.233,9.407 173.567,9.68 173.089,10.223C172.616,10.769 172.377,11.533 172.377,12.517C172.377,13.503 172.616,14.267 173.089,14.813C173.567,15.356 174.233,15.629 175.093,15.629C175.477,15.629 175.858,15.577 176.234,15.474C176.612,15.371 176.989,15.216 177.362,15.009L177.362,16.233C176.994,16.405 176.61,16.536 176.214,16.622C175.819,16.708 175.395,16.752 174.948,16.752C173.734,16.752 172.77,16.371 172.055,15.606C171.339,14.844 170.981,13.814 170.981,12.517C170.981,11.201 171.342,10.169 172.065,9.414C172.787,8.659 173.778,8.283 175.037,8.283C175.445,8.283 175.843,8.325 176.232,8.409C176.62,8.492 176.998,8.62 177.363,8.787L177.362,8.788ZM178.709,8.478L186.438,8.478L186.438,9.538L183.225,9.538L183.225,16.544L181.922,16.544L181.922,9.538L178.709,9.538L178.709,8.478ZM195.118,8.478L195.118,16.544L193.801,16.544L193.801,10.069L189.909,16.544L188.21,16.544L188.21,8.478L189.528,8.478L189.528,14.938L193.412,8.478L195.118,8.478ZM202.508,16.544L202.508,13.151L200.037,13.151C199.302,13.151 198.69,12.923 198.201,12.468C197.759,12.055 197.537,11.406 197.537,10.523L197.537,8.478L198.862,8.478L198.862,10.4C198.862,10.961 198.988,11.384 199.236,11.666C199.492,11.949 199.868,12.092 200.369,12.092L202.508,12.092L202.508,8.478L203.833,8.478L203.833,16.544L202.508,16.544ZM213.462,12.18L213.462,12.829L207.37,12.829C207.427,13.741 207.702,14.434 208.194,14.914C208.688,15.391 209.372,15.629 210.251,15.629C210.76,15.629 211.252,15.568 211.731,15.443C212.208,15.317 212.682,15.13 213.152,14.88L213.152,16.133C212.678,16.335 212.188,16.49 211.69,16.596C211.191,16.702 210.684,16.753 210.17,16.753C208.885,16.753 207.864,16.379 207.112,15.629C206.362,14.88 205.986,13.867 205.986,12.591C205.986,11.271 206.343,10.224 207.056,9.447C207.769,8.672 208.73,8.284 209.939,8.284C211.026,8.284 211.884,8.633 212.516,9.331C213.147,10.032 213.462,10.981 213.462,12.18ZM212.137,11.792C212.127,11.067 211.926,10.489 211.53,10.056C211.132,9.624 210.608,9.407 209.956,9.407C209.216,9.407 208.624,9.616 208.182,10.035C207.736,10.452 207.481,11.04 207.414,11.799L212.137,11.792ZM221.442,8.787L221.442,10.027C221.068,9.82 220.692,9.665 220.313,9.562C219.937,9.459 219.556,9.407 219.172,9.407C218.312,9.407 217.646,9.68 217.169,10.223C216.695,10.769 216.456,11.533 216.456,12.517C216.456,13.503 216.695,14.267 217.169,14.813C217.646,15.356 218.312,15.629 219.172,15.629C219.556,15.629 219.937,15.577 220.313,15.474C220.692,15.371 221.068,15.216 221.442,15.009L221.442,16.233C221.073,16.405 220.689,16.536 220.293,16.622C219.898,16.708 219.475,16.752 219.028,16.752C217.813,16.752 216.849,16.371 216.134,15.606C215.419,14.844 215.06,13.814 215.06,12.517C215.06,11.201 215.421,10.169 216.144,9.414C216.867,8.659 217.857,8.283 219.116,8.283C219.524,8.283 219.922,8.325 220.311,8.409C220.699,8.492 221.078,8.62 221.442,8.787ZM223.696,8.478L225.013,8.478L225.013,12.266L228.752,8.478L230.38,8.478L227.297,11.595L230.776,16.544L229.291,16.544L226.432,12.475L225.013,13.916L225.013,16.544L223.696,16.544L223.696,8.478ZM239.512,8.478L239.512,16.544L238.195,16.544L238.195,10.069L234.303,16.544L232.605,16.544L232.605,8.478L233.922,8.478L233.922,14.938L237.806,8.478L239.512,8.478ZM249.1,8.478L249.1,16.544L247.782,16.544L247.782,10.069L243.891,16.544L242.192,16.544L242.192,8.478L243.51,8.478L243.51,14.938L247.394,8.478L249.1,8.478ZM243.392,5.336L244.242,5.336C244.294,5.695 244.439,5.965 244.67,6.145C244.904,6.325 245.228,6.416 245.646,6.416C246.059,6.416 246.381,6.327 246.61,6.15C246.841,5.973 246.989,5.7 247.05,5.336L247.901,5.336C247.851,6.022 247.64,6.538 247.259,6.883C246.881,7.229 246.342,7.402 245.646,7.402C244.951,7.402 244.412,7.229 244.034,6.883C243.653,6.538 243.442,6.022 243.392,5.336ZM263.432,16.544L256.467,16.544L256.467,8.478L257.8,8.478L257.8,15.484L262.1,15.484L262.1,8.478L263.432,8.478L263.432,15.484L264.491,15.484L264.491,18.582L263.432,18.582L263.432,16.544ZM273.457,12.18L273.457,12.829L267.365,12.829C267.422,13.741 267.697,14.434 268.189,14.914C268.682,15.391 269.366,15.629 270.246,15.629C270.755,15.629 271.247,15.568 271.726,15.443C272.203,15.317 272.677,15.13 273.147,14.88L273.147,16.133C272.673,16.335 272.183,16.49 271.684,16.596C271.185,16.702 270.679,16.753 270.165,16.753C268.88,16.753 267.859,16.379 267.107,15.629C266.357,14.88 265.981,13.867 265.981,12.591C265.981,11.271 266.337,10.224 267.051,9.447C267.764,8.672 268.725,8.284 269.934,8.284C271.021,8.284 271.878,8.633 272.51,9.331C273.142,10.032 273.457,10.981 273.457,12.18ZM272.132,11.792C272.122,11.067 271.92,10.489 271.525,10.056C271.126,9.624 270.603,9.407 269.951,9.407C269.211,9.407 268.619,9.616 268.176,10.035C267.731,10.452 267.476,11.04 267.409,11.799L272.132,11.792ZM275.581,8.478L276.913,8.478L276.913,11.77L281.212,11.77L281.212,8.478L282.545,8.478L282.545,16.544L281.212,16.544L281.212,12.829L276.913,12.829L276.913,16.544L275.581,16.544L275.581,8.478ZM284.318,8.478L292.046,8.478L292.046,9.538L288.833,9.538L288.833,16.544L287.531,16.544L287.531,9.538L284.318,9.538L284.318,8.478ZM295.151,15.334L295.151,19.612L293.819,19.612L293.819,8.478L295.151,8.478L295.151,9.703C295.429,9.223 295.78,8.866 296.206,8.633C296.631,8.4 297.14,8.284 297.73,8.284C298.711,8.284 299.505,8.672 300.117,9.452C300.729,10.229 301.036,11.251 301.036,12.517C301.036,13.786 300.729,14.808 300.117,15.585C299.505,16.364 298.711,16.753 297.73,16.753C297.14,16.753 296.631,16.637 296.206,16.404C295.78,16.17 295.429,15.814 295.151,15.334ZM299.66,12.517C299.66,11.544 299.458,10.779 299.057,10.224C298.657,9.67 298.106,9.392 297.405,9.392C296.705,9.392 296.154,9.67 295.754,10.224C295.353,10.779 295.151,11.544 295.151,12.517C295.151,13.493 295.353,14.258 295.754,14.813C296.154,15.366 296.705,15.644 297.405,15.644C298.106,15.644 298.657,15.366 299.057,14.813C299.458,14.258 299.66,13.493 299.66,12.517Z" style="fill:white;fill-rule:nonzero;"/>
            </g>
        </g>
    </g>
</svg>
