<svg xmlns="http://www.w3.org/2000/svg" width="36" height="31.136" viewBox="0 0 36 31.136">
	<g id="Сгруппировать_66" data-name="Сгруппировать 66" transform="translate(-1012 -3495)">
		<g id="IGeNI3.tif" transform="translate(1012 3501.769)">
			<g id="Сгруппировать_61" data-name="Сгруппировать 61" transform="translate(0 0)">
				<path id="Контур_1426" data-name="Контур 1426" d="M659.231,384.606a10.627,10.627,0,0,1,.4-1.85,8.928,8.928,0,0,1,4.34-5.135c.2-.11.235-.16.058-.341a5.7,5.7,0,0,1,8.138-7.987,5.477,5.477,0,0,1,1.683,3.949,5.533,5.533,0,0,1-1.633,4.094c-.159.164-.049.193.071.257a8.912,8.912,0,0,1,4.468,5.454,6.667,6.667,0,0,1,.318,2.471q-8.811,0-17.622.005c-.193,0-.246-.046-.231-.234C659.245,385.063,659.231,384.834,659.231,384.606Zm8.928-.728h6.789c.29,0,.3-.007.218-.28a7.258,7.258,0,0,0-4.509-4.9.648.648,0,0,0-.489,0,5.67,5.67,0,0,1-4.01,0,.706.706,0,0,0-.537.013,7.251,7.251,0,0,0-4.471,4.873c-.087.292-.083.3.22.3Zm-.014-6.492a4.009,4.009,0,0,0,4.032-4.033,4.022,4.022,0,0,0-8.044-.02A4.009,4.009,0,0,0,668.145,377.386Z" transform="translate(-659.224 -361.157)" />
				<path id="Контур_1427" data-name="Контур 1427" d="M857.7,256.5c.1-.077.206-.045.3-.045q3.118,0,6.236,0c.3,0,.31-.005.223-.295a7.259,7.259,0,0,0-4.5-4.884.652.652,0,0,0-.514,0,5.924,5.924,0,0,1-1,.271c-.188.04-.28,0-.3-.211a4.966,4.966,0,0,0-.267-1.131c-.077-.216-.034-.3.194-.333a3.8,3.8,0,0,0,2.039-.944,3.886,3.886,0,0,0,1.343-2.64,4.008,4.008,0,0,0-7.938-1.066c-.057.365-.057.365-.4.259a6.1,6.1,0,0,0-1.084-.247c-.176-.021-.229-.093-.2-.267a5.735,5.735,0,0,1,4.8-4.689A5.675,5.675,0,0,1,863,244.622a5.5,5.5,0,0,1-1.436,5.24c-.179.191-.129.235.064.341a8.872,8.872,0,0,1,4.573,6.016,7.078,7.078,0,0,1,.191,1.63c0,.189-.05.271-.256.27q-3.346-.008-6.693,0a.361.361,0,0,1-.314-.123,11.554,11.554,0,0,0-1.385-1.408A.355.355,0,0,1,857.7,256.5Z" transform="translate(-842.029 -240.227)" />
			</g>
		</g>
		<text id="_" data-name="%" transform="translate(1035 3511)" font-size="15" font-family="SegoeUI, Segoe UI">
			<tspan x="0" y="0">
				%
			</tspan>
		</text>
	</g>
</svg>
