<svg xmlns="http://www.w3.org/2000/svg" width="6.619" height="9.365" viewBox="0 0 6.619 9.365">
	<g id="Сгруппировать_1" data-name="Сгруппировать 1" transform="translate(0 0)">
		<path id="Контур_1" data-name="Контур 1" d="M1479.927,256.354a1.506,1.506,0,1,1,1.5-1.506,1.5,1.5,0,0,1-1.5,1.506m0-4.827a3.321,3.321,0,0,0-3.31,3.334c0,1.739,1.5,3.983,2.5,5.075.374.408.809.957.809.957s.468-.552.869-.972c1-1.047,2.441-3.148,2.441-5.059a3.322,3.322,0,0,0-3.31-3.334" transform="translate(-1476.617 -251.527)" />
	</g>
</svg>
