<svg xmlns="http://www.w3.org/2000/svg" width="30.5" height="27.259" viewBox="0 0 30.5 27.259">
	<g id="zPE8E8.tif" transform="translate(-729.397 -334.29)">
		<g id="Сгруппировать_60" data-name="Сгруппировать 60" transform="translate(729.397 334.29)">
			<path id="Контур_1425" data-name="Контур 1425" d="M744.675,357.885c-1.661,0-3.323.006-4.984-.005-.316,0-.418.04-.272.38a.872.872,0,0,1-.4,1.129q-1.729,1.025-3.479,2.016a.968.968,0,0,1-1.4-.469c-.663-1.131-1.313-2.27-1.969-3.405-.823-1.426-1.641-2.854-2.468-4.278-.516-.887-.417-1.292.475-1.813,1.007-.588,2.013-1.175,3.025-1.755a1,1,0,0,1,1.544.417c.264.449.261.447.629.059a17.307,17.307,0,0,1,2.037-2.038,6.169,6.169,0,0,1,3.812-1.312c.874,0,1.749,0,2.623,0,.586,0,.585-.007.582-.616,0-.335-.014-.671,0-1.005a1.957,1.957,0,0,0-.721-1.527c-.183-.178-.318-.163-.515.007a4.766,4.766,0,0,1-6.729-.616,11.109,11.109,0,0,1-1.246-1.946.306.306,0,0,1,.076-.42,7.1,7.1,0,0,1,3.643-2.039c1.9-.338,4.584,1.184,4.936,3.157.053.295.3.38.5.51.149.1.168-.065.186-.15a2.657,2.657,0,0,1,.952-1.528.431.431,0,0,0,.132-.437c-.368-2.429,2.21-5.922,5.425-5.912a10.725,10.725,0,0,1,4.3,1.022c.186.081.335.187.305.42a9.613,9.613,0,0,1-1.48,4.605,5.692,5.692,0,0,1-4.457,2.322,4.646,4.646,0,0,1-3.091-.707c-.216-.15-.346-.079-.462.111a2.354,2.354,0,0,0-.286,1.219c-.016,1.035,0,2.07-.011,3.1,0,.322.1.437.427.43q1.18-.027,2.361,0a2.933,2.933,0,0,1,2.791,1.756c.152.321.234.314.457.061.9-1.017,1.8-2.031,2.722-3.02a2.968,2.968,0,0,1,4.679.149,2.5,2.5,0,0,1,.018,3.162c-1.524,1.933-3.024,3.889-4.718,5.681a14.829,14.829,0,0,1-2.971,2.56,4.627,4.627,0,0,1-2.606.732C747.591,357.856,746.133,357.885,744.675,357.885Zm-.529-1.458v0c1.559,0,3.12-.044,4.677.016a3.858,3.858,0,0,0,2.581-.876,14.049,14.049,0,0,0,1.231-1.046,67.065,67.065,0,0,0,5.513-6.433,1.157,1.157,0,0,0-.2-1.674,1.5,1.5,0,0,0-2.3.276c-1.494,1.714-3.079,3.344-4.615,5.019a2.955,2.955,0,0,1-2.092,1.039c-1.529.076-3.058.028-4.587.025a.822.822,0,0,1-.257-.048.7.7,0,0,1-.532-.714.647.647,0,0,1,.528-.663,2.384,2.384,0,0,1,.561-.059c1.384-.006,2.769.015,4.153-.015a1.464,1.464,0,0,0,1.319-2.077,1.57,1.57,0,0,0-1.555-.926q-3.628-.005-7.257,0a4.746,4.746,0,0,0-3.372,1.324c-.655.62-1.237,1.316-1.863,1.967a.522.522,0,0,0-.076.728q1.121,1.9,2.2,3.824a.591.591,0,0,0,.6.32C740.591,356.422,742.369,356.427,744.146,356.427Zm-6.378,1.835c-.026-.052-.055-.119-.092-.182q-1.911-3.309-3.818-6.621c-.154-.269-.294-.287-.549-.133-.622.377-1.253.742-1.9,1.079-.3.159-.349.292-.166.593.551.908,1.07,1.836,1.6,2.756q1.08,1.873,2.159,3.746c.109.189.2.41.495.238.691-.4,1.389-.8,2.082-1.2C737.683,358.483,737.789,358.423,737.768,358.261Zm10.013-17.347a1.27,1.27,0,0,0,.178.11,4.772,4.772,0,0,0,6.117-4.443c0-.218-.105-.267-.267-.325a10.32,10.32,0,0,0-1.556-.424,4.317,4.317,0,0,0-5.033,3.049.861.861,0,0,0-.048.7l1.78-1.057c.551-.327,1.093-.671,1.656-.977a.728.728,0,0,1,1.027.26.7.7,0,0,1-.276.981c-.106.077-.221.141-.334.207Zm-5.519.725a1.937,1.937,0,0,0-.171-.295,3.321,3.321,0,0,0-4.964-.3.228.228,0,0,0-.069.339,3.378,3.378,0,0,0,3.448,1.9,1.446,1.446,0,0,0,.9-.287,1.054,1.054,0,0,0-.465-.162c-.54-.12-1.08-.237-1.618-.362a.736.736,0,0,1-.65-.876c.062-.4.387-.613.89-.556a5.8,5.8,0,0,1,.6.122Z" transform="translate(-729.397 -334.29)" />
		</g>
	</g>
</svg>
