<svg xmlns="http://www.w3.org/2000/svg" xmlns:xlink="http://www.w3.org/1999/xlink" width="30" height="30" viewBox="0 0 30 30">
  <defs>
    <linearGradient id="linear-gradient" x1="1.876" x2="-0.896" y2="1.344" gradientUnits="objectBoundingBox">
      <stop offset="0" stop-color="#ff00eb"/>
      <stop offset="0.479" stop-color="#9a66f5"/>
      <stop offset="1" stop-color="#2bd7ff"/>
    </linearGradient>
  </defs>
  <g id="Сгруппировать_9822" data-name="Сгруппировать 9822" transform="translate(-1512 -5913)">
    <rect id="Прямоугольник_2478" data-name="Прямоугольник 2478" width="30" height="30" rx="6" transform="translate(1512 5913)" fill="url(#linear-gradient)"/>
    <g id="tez30Y.tif" transform="translate(1516.222 5921.868)">
      <g id="Сгруппировать_9595" data-name="Сгруппировать 9595" transform="translate(0 0)">
        <path id="Контур_3831" data-name="Контур 3831" d="M1253.436,581.127c.059-.07.115-.146.18-.211.6-.607,1.217-1.207,1.815-1.82a.666.666,0,0,1,.527-.214c2.351.007,4.7,0,7.053,0,.321,0,.321,0,.321-.33q0-2.954,0-5.909c0-.289,0-.289-.3-.29-.9,0-1.8,0-2.7,0-.082,0-.2.044-.238-.036s.075-.139.131-.2q2.014-2.016,4.028-4.031c.143-.144.224-.152.372,0q2.1,2.112,4.211,4.212v.043c-.093,0-.185.013-.278.013H1265.9c-.32,0-.321,0-.321.312q0,3.061,0,6.122a2.261,2.261,0,0,1-.95,1.938,2.676,2.676,0,0,1-.941.4Z" transform="translate(-1246.908 -567.909)" fill="#fff"/>
        <path id="Контур_3832" data-name="Контур 3832" d="M1105.9,579.519l-4.154-4.149c-.035-.035-.073-.068-.105-.107s-.107-.073-.072-.139c.026-.049.09-.031.138-.032h1.308c.5,0,1-.012,1.5.005.231.008.269-.086.269-.288q-.009-3.073,0-6.146a2.246,2.246,0,0,1,1.682-2.279,2.179,2.179,0,0,1,.55-.074q4.825,0,9.649,0c.072,0,.177-.045.209.048.024.07-.069.116-.118.165-.62.622-1.246,1.239-1.862,1.866a.554.554,0,0,1-.434.176q-3.56-.007-7.119,0c-.308,0-.309,0-.309.3,0,1.984,0,3.969,0,5.953,0,.212.049.284.272.281.922-.012,1.844-.006,2.766,0,.072,0,.178-.045.209.048.023.069-.07.116-.118.164q-2.1,2.107-4.212,4.212Z" transform="translate(-1101.558 -566.301)" fill="#fff"/>
      </g>
    </g>
  </g>
</svg>
