<svg xmlns="http://www.w3.org/2000/svg" width="21.409" height="18.935" viewBox="0 0 21.409 18.935">
  <g id="Сгруппировать_3" data-name="Сгруппировать 3" transform="translate(0 0)">
    <path id="Контур_1303" data-name="Контур 1303" d="M922.248,168.663h-5.489c-.284,0-.287,0-.22.28.119.491.252.98.36,1.474a.26.26,0,0,0,.306.247q4.081-.009,8.161,0c.619,0,1.238,0,1.858,0a.692.692,0,1,1,0,1.379H916.553a.722.722,0,0,1-.838-.666q-.984-3.987-1.964-7.976-.652-2.649-1.3-5.3a.265.265,0,0,0-.311-.243c-.8.011-1.6.008-2.4,0a.672.672,0,0,1-.667-.6.68.68,0,0,1,.5-.752.987.987,0,0,1,.228-.021q1.523,0,3.047,0a.681.681,0,0,1,.762.6c.153.606.311,1.211.446,1.821.048.218.13.291.359.29q7.639-.01,15.278-.007a.767.767,0,0,1,.53.147.7.7,0,0,1,.224.762q-.459,1.86-.919,3.721-.526,2.126-1.053,4.252a.693.693,0,0,1-.761.6Zm-6.464-8.1c-.362,0-.724.007-1.086,0-.171,0-.22.039-.174.217.194.754.38,1.512.562,2.269a.21.21,0,0,0,.244.191c.612-.007,1.225-.01,1.837,0,.2,0,.236-.082.213-.254-.1-.745-.2-1.49-.282-2.236-.017-.146-.07-.191-.208-.188C916.521,160.565,916.152,160.561,915.784,160.561Zm11.822,0c-.368,0-.737,0-1.106,0-.14,0-.2.043-.207.19s-.037.292-.055.439c-.075.6-.148,1.2-.227,1.8-.023.175.017.255.215.252.612-.011,1.225-.008,1.838,0a.21.21,0,0,0,.241-.194c.184-.764.371-1.528.567-2.29.043-.167-.015-.195-.159-.192C928.344,160.565,927.975,160.562,927.606,160.561Zm-6.593,1.344h0c0-.372-.007-.745,0-1.117.005-.172-.047-.233-.223-.231-.7.009-1.391.011-2.085,0-.2,0-.235.082-.212.254.1.751.2,1.5.283,2.255.017.144.082.169.2.168.612,0,1.224-.006,1.835,0,.161,0,.2-.064.2-.213C921.008,162.65,921.013,162.278,921.013,161.905Zm1.365-.017c0,.387,0,.773,0,1.159,0,.115.022.187.159.186.64,0,1.279,0,1.918,0,.089,0,.141-.029.153-.129q.142-1.169.292-2.338c.021-.161-.045-.207-.2-.206-.7.006-1.4.008-2.106,0-.181,0-.223.069-.219.235C922.385,161.158,922.378,161.523,922.378,161.888Zm-5.835,2.724c-.286,0-.571.007-.856,0-.168-.006-.2.048-.161.209q.288,1.133.56,2.27a.219.219,0,0,0,.26.2c.432-.008.863,0,1.295,0,.246,0,.268-.023.238-.264-.093-.745-.193-1.49-.28-2.236-.016-.139-.073-.176-.2-.174C917.114,164.616,916.828,164.612,916.543,164.612Zm10.308,0c-.271,0-.543.007-.813,0-.158-.006-.25.026-.25.212a3.38,3.38,0,0,1-.051.417c-.075.6-.149,1.2-.227,1.8-.023.174.017.259.216.253.445-.013.89-.008,1.335,0a.2.2,0,0,0,.233-.179q.282-1.166.579-2.329c.039-.152-.026-.167-.144-.166C927.436,164.614,927.144,164.612,926.851,164.612Zm-5.838,1.357c0-.372-.008-.745,0-1.117.006-.179-.042-.249-.232-.244-.521.011-1.043.014-1.564,0-.212-.006-.249.082-.225.263.1.744.193,1.489.282,2.234.016.131.058.183.192.181q.678-.009,1.355,0c.149,0,.192-.058.19-.2C921.009,166.714,921.013,166.341,921.013,165.969Zm1.366-.031c0,.387,0,.773,0,1.159,0,.115.021.188.157.187.473,0,.946,0,1.418,0,.089,0,.141-.028.153-.128q.141-1.17.291-2.338c.02-.16-.043-.21-.2-.208q-.813.01-1.627,0c-.161,0-.2.063-.2.213C922.383,165.194,922.378,165.566,922.379,165.938Z" transform="translate(-909.071 -156.48)" fill="#4a4a4a"/>
    <path id="Контур_1304" data-name="Контур 1304" d="M921.854,185.032a1.365,1.365,0,1,1,1.363-1.37A1.338,1.338,0,0,1,921.854,185.032Z" transform="translate(-913.333 -166.097)" fill="#4a4a4a"/>
    <path id="Контур_1305" data-name="Контур 1305" d="M934.921,182.3a1.365,1.365,0,1,1-1.365,1.364A1.345,1.345,0,0,1,934.921,182.3Z" transform="translate(-918.19 -166.098)" fill="#4a4a4a"/>
  </g>
</svg>
