<?xml version="1.0" standalone="no"?>
<!DOCTYPE svg PUBLIC "-//W3C//DTD SVG 20010904//EN"
 "http://www.w3.org/TR/2001/REC-SVG-20010904/DTD/svg10.dtd">
<svg version="1.0" xmlns="http://www.w3.org/2000/svg"
 width="608.000000pt" height="608.000000pt" viewBox="0 0 608.000000 608.000000"
 preserveAspectRatio="xMidYMid meet">
<metadata>
Created by potrace 1.14, written by Peter Selinger 2001-2017
</metadata>
<g transform="translate(0.000000,608.000000) scale(0.100000,-0.100000)"
fill="#000000" stroke="none">
<path d="M3085 6072 c4 -4 10 -7 13 -7 4 0 45 -21 92 -46 86 -47 193 -104 330
-177 81 -42 114 -61 228 -125 l73 -42 -28 -20 c-25 -19 -77 -55 -318 -220
-318 -218 -649 -454 -653 -466 -2 -5 -8 -9 -14 -9 -13 0 -254 -182 -523 -394
-154 -122 -160 -127 -225 -182 -25 -22 -68 -57 -94 -79 -258 -213 -490 -448
-561 -567 -117 -195 -159 -283 -213 -448 -45 -138 -75 -260 -88 -360 -3 -25
-7 -52 -9 -60 -24 -89 -24 -502 1 -647 6 -38 22 -122 29 -153 27 -133 101
-334 163 -450 76 -140 211 -305 327 -401 42 -34 172 -119 183 -119 5 0 15 -7
22 -15 7 -8 21 -15 31 -15 32 0 12 -25 -76 -94 -123 -97 -297 -273 -344 -346
-8 -14 -18 -27 -21 -30 -17 -15 -77 -116 -115 -195 -41 -85 -91 -219 -101
-275 -3 -14 -9 -40 -14 -59 -5 -19 -7 -37 -5 -39 2 -3 105 -5 227 -6 l223 -2
52 106 c104 215 260 385 550 603 56 42 107 77 113 77 14 0 339 -167 460 -236
123 -71 129 -75 167 -101 17 -13 34 -23 37 -23 4 0 24 -12 45 -27 21 -16 47
-34 57 -40 11 -7 59 -41 108 -75 48 -35 96 -67 105 -73 9 -5 18 -12 21 -15 14
-14 90 -70 94 -70 9 0 44 -30 93 -79 l45 -44 379 0 c209 0 381 2 384 5 5 5
-220 230 -310 308 -33 29 -73 65 -90 79 -44 39 -296 226 -324 241 -14 7 -30
17 -35 21 -24 20 -87 59 -96 59 -4 0 -10 3 -12 8 -9 22 -409 234 -645 343 -29
13 -52 27 -53 31 0 6 68 57 170 128 12 8 67 48 123 88 129 93 111 80 312 222
94 66 181 128 194 138 44 32 156 112 175 124 10 7 28 20 40 29 56 42 277 189
285 189 5 0 12 7 15 16 3 8 10 13 15 10 5 -4 11 -3 13 2 3 8 185 132 194 132
3 0 12 6 19 13 7 6 76 56 152 109 339 238 552 440 670 633 43 71 152 345 136
345 -3 0 0 7 7 15 7 8 10 15 7 15 -3 0 -1 15 4 33 6 17 12 41 13 52 2 11 6 34
9 50 4 17 9 44 12 60 3 17 7 41 10 55 3 14 8 54 11 90 3 36 8 88 11 115 7 71
7 467 0 545 -11 105 -18 174 -22 195 -1 11 -6 38 -10 60 -16 100 -63 240 -118
350 -42 86 -124 218 -138 223 -5 2 -9 8 -9 14 0 29 -235 273 -365 378 -44 35
-83 69 -87 74 -4 6 10 21 30 35 20 13 39 27 42 30 3 3 39 33 80 66 122 96 330
294 330 312 0 8 -113 11 -355 12 l-355 2 -92 -68 c-51 -37 -95 -70 -98 -73
-10 -13 -40 -19 -45 -10 -4 6 -15 10 -25 10 -10 0 -20 4 -22 9 -1 5 -52 36
-113 69 l-110 60 -403 0 c-222 0 -401 -3 -397 -6z m1290 -752 c93 -68 76 -55
190 -149 134 -110 373 -356 409 -420 5 -9 12 -18 16 -21 14 -10 107 -158 141
-225 140 -271 150 -627 24 -900 -71 -154 -176 -267 -430 -463 -5 -4 -84 -64
-175 -133 -202 -155 -330 -254 -350 -272 -8 -7 -53 -42 -100 -78 -47 -35 -87
-66 -90 -69 -3 -3 -43 -35 -90 -70 -47 -36 -87 -67 -90 -70 -3 -3 -21 -17 -40
-30 -19 -13 -37 -27 -40 -30 -6 -8 -242 -186 -289 -218 -18 -13 -40 -29 -47
-37 -7 -7 -30 -23 -51 -36 -21 -13 -49 -34 -63 -46 -14 -13 -27 -23 -31 -23
-3 0 -28 -17 -56 -37 -28 -21 -61 -45 -73 -53 -12 -8 -36 -26 -53 -38 -18 -13
-61 -44 -97 -68 -36 -24 -76 -52 -90 -61 -14 -10 -108 -75 -210 -145 -102 -70
-189 -131 -195 -136 -5 -4 -34 -23 -62 -42 -29 -18 -53 -37 -53 -42 0 -4 -5
-8 -11 -8 -6 0 -25 -11 -44 -25 l-33 -26 -199 102 c-109 56 -210 110 -225 120
-14 11 -30 19 -35 19 -6 0 -18 9 -28 20 -9 10 -20 18 -24 17 -6 -1 -130 79
-141 92 -3 3 -32 26 -65 51 -66 49 -237 216 -275 268 -14 19 -29 39 -35 46
-38 44 -102 183 -116 248 -17 78 -6 212 26 328 8 30 17 62 19 70 12 48 120
255 158 305 149 194 307 357 503 520 33 28 65 55 71 60 6 6 30 26 54 45 24 19
48 40 54 45 28 26 170 136 246 192 47 34 91 67 98 74 8 6 246 177 530 380 285
202 522 372 527 376 14 12 125 95 151 113 21 14 148 110 169 127 6 5 66 53
135 108 69 54 164 131 211 169 47 39 103 86 125 103 21 18 46 33 54 33 8 0 51
-27 95 -60z"/>
<path d="M1923 5908 c-15 -29 -37 -71 -50 -93 -12 -22 -25 -47 -29 -55 -48
-98 -263 -409 -375 -544 -5 -6 -19 -22 -30 -36 -244 -295 -526 -580 -643 -650
-44 -27 -122 -33 -135 -11 -10 15 -1 49 24 98 9 18 14 41 11 50 -7 21 -147
103 -175 103 -70 0 -150 -276 -104 -363 36 -70 90 -99 188 -102 84 -2 154 22
249 87 123 83 317 270 476 458 11 14 35 41 53 60 18 19 61 70 96 113 35 42 68
77 73 77 5 0 8 -3 6 -7 -1 -5 -36 -74 -76 -155 -40 -81 -73 -150 -73 -153 1
-3 -6 -19 -14 -35 -8 -16 -16 -33 -16 -37 0 -5 -5 -13 -9 -18 -5 -6 -11 -22
-14 -35 -2 -14 -11 -43 -19 -65 -21 -58 -17 -182 7 -218 63 -93 185 -96 336
-7 28 16 53 30 56 30 6 0 71 48 90 65 12 12 36 75 27 75 -3 0 0 6 6 14 7 8 16
28 21 45 l9 31 -32 -22 c-17 -13 -41 -28 -52 -34 -11 -6 -36 -20 -55 -30 -40
-23 -107 -44 -138 -44 -28 0 -51 36 -46 69 20 117 174 449 505 1088 72 139 96
193 85 193 -9 0 -16 5 -16 10 0 6 -4 10 -9 10 -5 0 -45 20 -89 45 -44 25 -83
45 -86 45 -3 0 -18 -24 -33 -52z"/>
<path d="M4830 2308 c-36 -11 -75 -22 -87 -25 -13 -3 -23 -9 -23 -14 0 -5 -7
-9 -15 -9 -9 0 -21 -5 -28 -10 -7 -6 -34 -25 -62 -43 -55 -35 -182 -157 -233
-223 l-32 -42 49 -31 c26 -17 61 -43 77 -56 16 -14 34 -25 41 -25 6 0 13 -5
15 -11 2 -5 23 18 47 52 141 199 252 278 400 283 44 2 92 -3 114 -10 20 -7 41
-14 45 -14 26 -4 98 -50 132 -86 80 -86 118 -196 115 -335 -3 -104 -10 -144
-42 -233 -29 -82 -122 -266 -135 -266 -4 0 -8 -7 -8 -15 0 -8 -4 -15 -8 -15
-4 0 -15 -13 -25 -29 -42 -72 -187 -206 -281 -260 -59 -34 -149 -62 -208 -65
-87 -4 -218 32 -218 61 0 7 4 13 9 13 13 0 79 66 116 115 50 67 115 166 115
176 0 5 4 9 8 9 4 0 13 12 19 28 7 15 23 45 36 67 13 22 41 74 63 115 21 41
41 77 44 80 3 3 20 34 39 70 19 36 37 67 40 70 3 3 12 16 19 30 15 29 127 188
158 223 l22 24 -73 42 c-75 42 -91 48 -97 32 -1 -5 -21 -29 -43 -53 -81 -87
-255 -331 -255 -358 0 -5 -4 -10 -8 -10 -4 0 -13 -12 -19 -27 -6 -16 -37 -73
-67 -128 -31 -55 -64 -117 -74 -137 -9 -21 -20 -38 -24 -38 -5 0 -8 -7 -8 -15
0 -8 -5 -15 -11 -15 -5 0 -8 -4 -4 -9 3 -5 -1 -15 -8 -23 -7 -7 -24 -31 -37
-53 -24 -39 -30 -47 -77 -103 -13 -15 -23 -30 -23 -34 0 -7 -40 -23 -51 -20
-18 4 -88 3 -111 -2 -37 -8 -67 -14 -103 -21 -48 -9 -152 -63 -167 -88 -12
-17 -17 -72 -8 -72 1 0 3 -7 5 -15 17 -78 46 -94 161 -87 64 4 94 11 150 38
38 18 75 39 82 46 7 7 15 13 16 13 7 0 89 -30 119 -44 30 -14 109 -41 152 -53
11 -3 63 -7 115 -8 166 -5 323 52 485 175 103 78 258 270 322 400 153 309 158
626 13 830 -36 51 -43 59 -69 83 -13 12 -31 30 -40 40 -8 9 -21 17 -28 17 -7
0 -13 4 -13 9 0 11 -139 79 -176 85 -16 3 -43 10 -61 15 -55 16 -212 10 -283
-11z"/>
</g>
</svg>
