<svg xmlns="http://www.w3.org/2000/svg" xmlns:xlink="http://www.w3.org/1999/xlink" width="517" height="305.32" viewBox="0 0 517 305.32">
  <defs>
    <linearGradient id="linear-gradient" x1="-5.688" y1="0.5" x2="-0.34" y2="-5.187" gradientUnits="objectBoundingBox">
      <stop offset="0" stop-color="#ff00eb"/>
      <stop offset="0.479" stop-color="#9a66f5"/>
      <stop offset="1" stop-color="#2bd7ff"/>
    </linearGradient>
  </defs>
  <g id="Сгруппировать_9823" data-name="Сгруппировать 9823" transform="translate(-375 -217.495)">
    <g id="Сгруппировать_9652" data-name="Сгруппировать 9652" transform="translate(456.113 -228.16)" opacity="0.04">
      <path id="Контур_1450" data-name="Контур 1450" d="M162.443,466.249c-.149.359-.293.714-.437,1.073a8.638,8.638,0,0,0,1.4,8.773L330.882,669.236a6.834,6.834,0,0,0,7.9,1.956c.333-.145.665-.284.993-.429Z" transform="translate(8.443 69.525)" fill="#4a4a4a"/>
      <path id="Контур_1451" data-name="Контур 1451" d="M164.645,461.932l-.031.052a8.433,8.433,0,0,0,.84,9.614L341.516,674.642a6.643,6.643,0,0,0,8.686,1.378l.048-.031Z" transform="translate(15.553 54.951)" fill="#4a4a4a"/>
      <path id="Контур_1452" data-name="Контур 1452" d="M169.009,458.112c-1.186,1.549-2.359,3.106-3.492,4.7L354.689,680.983c1.505-1.169,2.976-2.385,4.437-3.615Z" transform="translate(22.383 42.055)" fill="#4a4a4a"/>
      <path id="Контур_1453" data-name="Контур 1453" d="M159.326,476.763q-.23,2.219-.394,4.459a8.417,8.417,0,0,0,2,6.118L296.306,643.469a6.891,6.891,0,0,0,5.461,2.481c1.361-.049,2.718-.127,4.065-.223Z" transform="translate(0.073 105.02)" fill="#4a4a4a"/>
      <path id="Контур_1454" data-name="Контур 1454" d="M160.514,492.046c1.5,4.787,3.221,9.461,5.137,14.021a8.2,8.2,0,0,0,1.378,2.223L225.567,575.8a7.59,7.59,0,0,0,1.956,1.619,129.939,129.939,0,0,0,12.489,6.306Z" transform="translate(5.493 156.614)" fill="#4a4a4a"/>
      <path id="Контур_1455" data-name="Контур 1455" d="M160.666,471.141q-.328,1.261-.63,2.534a8.6,8.6,0,0,0,1.812,7.557l154.4,178.07a6.9,6.9,0,0,0,6.778,2.346q1.169-.276,2.328-.573Z" transform="translate(3.092 86.04)" fill="#4a4a4a"/>
      <path id="Контур_1456" data-name="Контур 1456" d="M158.887,483.4c.171,2.455.411,4.888.7,7.308a8.34,8.34,0,0,0,1.969,4.489L268.933,619.04a7.089,7.089,0,0,0,3.986,2.372c2.184.429,4.38.805,6.6,1.112Z" transform="translate(0 127.423)" fill="#4a4a4a"/>
      <path id="Контур_1457" data-name="Контур 1457" d="M176.071,451.831q-2.278,1.733-4.485,3.558L361.445,674.348q1.759-2.343,3.435-4.761Z" transform="translate(42.871 20.851)" fill="#4a4a4a"/>
      <path id="Контур_1458" data-name="Контур 1458" d="M205.876,449.608a7.131,7.131,0,0,0-3.881-2.354q-3.38-.722-6.818-1.256L313.061,581.95q-.328-3.807-.818-7.553a8.379,8.379,0,0,0-1.956-4.376Z" transform="translate(122.513 1.159)" fill="#4a4a4a"/>
      <path id="Контур_1459" data-name="Контур 1459" d="M218.481,457.372a7.917,7.917,0,0,0-1.733-1.5,133.139,133.139,0,0,0-13.552-7.4l74.6,86.03a159.779,159.779,0,0,0-6.082-15.241,8.365,8.365,0,0,0-1.278-1.978Z" transform="translate(149.585 9.525)" fill="#4a4a4a"/>
      <path id="Контур_1460" data-name="Контур 1460" d="M198.624,448.142a6.917,6.917,0,0,0-5.352-2.485q-2.127.046-4.232.166L333.723,612.677q.2-2.31.35-4.634a8.413,8.413,0,0,0-2.009-6Z" transform="translate(101.798 0)" fill="#4a4a4a"/>
      <path id="Контур_1461" data-name="Контур 1461" d="M188.177,450.255a6.806,6.806,0,0,0-7.776-2.018c-.381.157-.757.315-1.133.473L355.684,652.169l.486-1.22a8.6,8.6,0,0,0-1.466-8.643Z" transform="translate(68.805 7.046)" fill="#4a4a4a"/>
      <path id="Контур_1462" data-name="Контур 1462" d="M183.957,452.232a6.66,6.66,0,0,0-8.634-1.422l-.114.065L360.247,664.268h0a8.65,8.65,0,0,0-.91-9.776Z" transform="translate(55.106 14.031)" fill="#4a4a4a"/>
      <path id="Контур_1463" data-name="Контур 1463" d="M363.5,675.212,172.344,454.748q-2.028,2.028-3.986,4.13L359.569,679.4Q361.578,677.346,363.5,675.212Z" transform="translate(31.974 30.699)" fill="#4a4a4a"/>
      <path id="Контур_1464" data-name="Контур 1464" d="M192.962,448.813a6.9,6.9,0,0,0-6.691-2.367q-1.221.275-2.437.569l163.358,188.4q.322-1.326.63-2.656a8.611,8.611,0,0,0-1.838-7.466Z" transform="translate(84.22 2.155)" fill="#4a4a4a"/>
    </g>
    <g id="Сгруппировать_9601" data-name="Сгруппировать 9601" transform="translate(-1536.153 -276.31)">
      <path id="Контур_3840" data-name="Контур 3840" d="M2205.956,650.49c.8,44.827-36.962,83.634-84.483,83.131-49.856-.526-88.479-45.954-81.073-95.183,3.87-25.724,17.075-45.451,39.06-59.3,2.726-1.718,4.935-3.615,6.276-6.788a16.309,16.309,0,0,1,10.608-9.263,82.02,82.02,0,0,1,45.81-.976c4.851,1.3,9.378,3.4,11.124,8.984.743,2.38,3.386,3.061,5.459,4.085,26.284,12.979,41.529,34.139,46.405,62.873C2205.833,642.126,2205.705,646.34,2205.956,650.49Zm-46.236-33.462h-.037c0-5.833.121-11.67-.058-17.5a27.707,27.707,0,0,0-1.271-7.343c-.819-2.618-2.926-1.432-4.623-.974-1.457.392-2.515,1.114-1.5,2.841,1.833,3.116,1.043,5.8-1.487,8.036-2.829,2.5-5.889,1.987-8.744.085-2.03-1.352-3.6-.707-5.521.264-5.719,2.888-9.78.729-10.495-5.62-.211-1.873-.51-2.622-2.57-2.576-11.991.27-23.986.483-35.98.537-3.325.015-5.073,1.349-5.19,4.589-.5,13.794-2.044,27.682,1.212,41.3,4.378,18.306,23.008,31.042,41.452,28.842,20.179-2.406,34.634-18.167,34.805-37.981C2159.756,626.7,2159.72,621.861,2159.72,617.028Zm15.549,6.281c-2.153,3.515-4.621,5.864-8.293,5.369-4.009-.541-4.187,1.621-4.335,4.673-.574,11.772-4.983,22.445-14.627,28.866-8.693,5.787-12.532,11.8-11.868,22.44.56,8.984-7.263,14.552-16.515,14.119-7.986-.373-13.747-6.671-13.972-15.341-.074-2.83-.174-5.676.027-8.494.257-3.611-1.194-5.679-4.412-7.488-12.892-7.248-20.631-18.07-21.8-33.137a25.453,25.453,0,0,0-.808-4.924c-1.068-3.777-4.934-3.671-7.637-4.7-1.917-.727-2.475,2.223-3.117,3.831-15.021,37.611,12.208,79.495,52.68,81.077,28.266,1.1,54.453-19.454,60-47.362A57.725,57.725,0,0,0,2175.269,623.309ZM2090.5,592.521c8.7-1.319,18.544-.562,28.358-.867,1.831-.057,3.667-.023,5.493-.147,2.395-.162,3.945-.849,2.386-3.727-1.624-3-.443-5.525,1.912-7.532,2.487-2.12,5.25-2.055,7.807-.168,2.044,1.508,3.756,1.319,5.947.169,5.781-3.034,9.554-1.133,10.883,5.222.18.857-.462,2.239,1.2,2.066,1.085-.113,1.606-1.086,1.9-2.093,1.372-4.673-4.1-11.066-8.942-10.383a313.1,313.1,0,0,1-39.814,2.765c-6.151.079-12.3.472-18.441.911-3.781.27-5.621,3.992-5.537,9.652C2083.714,592.662,2086.414,592.679,2090.5,592.521Zm5.743-16.762c15.091-1.507,30.428-.7,45.576-2.921,2.526-.37,6.514.371,6.945-2.454.551-3.613-3.78-4.153-6.349-5.087-11.089-4.034-22.595-2.98-34.006-1.966-4.933.438-9.983,1.132-14.229,4.071-2.53,1.751-6.361,3.605-5.314,6.969C2089.7,577.047,2093.637,575.085,2096.241,575.759Zm37.32,104.393c0-1.521,0-2.184,0-2.848-.036-6.306-.023-6.223-6.033-5.313-2.77.419-5.616.321-8.4.679-3.408.44-7.763-3.425-9.91.346-1.582,2.778-.448,7.11-.492,10.75a9.747,9.747,0,0,0,.23,1.972c1.055,5.4,4.756,9.117,9.827,9.886,5.706.865,10.141-1.307,13-6.192C2133.647,686.242,2133.625,682.788,2133.561,680.152Zm16.411-94.859a2.805,2.805,0,0,0-1.611-2.844,3.529,3.529,0,0,0-4.188.427c-4.452,3.714-8.915,7.419-13.227,11.293-1.494,1.342-2.7,3.24-.808,5.194,1.706,1.759,3.658,1.327,5.361-.084q6.315-5.232,12.515-10.6A5.534,5.534,0,0,0,2149.972,585.293Zm21.706,34.062c0-2.317.016-3.147,0-3.978-.062-2.816-1.154-5.046-4.2-5.194-3.43-.166-4.52,2.306-4.651,5.243a41.242,41.242,0,0,0,.148,6.462,3.85,3.85,0,0,0,4,3.684,4.091,4.091,0,0,0,4.51-3.732A13.144,13.144,0,0,0,2171.678,619.355Zm-92.958-3.507c0-1.163.068-2.33-.016-3.487-.126-1.753.29-4.086-2.3-4.237-2.421-.141-3.541,1.734-3.67,3.9a47.407,47.407,0,0,0,.134,7.941c.215,1.97,1.522,3.479,3.7,3.257,2.288-.234,2.021-2.272,2.13-3.883C2078.775,618.177,2078.713,617.01,2078.72,615.848Z" fill="url(#linear-gradient)"/>
      <path id="Контур_3841" data-name="Контур 3841" d="M2005.6,623.922c0,11.825.121,23.652-.065,35.474-.066,4.189.864,6.752,5.666,6.626a33.814,33.814,0,0,1,6.431.814c5.784.983,8.605,3.855,8.973,9.034.428,6.007-1.874,9.581-7.47,11.432a24.61,24.61,0,0,1-8.85,1.33c-3.445-.154-4.682,1.508-4.72,4.834-.067,5.817.593,11.673-.5,17.448-1.369,7.224-4.543,10.463-10.4,10.863-8.6.587-13.489-3.626-13.981-12.428-.287-5.148-.246-10.327-.081-15.484.125-3.888-1.471-5.306-5.317-5.271-13.822.126-27.646.088-41.469.007a51.83,51.83,0,0,1-8.929-.773c-12.959-2.359-17.787-14.11-9.953-24.771q22.038-29.988,44.49-59.671c6.6-8.778,12.846-17.83,20.039-26.167,4.656-5.4,10.178-7.27,16.971-4.985,7.071,2.379,8.824,8.377,9,14.718.338,12.315.1,24.646.1,36.97Zm-25.035-14.217c-1.266.506-1.683.537-1.847.757q-19.38,26.054-38.725,52.132c-2.385,3.211.022,3.153,2.176,3.157,11.16.02,22.321-.071,33.48.048,3.713.039,4.973-1.567,4.945-5.117-.1-12.492-.032-24.985-.029-37.478C1980.566,618.908,1980.565,614.612,1980.565,609.705Z" fill="url(#linear-gradient)"/>
      <path id="Контур_3842" data-name="Контур 3842" d="M2314.6,630.03c0,11.992.1,23.984-.055,35.974-.05,3.869,1.05,6,5.267,5.961a40.119,40.119,0,0,1,6.433.812c6.139.958,9.025,3.811,9.366,9.2.39,6.163-2.058,9.8-8.063,11.476a24.124,24.124,0,0,1-7.369,1.089c-4.516-.2-5.709,1.894-5.653,6.034.076,5.641.641,11.333-.581,16.935-1.717,7.874-5.468,10.733-13.386,10.271-6.2-.361-10.2-4.419-10.791-11.548-.383-4.634-.176-9.319-.2-13.981-.037-7.6-.025-7.61-7.889-7.615-13.157-.007-26.315.042-39.472-.039a48.225,48.225,0,0,1-8.428-.786c-12.9-2.381-17.625-14.152-9.785-24.847,12.6-17.189,25.428-34.211,38.178-51.29,7.671-10.275,15.245-20.628,23.124-30.742,4.2-5.392,8.615-10.786,16.844-9.478,6.125.973,9.927,4.152,11.5,10.187,1.42,5.427.872,10.93.928,16.406C2314.663,612.709,2314.6,621.37,2314.6,630.03Zm-25.035-14.294c-1.252.476-1.672.5-1.833.716Q2268.348,642.5,2249,668.58c-2.362,3.178-.045,3.17,2.153,3.173,11.16.015,22.321-.073,33.48.046,3.7.039,4.992-1.538,4.961-5.1-.1-11.826-.032-23.653-.029-35.48C2289.566,626.253,2289.565,621.288,2289.565,615.736Z" fill="url(#linear-gradient)"/>
      <circle id="Эллипс_95" data-name="Эллипс 95" cx="5.027" cy="5.027" r="5.027" transform="translate(2103.349 615.678)" fill="url(#linear-gradient)"/>
      <circle id="Эллипс_96" data-name="Эллипс 96" cx="5.027" cy="5.027" r="5.027" transform="translate(2126.532 615.678)" fill="url(#linear-gradient)"/>
      <path id="Контур_3843" data-name="Контур 3843" d="M2111.513,647.648a41.807,41.807,0,0,1,28.6-3.121c3.123.776,4.455-4.044,1.329-4.821a47.232,47.232,0,0,0-32.449,3.625c-2.878,1.439-.349,5.754,2.524,4.317Z" fill="#8779f7"/>
    </g>
  </g>
</svg>
