<svg xmlns="http://www.w3.org/2000/svg" width="67" height="73.85" viewBox="0 0 67 73.85">
  <g id="Сгруппировать_9766" data-name="Сгруппировать 9766" transform="translate(-6.977 -1481)">
    <g id="Сгруппировать_73" data-name="Сгруппировать 73" transform="translate(6.977 1481)" opacity="0.251">
      <path id="Контур_1450" data-name="Контур 1450" d="M161.643,466.249c-.036.087-.071.173-.106.259a2.089,2.089,0,0,0,.34,2.122l40.508,46.716a1.653,1.653,0,0,0,1.91.473l.24-.1Z" transform="translate(-158.741 -444.451)" fill="#fff"/>
      <path id="Контур_1451" data-name="Контур 1451" d="M163.772,461.932l-.007.013a2.04,2.04,0,0,0,.2,2.325l42.585,49.112a1.607,1.607,0,0,0,2.1.333l.012-.007Z" transform="translate(-158.618 -444.703)" fill="#fff"/>
      <path id="Контур_1452" data-name="Контур 1452" d="M166.362,458.112c-.287.375-.57.751-.845,1.138l45.756,52.77c.364-.283.72-.577,1.073-.874Z" transform="translate(-158.5 -444.927)" fill="#fff"/>
      <path id="Контур_1453" data-name="Контур 1453" d="M159.01,476.763q-.056.537-.1,1.079a2.036,2.036,0,0,0,.483,1.48l32.745,37.764a1.667,1.667,0,0,0,1.321.6c.329-.012.657-.031.983-.054Z" transform="translate(-158.886 -443.837)" fill="#fff"/>
      <path id="Контур_1454" data-name="Контур 1454" d="M160.514,492.046c.362,1.158.779,2.288,1.243,3.391a1.985,1.985,0,0,0,.333.538l14.159,16.33a1.836,1.836,0,0,0,.473.392,31.415,31.415,0,0,0,3.021,1.525Z" transform="translate(-158.792 -442.944)" fill="#fff"/>
      <path id="Контур_1455" data-name="Контур 1455" d="M160.012,471.141q-.079.3-.152.613a2.08,2.08,0,0,0,.438,1.828l37.346,43.071a1.67,1.67,0,0,0,1.64.567q.283-.067.563-.139Z" transform="translate(-158.833 -444.165)" fill="#fff"/>
      <path id="Контур_1456" data-name="Контур 1456" d="M158.887,483.4c.041.594.1,1.182.168,1.768a2.017,2.017,0,0,0,.476,1.086L185.5,516.208a1.715,1.715,0,0,0,.964.574c.528.1,1.059.195,1.6.269Z" transform="translate(-158.887 -443.449)" fill="#fff"/>
      <path id="Контур_1457" data-name="Контур 1457" d="M172.671,451.831q-.551.419-1.085.861l45.923,52.961q.425-.567.831-1.152Z" transform="translate(-158.145 -445.294)" fill="#fff"/>
      <path id="Контур_1458" data-name="Контур 1458" d="M197.765,446.871a1.725,1.725,0,0,0-.939-.569q-.818-.175-1.649-.3l28.513,32.884q-.079-.921-.2-1.827a2.027,2.027,0,0,0-.473-1.058Z" transform="translate(-156.766 -445.635)" fill="#fff"/>
      <path id="Контур_1459" data-name="Контур 1459" d="M206.893,450.628a1.912,1.912,0,0,0-.419-.362,32.2,32.2,0,0,0-3.278-1.79l18.043,20.809a38.635,38.635,0,0,0-1.471-3.687,2.025,2.025,0,0,0-.309-.478Z" transform="translate(-156.298 -445.49)" fill="#fff"/>
      <path id="Контур_1460" data-name="Контур 1460" d="M191.359,446.256a1.673,1.673,0,0,0-1.294-.6q-.514.011-1.024.04l35,40.358q.049-.559.085-1.121a2.035,2.035,0,0,0-.486-1.452Z" transform="translate(-157.125 -445.655)" fill="#fff"/>
      <path id="Контур_1461" data-name="Контур 1461" d="M181.423,448.35a1.646,1.646,0,0,0-1.881-.488l-.274.114,42.671,49.212.117-.3a2.079,2.079,0,0,0-.355-2.09Z" transform="translate(-157.696 -445.533)" fill="#fff"/>
      <path id="Контур_1462" data-name="Контур 1462" d="M177.326,450.4a1.611,1.611,0,0,0-2.088-.344l-.028.016,44.756,51.615h0a2.092,2.092,0,0,0-.22-2.365Z" transform="translate(-157.933 -445.412)" fill="#fff"/>
      <path id="Контур_1463" data-name="Контур 1463" d="M215.559,508.073l-46.237-53.325q-.491.491-.964,1l46.25,53.339Q215.093,508.589,215.559,508.073Z" transform="translate(-158.333 -445.123)" fill="#fff"/>
      <path id="Контур_1464" data-name="Контур 1464" d="M186.042,446.9a1.669,1.669,0,0,0-1.618-.573q-.3.067-.59.138l39.513,45.569q.078-.321.152-.642a2.083,2.083,0,0,0-.445-1.806Z" transform="translate(-157.429 -445.617)" fill="#fff"/>
    </g>
    <g id="Сгруппировать_21" data-name="Сгруппировать 21" transform="translate(15.199 1497)">
      <circle id="Эллипс_29" data-name="Эллипс 29" cx="22.5" cy="22.5" r="22.5" transform="translate(-0.199)" fill="#65bc29"/>
      <g id="mjnJKA.tif" transform="translate(14 8.221)">
        <g id="Сгруппировать_64" data-name="Сгруппировать 64">
          <path id="Контур_1431" data-name="Контур 1431" d="M773.208,402.281a1.3,1.3,0,0,0-.522-.049q-4.42,0-8.84,0a.7.7,0,0,1-.782-.739.693.693,0,0,1,.735-.728c.826-.007,1.652,0,2.479,0,2.479,0,4.957,0,7.436.008.292,0,.432-.083.418-.383a1.872,1.872,0,0,1,.029-.237c.055-.665-.046-.782-.7-.782q-3.479,0-6.958,0c-.11,0-.219,0-.328,0a.732.732,0,0,1,.023-1.465q3.33-.006,6.66,0a.689.689,0,0,0,.371-.04,8.315,8.315,0,0,0-1.266-.895c-.28-.189-.574-.36-.85-.555a.7.7,0,0,1-.195-.977.692.692,0,0,1,.934-.281,13.824,13.824,0,0,1,2.518,1.751,4.584,4.584,0,0,1,.458,5.816,4.667,4.667,0,0,1-1.782,1.458c-2.584,1.307-5.175,2.6-7.755,3.917-1.054.538-2.145,1.011-3.153,1.633a2.859,2.859,0,0,0-1.394,2.753c.018.4.03.8.024,1.194a.719.719,0,0,1-.669.746.7.7,0,0,1-.8-.6,9.971,9.971,0,0,1-.053-1.668,4.122,4.122,0,0,1,.474-1.953,4.328,4.328,0,0,1,1.944-1.957q5.188-2.608,10.377-5.216A5.035,5.035,0,0,0,773.208,402.281Z" transform="translate(-759.223 -385.71)" fill="#fff"/>
          <path id="Контур_1432" data-name="Контур 1432" d="M770.376,244.655q-2.209,0-4.419,0a.7.7,0,0,1-.7-.5.758.758,0,0,1,.312-.864.869.869,0,0,1,.489-.1c2.17,0,4.34-.009,6.51.013a.873.873,0,0,0,.854-.454,4.265,4.265,0,0,0,.336-.664c.085-.221.036-.3-.212-.295-1.214.01-2.429.005-3.643.005q-3.135,0-6.271,0a.7.7,0,0,1-.785-.793c.022-.426.316-.673.817-.673l9.884,0c.4,0,.4,0,.4-.411,0-.129,0-.259.008-.388a.685.685,0,0,1,.676-.63c.393-.018.758.2.764.554a8.113,8.113,0,0,1-.265,3.247,4.314,4.314,0,0,1-2.067,2.342c-1.755.9-3.521,1.77-5.281,2.656-1.813.913-3.62,1.839-5.44,2.738a2.968,2.968,0,0,0-1.728,2.046,3.035,3.035,0,0,0,1.443,3.461c.479.3.96.605,1.43.922a.733.733,0,1,1-.789,1.235,12.581,12.581,0,0,1-2.561-1.839,4.532,4.532,0,0,1,1.247-7c2.855-1.454,5.721-2.887,8.583-4.33.141-.071.279-.146.419-.218Z" transform="translate(-759.005 -238.888)" fill="#fff"/>
          <path id="Контур_1433" data-name="Контур 1433" d="M831.761,596.345c-.191-.139-.33-.229-.456-.335a.707.707,0,0,1-.123-.968.7.7,0,0,1,.921-.247,13.058,13.058,0,0,1,2.579,1.814,4.245,4.245,0,0,1,1.209,2.934c.009.607,0,1.214,0,1.821a.733.733,0,1,1-1.466.018c-.021-.7-.021-.7-.721-.7H824a.708.708,0,0,1-.807-.744.7.7,0,0,1,.769-.725c1.224,0,2.448,0,3.672,0l6.389,0c.343,0,.356-.021.256-.359-.011-.038-.025-.076-.038-.113-.3-.876-.373-.926-1.286-.926-1.4,0-2.806,0-4.21,0a.733.733,0,1,1-.032-1.465c.925-.006,1.851,0,2.776,0Z" transform="translate(-819.352 -573.411)" fill="#fff"/>
          <path id="Контур_1434" data-name="Контур 1434" d="M760.643,240.351a4.434,4.434,0,0,0,.312,2.012,2.947,2.947,0,0,0,1.053,1.228c.562.374,1.135.733,1.695,1.112a.664.664,0,0,1,.305.723.763.763,0,0,1-.62.613.578.578,0,0,1-.454-.1,14.263,14.263,0,0,1-2.446-1.691,4.28,4.28,0,0,1-1.3-2.833c-.039-.6-.014-1.212-.009-1.818a.677.677,0,0,1,.7-.72.688.688,0,0,1,.761.726C760.648,239.854,760.643,240.1,760.643,240.351Z" transform="translate(-759.156 -238.88)" fill="#fff"/>
        </g>
      </g>
    </g>
  </g>
</svg>
