<?xml version="1.0" encoding="UTF-8" standalone="no"?>
<!DOCTYPE svg PUBLIC "-//W3C//DTD SVG 1.1//EN" "http://www.w3.org/Graphics/SVG/1.1/DTD/svg11.dtd">
<svg width="100%" height="100%" viewBox="0 0 38 54" version="1.1" xmlns="http://www.w3.org/2000/svg" xmlns:xlink="http://www.w3.org/1999/xlink" xml:space="preserve" xmlns:serif="http://www.serif.com/" style="fill-rule:evenodd;clip-rule:evenodd;stroke-linejoin:round;stroke-miterlimit:2;">
    <g transform="matrix(1,0,0,1,0.000245711,2.27374e-13)">
        <g id="Сгруппировать_9822" transform="matrix(1,0,0,1,-808.132,-1169.28)">
            <g id="Контур_3930" transform="matrix(1,0,0,1,2.085,2.082)">
                <path d="M832.367,1186.72C833.43,1186.04 834.047,1184.83 833.979,1183.57C834.01,1182.93 833.851,1182.29 833.524,1181.73C832.74,1180.45 831.672,1179.37 830.402,1178.58C830.247,1178.45 830.019,1178.47 829.885,1178.62C829.192,1179.17 828.48,1179.71 827.766,1180.24C825.797,1181.71 823.677,1182.98 821.721,1184.47C820.396,1185.32 819.228,1186.39 818.266,1187.64C817.113,1189.4 817.105,1190.42 818.521,1191.81C819.463,1192.66 820.543,1193.34 821.714,1193.82C821.91,1193.95 822.164,1193.94 822.353,1193.81C823.635,1192.94 824.934,1192.11 826.204,1191.24C828.3,1189.79 830.3,1188.2 832.367,1186.72Z" style="fill:rgb(79,170,237);fill-rule:nonzero;"/>
            </g>
            <path id="Контур_3931" d="M826.885,1169.28C816.581,1169.33 808.132,1177.82 808.132,1188.13C808.132,1188.16 808.132,1188.19 808.132,1188.22C808.132,1198.11 816.625,1210.86 822.296,1217.06C824.415,1219.38 826.882,1222.5 826.882,1222.5C826.882,1222.5 829.533,1219.36 831.807,1216.98C837.474,1211.03 845.636,1199.09 845.636,1188.23C845.689,1177.88 837.225,1169.33 826.885,1169.28ZM815.85,1184.63C815.36,1184.61 814.971,1184.19 814.971,1183.7C814.971,1183.61 814.985,1183.52 815.012,1183.43C815.039,1183.32 815.074,1183.21 815.112,1183.1C815.37,1182.31 815.73,1182.21 816.36,1182.76C816.53,1182.91 816.491,1183.06 816.407,1183.22C816.357,1183.32 816.258,1183.42 816.371,1183.53C816.484,1183.64 816.616,1183.59 816.733,1183.53C816.976,1183.4 817.198,1183.24 817.391,1183.05C819.226,1181.4 820.766,1179.44 821.943,1177.28C822.043,1177.08 822.159,1177.01 822.351,1177.15C822.363,1177.15 822.377,1177.16 822.389,1177.17C823.204,1177.68 823.257,1177.46 822.77,1178.4C821.943,1179.89 821.198,1181.43 820.54,1183C820.477,1183.17 820.329,1183.36 820.488,1183.52C820.666,1183.7 820.867,1183.54 821.043,1183.47C821.219,1183.39 821.371,1183.29 821.532,1183.2C821.609,1183.15 821.692,1183.11 821.772,1183.17C821.852,1183.24 821.834,1183.33 821.801,1183.41C821.73,1183.66 821.582,1183.88 821.378,1184.04C821.06,1184.26 820.714,1184.44 820.35,1184.57C820.242,1184.62 820.127,1184.64 820.01,1184.64C819.534,1184.64 819.142,1184.25 819.142,1183.77C819.142,1183.71 819.149,1183.65 819.162,1183.59C819.32,1182.91 819.581,1182.25 819.935,1181.65C819.959,1181.6 819.977,1181.55 819.997,1181.5C819.321,1182.15 818.74,1182.85 818.073,1183.48C817.704,1183.84 817.292,1184.16 816.846,1184.42C816.546,1184.6 816.196,1184.67 815.85,1184.63ZM832.626,1203.84C832.137,1203.86 831.647,1203.84 830.961,1203.84C829.965,1204.01 828.949,1203.67 828.261,1202.93C826.969,1201.94 825.572,1201.1 824.097,1200.42C823.916,1200.33 823.694,1200.36 823.549,1200.51C822.365,1201.25 821.412,1202.31 820.797,1203.57C820.717,1203.76 820.517,1203.87 820.311,1203.85C819.864,1203.85 819.418,1203.83 818.971,1203.85C818.62,1203.86 818.499,1203.71 818.579,1203.38C818.82,1202.3 819.351,1201.3 820.114,1200.5C820.476,1200.09 820.878,1199.72 821.314,1199.39C821.527,1199.24 821.598,1199.15 821.304,1198.99C819.657,1198.03 818.527,1196.38 818.228,1194.5C817.743,1192.26 818.032,1189.92 819.048,1187.87C819.428,1187.09 819.951,1186.4 820.59,1185.82C823.332,1183.37 826.259,1181.14 829.346,1179.15C829.608,1178.97 829.859,1178.78 830.128,1178.61C830.397,1178.45 830.38,1178.35 830.11,1178.21C829.303,1177.8 828.505,1177.37 827.703,1176.95C827.635,1176.93 827.568,1176.9 827.503,1176.86C827.413,1176.8 827.265,1176.76 827.315,1176.62C827.361,1176.49 827.508,1176.49 827.615,1176.51C828.406,1176.5 829.197,1176.5 829.988,1176.49C830.581,1176.43 831.175,1176.6 831.652,1176.96C831.767,1177.07 831.92,1177.13 832.079,1177.13C832.255,1177.13 832.423,1177.05 832.54,1176.92C832.919,1176.58 833.427,1176.42 833.931,1176.49C834.622,1176.52 835.313,1176.49 836.005,1176.5C836.145,1176.5 836.321,1176.46 836.395,1176.62C836.469,1176.77 836.308,1176.87 836.215,1176.97C835.723,1177.49 835.183,1177.97 834.602,1178.39C834.371,1178.56 834.356,1178.69 834.594,1178.88C835.507,1179.58 836.272,1180.45 836.842,1181.45C837.288,1182.27 837.554,1183.17 837.622,1184.1C837.719,1185.22 837.713,1186.35 837.604,1187.47C837.466,1189.56 836.399,1191.48 834.699,1192.7C833.223,1193.8 831.656,1194.76 830.157,1195.82C828.858,1196.74 827.552,1197.65 826.237,1198.56C825.931,1198.77 825.99,1198.85 826.298,1198.99C828.623,1199.99 830.746,1201.41 832.562,1203.18C832.646,1203.26 832.726,1203.34 832.8,1203.43C833,1203.68 832.944,1203.83 832.625,1203.84L832.626,1203.84ZM838.757,1196.63C838.549,1198.53 837.294,1200.15 835.514,1200.83C834.76,1201.11 833.926,1201.06 833.208,1200.7C832.944,1200.58 832.636,1200.59 832.382,1200.73C832.075,1200.89 831.728,1200.96 831.382,1200.94C831.052,1200.95 830.767,1200.7 830.734,1200.37C830.664,1200.03 830.901,1199.88 831.161,1199.77C831.464,1199.6 831.803,1199.5 832.15,1199.49C832.636,1199.5 833.079,1199.2 833.261,1198.75C833.798,1197.71 834.404,1196.7 835.075,1195.74C835.208,1195.57 835.342,1195.4 835.475,1195.24C835.811,1194.83 835.96,1194.81 836.414,1195.11C836.607,1195.24 836.669,1195.38 836.514,1195.57C835.654,1196.61 835.192,1197.88 834.414,1198.96C834.249,1199.22 834.058,1199.45 833.845,1199.66C833.628,1199.86 833.726,1199.99 833.963,1200.04C834.433,1200.15 834.929,1200.07 835.332,1199.8C836.779,1198.99 837.629,1197.4 837.51,1195.75C837.497,1195.14 837.093,1194.6 836.51,1194.42C835.95,1194.18 835.301,1194.29 834.855,1194.71C834.569,1194.99 834.288,1195.27 834.026,1195.58C833.662,1196.01 833.426,1195.52 833.15,1195.4C832.896,1195.29 832.917,1195.04 833.085,1194.86C833.843,1194.03 834.626,1193.24 835.844,1193.39C835.913,1193.38 835.982,1193.38 836.052,1193.38C837.561,1193.38 838.803,1194.62 838.803,1196.13C838.803,1196.3 838.787,1196.47 838.757,1196.63Z" style="fill:rgb(79,170,237);fill-rule:nonzero;"/>
        </g>
    </g>
</svg>
