<svg xmlns="http://www.w3.org/2000/svg" width="14.569" height="13.629" viewBox="0 0 14.569 13.629">
  <g id="Сгруппировать_9821" data-name="Сгруппировать 9821" transform="translate(-1164.661 -262.685)">
    <path id="Контур_3914" data-name="Контур 3914" d="M1171.248,276.077h-5.1a1.407,1.407,0,0,1-1.482-1.482q0-4.187,0-8.375a1.4,1.4,0,0,1,1.186-1.41,3.864,3.864,0,0,1,.6-.015c.1,0,.107.063.107.137,0,.279,0,.557,0,.836a.929.929,0,1,0,1.859.012c.006-.273.007-.548,0-.821,0-.131.045-.168.171-.167.518.005,1.036.006,1.555,0,.138,0,.173.048.174.178a6,6,0,0,0,.022.981.92.92,0,0,0,1.814-.019,7.362,7.362,0,0,0,.022-.937c.005-.2,0-.2.206-.2h1.452c.235,0,.232,0,.237.229a6.2,6.2,0,0,0,.02.908.907.907,0,0,0,1.023.774.929.929,0,0,0,.817-.925c.005-.273.007-.547,0-.821,0-.131.046-.17.171-.166a2.435,2.435,0,0,1,.8.084,1.412,1.412,0,0,1,.928,1.317q0,4.231,0,8.462a1.4,1.4,0,0,1-1.425,1.419Q1173.821,276.078,1171.248,276.077Zm0-7.98q-2.728,0-5.456,0c-.13,0-.178.03-.178.17q.006,3.146,0,6.292c0,.39.174.564.565.564h10.105c.412,0,.578-.167.578-.58q0-3.117,0-6.233c0-.211,0-.211-.206-.211Z" transform="translate(0 -1.171)" fill="#fff"/>
    <path id="Контур_3915" data-name="Контур 3915" d="M1173.612,278.432q2.728,0,5.457,0a.978.978,0,0,0,.832-.381,1.039,1.039,0,0,0,.187-.664q0-3.124,0-6.249,0-1.378,0-2.757c0-.194.014-.206.184-.114a1.343,1.343,0,0,1,.769,1.241q.007,4.239,0,8.478a1.4,1.4,0,0,1-1.4,1.4q-5.3,0-10.59,0a1.171,1.171,0,0,1-1.091-.753c-.07-.178-.055-.2.137-.2Z" transform="translate(-1.813 -3.074)" fill="#fff"/>
    <path id="Контур_3916" data-name="Контур 3916" d="M1187.824,263.866c0,.229,0,.459,0,.688a.476.476,0,0,1-.486.494.47.47,0,0,1-.468-.495q0-.688,0-1.376a.46.46,0,0,1,.483-.491.476.476,0,0,1,.471.492C1187.826,263.408,1187.824,263.637,1187.824,263.866Z" transform="translate(-12.35 -0.001)" fill="#fff"/>
    <path id="Контур_3917" data-name="Контур 3917" d="M1170.9,263.881c0,.225,0,.45,0,.675a.471.471,0,0,1-.473.492.477.477,0,0,1-.481-.5q0-.682,0-1.364a.478.478,0,1,1,.954.008C1170.9,263.422,1170.9,263.652,1170.9,263.881Z" transform="translate(-2.939 -0.001)" fill="#fff"/>
    <path id="Контур_3918" data-name="Контур 3918" d="M1178.408,263.867c0-.23,0-.459,0-.689a.477.477,0,1,1,.953-.008q.005.7,0,1.392a.477.477,0,1,1-.953-.007c0-.23,0-.459,0-.689Z" transform="translate(-7.645)" fill="#fff"/>
    <path id="Контур_3919" data-name="Контур 3919" d="M1169.949,279.255c0-.151,0-.3,0-.454a.232.232,0,0,1,.256-.254q.454-.005.909,0a.234.234,0,0,1,.256.257q.007.454,0,.908a.236.236,0,0,1-.258.256q-.454.007-.908,0a.235.235,0,0,1-.255-.258C1169.946,279.558,1169.949,279.407,1169.949,279.255Z" transform="translate(-2.94 -8.82)" fill="#fff"/>
    <path id="Контур_3920" data-name="Контур 3920" d="M1175.96,279.97c-.151,0-.3,0-.454,0a.242.242,0,0,1-.269-.274c0-.293,0-.586,0-.879a.238.238,0,0,1,.272-.269q.439,0,.879,0a.241.241,0,0,1,.271.272q.006.439,0,.879c0,.181-.091.265-.273.272-.073,0-.146,0-.22,0h-.205Z" transform="translate(-5.88 -8.82)" fill="#fff"/>
    <path id="Контур_3921" data-name="Контур 3921" d="M1181.948,279.244c0,.151,0,.3,0,.455a.24.24,0,0,1-.26.269c-.3,0-.605,0-.908,0a.234.234,0,0,1-.253-.259c0-.3,0-.605,0-.908a.231.231,0,0,1,.257-.253c.3,0,.605,0,.908,0a.236.236,0,0,1,.255.257C1181.951,278.951,1181.947,279.1,1181.948,279.244Z" transform="translate(-8.821 -8.82)" fill="#fff"/>
    <path id="Контур_3922" data-name="Контур 3922" d="M1186.532,278.547c.151,0,.3,0,.455,0a.229.229,0,0,1,.245.236q.009.476,0,.953a.225.225,0,0,1-.236.231q-.469.009-.938,0a.231.231,0,0,1-.245-.252c0-.308,0-.616,0-.923a.229.229,0,0,1,.251-.245C1186.22,278.543,1186.376,278.547,1186.532,278.547Z" transform="translate(-11.761 -8.82)" fill="#fff"/>
    <path id="Контур_3923" data-name="Контур 3923" d="M1170.656,274.316c.146,0,.293,0,.439,0a.243.243,0,0,1,.275.269q.006.439,0,.879a.245.245,0,0,1-.27.275q-.439.005-.879,0a.242.242,0,0,1-.273-.27q-.006-.447,0-.893a.238.238,0,0,1,.269-.259c.146,0,.292,0,.439,0Z" transform="translate(-2.939 -6.468)" fill="#fff"/>
    <path id="Контур_3924" data-name="Контур 3924" d="M1175.236,275.012c0-.146,0-.293,0-.439a.235.235,0,0,1,.255-.257q.454-.006.908,0a.235.235,0,0,1,.258.255c.005.3,0,.605,0,.908a.237.237,0,0,1-.256.258q-.454.007-.908,0a.238.238,0,0,1-.257-.256c0-.078,0-.156,0-.234Z" transform="translate(-5.88 -6.467)" fill="#fff"/>
    <path id="Контур_3925" data-name="Контур 3925" d="M1181.233,274.316c.151,0,.3,0,.454,0a.236.236,0,0,1,.258.254q.007.454,0,.908a.237.237,0,0,1-.256.258q-.454.007-.908,0a.234.234,0,0,1-.257-.256c0-.3,0-.605,0-.908a.235.235,0,0,1,.254-.258c.151,0,.3,0,.454,0Z" transform="translate(-8.82 -6.467)" fill="#fff"/>
    <path id="Контур_3926" data-name="Контур 3926" d="M1186.517,274.316c.151,0,.3,0,.454,0a.24.24,0,0,1,.263.266q.006.447,0,.893a.241.241,0,0,1-.267.263q-.447.005-.893,0a.238.238,0,0,1-.261-.267q-.006-.447,0-.893a.238.238,0,0,1,.265-.262c.146,0,.293,0,.439,0Z" transform="translate(-11.761 -6.468)" fill="#fff"/>
    <path id="Контур_3927" data-name="Контур 3927" d="M1170.675,282.776c.142,0,.283,0,.424,0a.241.241,0,0,1,.271.258q.007.453,0,.907a.236.236,0,0,1-.257.257q-.453.007-.907,0a.236.236,0,0,1-.257-.257q-.006-.453,0-.907a.237.237,0,0,1,.257-.257c.156,0,.312,0,.468,0Z" transform="translate(-2.939 -11.173)" fill="#fff"/>
    <path id="Контур_3928" data-name="Контур 3928" d="M1175.948,284.2c-.151,0-.3,0-.454,0a.237.237,0,0,1-.257-.257q-.007-.453,0-.907a.235.235,0,0,1,.256-.257q.453-.007.907,0a.236.236,0,0,1,.257.257q.007.453,0,.907a.237.237,0,0,1-.257.257C1176.25,284.2,1176.1,284.2,1175.948,284.2Z" transform="translate(-5.88 -11.172)" fill="#fff"/>
    <path id="Контур_3929" data-name="Контур 3929" d="M1180.525,283.488c0-.151,0-.3,0-.454a.236.236,0,0,1,.257-.257q.453-.007.907,0a.236.236,0,0,1,.257.257q.007.454,0,.907a.236.236,0,0,1-.257.257q-.453.007-.907,0a.241.241,0,0,1-.258-.271c0-.146,0-.292,0-.439Z" transform="translate(-8.821 -11.172)" fill="#fff"/>
  </g>
</svg>
