<svg xmlns="http://www.w3.org/2000/svg" width="67" height="73.85" viewBox="0 0 67 73.85">
  <g id="Сгруппировать_9767" data-name="Сгруппировать 9767" transform="translate(-9.633 -1616)">
    <g id="Сгруппировать_74" data-name="Сгруппировать 74" transform="translate(9.633 1616)" opacity="0.251">
      <path id="Контур_1450" data-name="Контур 1450" d="M161.643,466.249c-.036.087-.071.173-.106.259a2.089,2.089,0,0,0,.34,2.122l40.508,46.716a1.653,1.653,0,0,0,1.91.473l.24-.1Z" transform="translate(-158.741 -444.451)" fill="#fff"/>
      <path id="Контур_1451" data-name="Контур 1451" d="M163.772,461.932l-.007.013a2.04,2.04,0,0,0,.2,2.325l42.585,49.112a1.607,1.607,0,0,0,2.1.333l.012-.007Z" transform="translate(-158.618 -444.703)" fill="#fff"/>
      <path id="Контур_1452" data-name="Контур 1452" d="M166.362,458.112c-.287.375-.57.751-.845,1.138l45.756,52.77c.364-.283.72-.577,1.073-.874Z" transform="translate(-158.5 -444.927)" fill="#fff"/>
      <path id="Контур_1453" data-name="Контур 1453" d="M159.01,476.763q-.056.537-.1,1.079a2.036,2.036,0,0,0,.483,1.48l32.745,37.764a1.667,1.667,0,0,0,1.321.6c.329-.012.657-.031.983-.054Z" transform="translate(-158.886 -443.837)" fill="#fff"/>
      <path id="Контур_1454" data-name="Контур 1454" d="M160.514,492.046c.362,1.158.779,2.288,1.243,3.391a1.985,1.985,0,0,0,.333.538l14.159,16.33a1.836,1.836,0,0,0,.473.392,31.415,31.415,0,0,0,3.021,1.525Z" transform="translate(-158.792 -442.944)" fill="#fff"/>
      <path id="Контур_1455" data-name="Контур 1455" d="M160.012,471.141q-.079.3-.152.613a2.08,2.08,0,0,0,.438,1.828l37.346,43.071a1.67,1.67,0,0,0,1.64.567q.283-.067.563-.139Z" transform="translate(-158.833 -444.165)" fill="#fff"/>
      <path id="Контур_1456" data-name="Контур 1456" d="M158.887,483.4c.041.594.1,1.182.168,1.768a2.017,2.017,0,0,0,.476,1.086L185.5,516.208a1.715,1.715,0,0,0,.964.574c.528.1,1.059.195,1.6.269Z" transform="translate(-158.887 -443.449)" fill="#fff"/>
      <path id="Контур_1457" data-name="Контур 1457" d="M172.671,451.831q-.551.419-1.085.861l45.923,52.961q.425-.567.831-1.152Z" transform="translate(-158.145 -445.294)" fill="#fff"/>
      <path id="Контур_1458" data-name="Контур 1458" d="M197.765,446.871a1.725,1.725,0,0,0-.939-.569q-.818-.175-1.649-.3l28.513,32.884q-.079-.921-.2-1.827a2.027,2.027,0,0,0-.473-1.058Z" transform="translate(-156.766 -445.635)" fill="#fff"/>
      <path id="Контур_1459" data-name="Контур 1459" d="M206.893,450.628a1.912,1.912,0,0,0-.419-.362,32.2,32.2,0,0,0-3.278-1.79l18.043,20.809a38.635,38.635,0,0,0-1.471-3.687,2.025,2.025,0,0,0-.309-.478Z" transform="translate(-156.298 -445.49)" fill="#fff"/>
      <path id="Контур_1460" data-name="Контур 1460" d="M191.359,446.256a1.673,1.673,0,0,0-1.294-.6q-.514.011-1.024.04l35,40.358q.049-.559.085-1.121a2.035,2.035,0,0,0-.486-1.452Z" transform="translate(-157.125 -445.655)" fill="#fff"/>
      <path id="Контур_1461" data-name="Контур 1461" d="M181.423,448.35a1.646,1.646,0,0,0-1.881-.488l-.274.114,42.671,49.212.117-.3a2.079,2.079,0,0,0-.355-2.09Z" transform="translate(-157.696 -445.533)" fill="#fff"/>
      <path id="Контур_1462" data-name="Контур 1462" d="M177.326,450.4a1.611,1.611,0,0,0-2.088-.344l-.028.016,44.756,51.615h0a2.092,2.092,0,0,0-.22-2.365Z" transform="translate(-157.933 -445.412)" fill="#fff"/>
      <path id="Контур_1463" data-name="Контур 1463" d="M215.559,508.073l-46.237-53.325q-.491.491-.964,1l46.25,53.339Q215.093,508.589,215.559,508.073Z" transform="translate(-158.333 -445.123)" fill="#fff"/>
      <path id="Контур_1464" data-name="Контур 1464" d="M186.042,446.9a1.669,1.669,0,0,0-1.618-.573q-.3.067-.59.138l39.513,45.569q.078-.321.152-.642a2.083,2.083,0,0,0-.445-1.806Z" transform="translate(-157.429 -445.617)" fill="#fff"/>
    </g>
    <circle id="Эллипс_29" data-name="Эллипс 29" cx="22.5" cy="22.5" r="22.5" transform="translate(17 1630)" fill="#65bc29"/>
    <g id="MYrJcL.tif" transform="translate(23.494 1636)">
      <g id="Сгруппировать_17" data-name="Сгруппировать 17">
        <path id="Контур_1354" data-name="Контур 1354" d="M354,260.023a1.918,1.918,0,0,1,0-.205,1.113,1.113,0,0,0-.619-1.289,1.853,1.853,0,0,1-.685-2.3,2,2,0,0,1,3.842.31,1.946,1.946,0,0,1-.981,2.145.655.655,0,0,0-.422.737c.027.443.007.89.007,1.335,0,.462,0,.473.468.513a10.057,10.057,0,0,1,5.472,2.281c.235.2.366.167.557-.04.364-.393.745-.772,1.135-1.14a.48.48,0,0,0,.149-.565,2,2,0,0,1,.731-2.221,2.049,2.049,0,0,1,2.345.005,2,2,0,0,1-.763,3.577,1.687,1.687,0,0,1-1.1-.088.346.346,0,0,0-.447.1c-.409.414-.817.831-1.252,1.216-.211.187-.184.305-.022.5a10.1,10.1,0,0,1,2.078,4.043,11.039,11.039,0,0,1,.277,1.649c.022.218.123.286.334.281.548-.011,1.1-.017,1.643,0a.476.476,0,0,0,.521-.317,1.968,1.968,0,0,1,1.987-1.119,2.027,2.027,0,0,1,1.7,1.353,2,2,0,0,1-1.127,2.493,1.961,1.961,0,0,1-2.52-.9.6.6,0,0,0-.658-.382c-.455.027-.913.007-1.369.007-.492,0-.5,0-.541.475a9.848,9.848,0,0,1-.8,3.063,9.741,9.741,0,0,1-1.508,2.435c-.16.191-.164.309.018.481.415.391.818.8,1.213,1.208a.425.425,0,0,0,.506.128,2.008,2.008,0,1,1,.887,3.9,2.041,2.041,0,0,1-2.214-1.574,1.84,1.84,0,0,1,.093-1.138.326.326,0,0,0-.092-.419c-.436-.436-.872-.871-1.287-1.326-.181-.2-.288-.083-.422.029a10.077,10.077,0,0,1-4.677,2.217c-.358.068-.72.111-1.081.156a.23.23,0,0,0-.231.271c0,.616.011,1.233,0,1.849-.005.23.148.277.3.354a1.99,1.99,0,0,1,.569,3.2,2,2,0,1,1-2.376-3.15.577.577,0,0,0,.37-.629c-.023-.467-.006-.935-.006-1.4s0-.489-.487-.531a9.786,9.786,0,0,1-3.031-.785,9.65,9.65,0,0,1-2.439-1.5c-.2-.166-.32-.186-.506.013-.4.425-.814.832-1.23,1.239a.351.351,0,0,0-.1.418,2.016,2.016,0,1,1-2.055-1.283,1.872,1.872,0,0,1,.875.108.325.325,0,0,0,.42-.1c.4-.408.8-.819,1.216-1.2.217-.2.219-.338.03-.563a9.8,9.8,0,0,1-2.084-4.187c-.109-.477-.178-.963-.239-1.449-.026-.21-.087-.3-.311-.3q-.89.017-1.78,0a.351.351,0,0,0-.357.247,2,2,0,0,1-2.185,1.167,2.008,2.008,0,0,1-.262-3.9,1.948,1.948,0,0,1,2.344.924.666.666,0,0,0,.737.425c.431-.031.867-.007,1.3-.007.509,0,.516,0,.556-.5a9.214,9.214,0,0,1,.386-1.94A9.925,9.925,0,0,1,346.7,264.9c.174-.208.159-.329-.028-.505-.423-.4-.833-.814-1.238-1.231a.355.355,0,0,0-.421-.093,1.941,1.941,0,0,1-2.154-.547,2,2,0,0,1,1.387-3.329,1.976,1.976,0,0,1,1.982,2.633.424.424,0,0,0,.125.531c.4.379.782.768,1.156,1.168.181.194.314.227.536.042a10.045,10.045,0,0,1,4.987-2.254,5.49,5.49,0,0,1,.677-.085c.25-.007.3-.133.293-.351C353.989,260.594,354,260.308,354,260.023Zm.551,20.451a9.045,9.045,0,1,0-9.031-9.134A9.073,9.073,0,0,0,354.549,280.474Zm-9.385-19.266a.845.845,0,0,0-.821-.835.871.871,0,0,0-.837.863.851.851,0,0,0,.828.793A.835.835,0,0,0,345.165,261.208Zm20.469.012a.871.871,0,0,0-.852-.847.844.844,0,0,0-.8.815.833.833,0,0,0,.811.84A.848.848,0,0,0,365.634,261.22Zm-21.291,19.623a.843.843,0,0,0-.837.818.869.869,0,0,0,.829.836.846.846,0,0,0,.829-.827A.835.835,0,0,0,344.343,280.843Zm19.633.811a.843.843,0,0,0,.822.841.866.866,0,0,0,.833-.836.827.827,0,0,0-1.655,0Zm-23.894-9.41a.808.808,0,1,0,.019-1.616.808.808,0,1,0-.019,1.616Zm28.931,0a.808.808,0,1,0,.028-1.615.8.8,0,0,0-.822.816A.774.774,0,0,0,369.013,272.249ZM353.762,256.97a.808.808,0,1,0,1.616-.024.808.808,0,1,0-1.616.024Zm0,28.931a.808.808,0,1,0,1.616.026.808.808,0,1,0-1.616-.026Z" transform="translate(-338.057 -254.924)" fill="#fff"/>
        <path id="Контур_1355" data-name="Контур 1355" d="M637.787,515.274c.337.411.331.775.008,1a.588.588,0,0,1-.835-.171c-.208-.342-.071-.671.4-.914a1.806,1.806,0,0,1-1-.965,1.711,1.711,0,0,1,.019-1.395,1.731,1.731,0,0,1,2.054-.937,1.771,1.771,0,0,1,1.247,1.8A1.753,1.753,0,0,1,637.787,515.274Zm.692-1.711a.578.578,0,0,0-.537-.558.516.516,0,0,0-.521.549.54.54,0,0,0,.539.543A.561.561,0,0,0,638.479,513.564Z" transform="translate(-615.76 -494.202)" fill="#fff"/>
        <path id="Контур_1356" data-name="Контур 1356" d="M553.508,472.082a1.731,1.731,0,1,1,1.73,1.748A1.748,1.748,0,0,1,553.508,472.082Zm2.258.012a.509.509,0,0,0-.518-.518.539.539,0,0,0-.535.547.509.509,0,0,0,.561.507A.5.5,0,0,0,555.766,472.094Z" transform="translate(-538.726 -455.587)" fill="#fff"/>
        <path id="Контур_1357" data-name="Контур 1357" d="M514.313,564.833a1.725,1.725,0,1,1,1.732-1.746A1.73,1.73,0,0,1,514.313,564.833Zm.517-1.711a.582.582,0,0,0-.549-.545.529.529,0,1,0,.021,1.055A.523.523,0,0,0,514.831,563.122Z" transform="translate(-500.61 -540.357)" fill="#fff"/>
        <path id="Контур_1358" data-name="Контур 1358" d="M474.179,439.149a1.747,1.747,0,0,1-1.734,1.711,1.765,1.765,0,0,1-1.728-1.759,1.731,1.731,0,0,1,3.461.049Zm-1.2-.024a.486.486,0,0,0-.5-.523.528.528,0,1,0,.5.523Z" transform="translate(-461.615 -424.88)" fill="#fff"/>
        <path id="Контур_1359" data-name="Контур 1359" d="M595.316,381.228a1.691,1.691,0,0,1,1.734-1.723,1.72,1.72,0,0,1,1.693,1.71,1.745,1.745,0,0,1-1.732,1.75A1.713,1.713,0,0,1,595.316,381.228Zm1.682-.521a.523.523,0,0,0-.527.514.55.55,0,1,0,.527-.514Z" transform="translate(-577.665 -370.957)" fill="#fff"/>
        <path id="Контур_1360" data-name="Контур 1360" d="M657.629,434.418a1.744,1.744,0,0,1,1.739,1.393,1.719,1.719,0,0,1-.946,1.9.606.606,0,0,1-.836-.195.588.588,0,0,1,.256-.84c.279-.162.438-.366.326-.7-.1-.3-.324-.4-.723-.322a.612.612,0,0,1-.769-.437.6.6,0,0,1,.481-.713A1.347,1.347,0,0,1,657.629,434.418Z" transform="translate(-634.799 -422.101)" fill="#fff"/>
        <path id="Контур_1361" data-name="Контур 1361" d="M517.591,379.472a1.763,1.763,0,0,1,1.371-1.79,1.714,1.714,0,0,1,1.911.925.611.611,0,0,1-.2.861.6.6,0,0,1-.835-.285c-.2-.32-.427-.416-.707-.3a.538.538,0,0,0-.3.707.592.592,0,1,1-1.145.289A4,4,0,0,1,517.591,379.472Z" transform="translate(-505.273 -369.219)" fill="#fff"/>
        <path id="Контур_1362" data-name="Контур 1362" d="M594.081,574.67a1.729,1.729,0,0,1-3.29.733.6.6,0,1,1,1.042-.569c.209.329.421.424.7.314.3-.117.385-.325.308-.733a.592.592,0,0,1,.424-.743.584.584,0,0,1,.714.428A1.518,1.518,0,0,1,594.081,574.67Z" transform="translate(-573.373 -551.784)" fill="#fff"/>
        <path id="Контур_1363" data-name="Контур 1363" d="M462.627,510.958a1.737,1.737,0,0,1-1.723-1.345,1.717,1.717,0,0,1,.892-1.926.62.62,0,0,1,.89.2.6.6,0,0,1-.3.83.532.532,0,0,0-.3.68c.1.295.33.4.69.337.431-.078.716.076.794.429s-.128.62-.549.729A1.147,1.147,0,0,1,462.627,510.958Z" transform="translate(-452.431 -490.25)" fill="#fff"/>
        <path id="Контур_1364" data-name="Контур 1364" d="M473.326,488.327a.644.644,0,0,1,.613.6.618.618,0,0,1-.56.584.631.631,0,0,1-.626-.593A.589.589,0,0,1,473.326,488.327Z" transform="translate(-463.511 -472.313)" fill="#fff"/>
        <path id="Контур_1365" data-name="Контур 1365" d="M498.355,417.6a.677.677,0,0,1-.635-.6.592.592,0,0,1,.581-.56.6.6,0,0,1,.612.635A.533.533,0,0,1,498.355,417.6Z" transform="translate(-486.766 -405.358)" fill="#fff"/>
        <path id="Контур_1366" data-name="Контур 1366" d="M648.519,412.2a.508.508,0,0,1-.555.576.581.581,0,0,1-.578-.591.6.6,0,0,1,.605-.606A.553.553,0,0,1,648.519,412.2Z" transform="translate(-626.163 -400.826)" fill="#fff"/>
        <path id="Контур_1367" data-name="Контур 1367" d="M670.325,493.02a.612.612,0,0,1-.645-.607.59.59,0,0,1,.581-.561.608.608,0,0,1,.594.591A.518.518,0,0,1,670.325,493.02Z" transform="translate(-646.927 -475.596)" fill="#fff"/>
        <path id="Контур_1368" data-name="Контур 1368" d="M494.891,558.748a.595.595,0,0,1-1.188-.026.595.595,0,0,1,1.188.026Z" transform="translate(-483.024 -537.353)" fill="#fff"/>
        <path id="Контур_1369" data-name="Контур 1369" d="M591.9,541.047a.59.59,0,0,1-.592.579.592.592,0,1,1,.592-.579Z" transform="translate(-573.382 -520.853)" fill="#fff"/>
        <path id="Контур_1370" data-name="Контур 1370" d="M524.176,505.44a.575.575,0,0,1-.563-.572.581.581,0,0,1,.594-.579.577.577,0,1,1-.031,1.152Z" transform="translate(-510.882 -487.179)" fill="#fff"/>
        <path id="Контур_1371" data-name="Контур 1371" d="M573.085,378.825A.588.588,0,1,1,573.1,380a.6.6,0,0,1-.6-.58A.623.623,0,0,1,573.085,378.825Z" transform="translate(-556.415 -370.324)" fill="#fff"/>
        <path id="Контур_1372" data-name="Контур 1372" d="M617.477,468.97a.57.57,0,1,1-.569-.588A.553.553,0,0,1,617.477,468.97Z" transform="translate(-597.244 -453.736)" fill="#fff"/>
        <path id="Контур_1373" data-name="Контур 1373" d="M555.965,448.2a.625.625,0,0,1-.6.582.613.613,0,0,1-.569-.576.621.621,0,0,1,.581-.6A.633.633,0,0,1,555.965,448.2Z" transform="translate(-539.924 -434.384)" fill="#fff"/>
        <path id="Контур_1374" data-name="Контур 1374" d="M569.733,591.86a.523.523,0,0,1-.544.563.61.61,0,0,1-.585-.6.585.585,0,0,1,.57-.567A.558.558,0,0,1,569.733,591.86Z" transform="translate(-552.786 -568.184)" fill="#fff"/>
      </g>
    </g>
  </g>
</svg>
