<svg xmlns="http://www.w3.org/2000/svg" width="25.003" height="24.997" viewBox="0 0 25.003 24.997">
  <g id="upsGKe.tif" transform="translate(-789.591 -164.92)">
    <g id="Сгруппировать_9627" data-name="Сгруппировать 9627" transform="translate(789.591 164.92)">
      <path id="Контур_3859" data-name="Контур 3859" d="M802.246,164.92h.391a2.093,2.093,0,0,1,.353.335c.723.89,1.452,1.774,2.167,2.671a.349.349,0,0,0,.456.13c.992-.34,1.988-.67,2.985-1,.515-.169.826.03.888.566.133,1.147.268,2.293.389,3.441a.4.4,0,0,0,.358.408c1.018.251,2.032.52,3.046.788a.593.593,0,0,1,.418.932c-.509,1.046-1.017,2.092-1.535,3.133a.387.387,0,0,0,.079.519c.233.226.448.471.667.712q.845.929,1.688,1.86v.391a.936.936,0,0,1-.4.41c-.983.591-1.96,1.192-2.945,1.778a.356.356,0,0,0-.2.433c.193,1.031.372,2.064.552,3.1.1.57-.128.843-.7.829q-1.731-.042-3.461-.1a.349.349,0,0,0-.383.255c-.4.987-.816,1.968-1.224,2.952a.623.623,0,0,1-.524.449.766.766,0,0,1-.516-.185c-.959-.658-1.919-1.313-2.874-1.977a.285.285,0,0,0-.389,0c-.293.219-.6.421-.9.63-.594.414-1.184.833-1.782,1.24a.571.571,0,0,1-.925-.245c-.08-.169-.15-.343-.222-.515-.393-.937-.787-1.874-1.176-2.813a.32.32,0,0,0-.353-.23c-.235.016-.471.014-.707.021l-2.583.083a.563.563,0,0,1-.534-.28.8.8,0,0,1-.047-.571c.192-1.13.381-2.261.585-3.389a.36.36,0,0,0-.2-.436q-1.366-.806-2.72-1.63a.6.6,0,0,1-.149-1.031c.781-.862,1.558-1.727,2.346-2.581a.378.378,0,0,0,.068-.5c-.468-.921-.923-1.848-1.383-2.772-.264-.53-.112-.869.463-1.022q1.662-.442,3.325-.88c.15-.039.266-.081.285-.273.107-1.051.229-2.1.338-3.152.067-.648.346-.842.971-.641,1.076.346,2.151.694,3.222,1.056a.37.37,0,0,0,.478-.144c.592-.755,1.194-1.5,1.794-2.251A1.658,1.658,0,0,1,802.246,164.92Zm3.889,7.874a.67.67,0,0,0-.489-.655.745.745,0,0,0-.825.326l-6.49,8.943a1.514,1.514,0,0,0-.238.451.635.635,0,0,0,.216.7.691.691,0,0,0,1.042-.171c.708-.963,1.4-1.935,2.106-2.9q2.236-3.079,4.475-6.156A.849.849,0,0,0,806.135,172.794Zm-.884,9.945a2.66,2.66,0,0,0,.071-5.311,2.553,2.553,0,0,0-2.539,2.5A2.513,2.513,0,0,0,805.251,182.74ZM798.924,172.1a2.485,2.485,0,0,0-2.525,2.519,2.517,2.517,0,0,0,2.506,2.789,2.558,2.558,0,0,0,2.507-2.542A2.488,2.488,0,0,0,798.924,172.1Z" transform="translate(-789.591 -164.92)" fill="#fff"/>
      <path id="Контур_3860" data-name="Контур 3860" d="M1092.2,449.314a1.32,1.32,0,0,1-.207.793.848.848,0,0,1-1.487.014,1.706,1.706,0,0,1-.063-1.746.851.851,0,0,1,1.487-.1A1.509,1.509,0,0,1,1092.2,449.314Z" transform="translate(-1075.533 -434.048)" fill="#fff"/>
      <path id="Контур_3861" data-name="Контур 3861" d="M960.068,339.832a1.524,1.524,0,0,1,.294-1.03.85.85,0,0,1,1.35.031,1.8,1.8,0,0,1,.079,1.89.855.855,0,0,1-1.451.029A1.5,1.5,0,0,1,960.068,339.832Z" transform="translate(-951.729 -329.996)" fill="#fff"/>
    </g>
  </g>
</svg>
