<svg xmlns="http://www.w3.org/2000/svg" xmlns:xlink="http://www.w3.org/1999/xlink" width="15.119" height="11.982" viewBox="0 0 15.119 11.982">
  <defs>
    <clipPath id="clip-path">
      <rect id="Прямоугольник_2191" data-name="Прямоугольник 2191" width="15.119" height="11.982" fill="#fff"/>
    </clipPath>
  </defs>
  <g id="Сгруппировать_9392" data-name="Сгруппировать 9392" clip-path="url(#clip-path)">
    <path id="Контур_3739" data-name="Контур 3739" d="M14.451,2.566a2.756,2.756,0,0,0-3.079-1.419,6.32,6.32,0,0,0-2.8,1.389.378.378,0,0,0-.054.055.419.419,0,0,0,.2.677.44.44,0,0,0,.415-.105c.2-.153.411-.3.644-.472A1.707,1.707,0,0,1,9.8,2.87a.977.977,0,0,1-.738.945.972.972,0,0,1-.87-1.674,6.847,6.847,0,0,1,3.036-1.5c.129-.028.261-.038.417-.06-.042-.062-.067-.105-.1-.144A.959.959,0,0,0,10.8.089C9.894.059,8.987.016,8.081,0A2.045,2.045,0,0,0,6.552.606Q3.406,3.769.274,6.947a.871.871,0,0,0,0,1.269q1.714,1.738,3.434,3.47a.851.851,0,0,0,1.289,0q3.134-3.165,6.264-6.335a2.124,2.124,0,0,0,.6-1.592c-.013-.563-.033-1.125-.058-1.687-.005-.123.042-.151.15-.151a1.862,1.862,0,0,1,1.382.557,3.208,3.208,0,0,1,.708,1.161c.1.275.186.559.284.857l.8-.2a5.98,5.98,0,0,0-.669-1.737" transform="translate(0 0)" fill="#fff"/>
  </g>
</svg>
