<svg xmlns="http://www.w3.org/2000/svg" width="27.187" height="34.634" viewBox="0 0 27.187 34.634">
	<g id="iZaKBk.tif" transform="translate(-709.223 -234.42)">
		<g id="Сгруппировать_15" data-name="Сгруппировать 15" transform="translate(709.223 234.42)">
			<path id="Контур_1341" data-name="Контур 1341" d="M719.464,264.742c-.255-1.055-.456-2.1-.764-3.108a1.978,1.978,0,0,0-2.9-1.228,2.036,2.036,0,0,0-1.033,2.36c.177.812.373,1.62.556,2.43.048.214.091.314.338.146a.822.822,0,0,1,1.042.061,1.1,1.1,0,0,1,.362,1.109.845.845,0,0,1-.74.7.607.607,0,0,1-.356-.02,1.076,1.076,0,0,0-.669-.042.584.584,0,0,1-.785-.485c-.3-1.252-.656-2.5-.868-3.767a3.046,3.046,0,0,1,1.541-3.444c.136-.075.227-.146.193-.335a10.436,10.436,0,0,0-.633-2.331c-.175-.4-.222-.417-.556-.156a7.523,7.523,0,0,0-3.039,4.677,5.209,5.209,0,0,0-.057.9c0,1.772,0,3.545,0,5.317a.82.82,0,0,0,.192.592.55.55,0,0,1-.4.912,6.515,6.515,0,0,1-1.155,0,.517.517,0,0,1-.509-.519.5.5,0,0,1,.413-.559c.3-.042.3-.218.3-.432,0-1.64.01-3.28,0-4.919a8.1,8.1,0,0,1,2.816-6.224,13.117,13.117,0,0,1,5.748-2.985c.058-.015.117-.029.174-.048a.484.484,0,0,0,.087-.062c-.292-.231-.585-.449-.862-.684a6.654,6.654,0,0,1-1.934-2.75.665.665,0,0,0-.555-.468,1.939,1.939,0,0,1-1.642-2.2,1.871,1.871,0,0,1,1.347-1.633.439.439,0,0,0,.338-.469,14.671,14.671,0,0,1,.185-1.975,8.945,8.945,0,0,0,.019-1.441c0-1.29.012-2.58-.012-3.87a1.553,1.553,0,0,1,.5-1.22,7.625,7.625,0,0,1,4.3-1.977,13.087,13.087,0,0,1,5.237.2,6.147,6.147,0,0,1,3.168,1.709,1.731,1.731,0,0,1,.493,1.271c-.022,1.663-.016,3.327-.01,4.991a4.036,4.036,0,0,0,.1.641,9.619,9.619,0,0,1,.131,1.944.437.437,0,0,0,.367.512,2,2,0,0,1,1.454,1.863,2.053,2.053,0,0,1-1.367,1.9.931.931,0,0,1-.418.095c-.406-.058-.564.157-.705.494a6.786,6.786,0,0,1-2.337,2.841c-.1.07-.191.139-.285.206.046.138.16.113.246.135a13.132,13.132,0,0,1,5.334,2.637,8.239,8.239,0,0,1,3.213,6.625c-.019,1.6.011,3.207-.007,4.81,0,.377.126.5.481.455a2.074,2.074,0,0,1,.361,0,.549.549,0,0,1,.126,1.076,1.4,1.4,0,0,1-.393.041q-11.34,0-22.679,0a1.916,1.916,0,0,1-.36-.019.54.54,0,0,1-.479-.583.525.525,0,0,1,.549-.515c.6-.011,1.206-.008,1.809-.008q9.495,0,18.99.007c.326,0,.441-.082.438-.424-.015-1.676-.029-3.352,0-5.027a6.921,6.921,0,0,0-2.474-5.335c-.169-.158-.3-.2-.468.024a9.309,9.309,0,0,0-1.229,2.526c-.076.226.072.328.2.455a2.526,2.526,0,0,1-2.351,4.295,2.413,2.413,0,0,1-1.868-2.034,2.48,2.48,0,0,1,2.49-2.94.491.491,0,0,0,.552-.383,9.088,9.088,0,0,1,1.323-2.639c.13-.169.091-.272-.078-.376a13.449,13.449,0,0,0-4.034-1.641c-.25-.058-.312.08-.39.256q-1.17,2.645-2.347,5.287c-.02.044-.036.089-.056.134-.112.257-.267.472-.578.47a.634.634,0,0,1-.583-.463q-1-2.246-2.006-4.488c-.153-.341-.307-.681-.455-1.024a.3.3,0,0,0-.4-.195,13.491,13.491,0,0,0-3.358,1.2c-.153.079-.3.155-.173.383a8.554,8.554,0,0,1,.848,2.674c.051.261.141.361.415.373a3.041,3.041,0,0,1,2.942,2.349c.333,1.245.612,2.5.9,3.759.107.46-.007.646-.463.83a.5.5,0,0,0-.26.227.9.9,0,0,1-1.186.465,1.121,1.121,0,0,1-.585-1.177.915.915,0,0,1,1-.752C719.284,264.743,719.353,264.742,719.464,264.742Zm8.926-18.762a19.985,19.985,0,0,0-.075-2.235c-.078-.446-.1-.453-.555-.442-.672.015-1.346.028-2.017,0a2.247,2.247,0,0,0-1.576.439,10.076,10.076,0,0,1-2.861,1.442,13.218,13.218,0,0,1-4.29.707c-.192,0-.41-.035-.407.265a16.283,16.283,0,0,0,.031,1.841,5.913,5.913,0,0,0,6.138,5.2,5.993,5.993,0,0,0,5.464-4.545A15.077,15.077,0,0,0,728.391,245.98Zm-5.9-3.8c1.759,0,3.518,0,5.277,0,.294,0,.4-.089.4-.392-.012-1.349-.008-2.7,0-4.048a.7.7,0,0,0-.211-.514,4.284,4.284,0,0,0-1.8-1.1,11.778,11.778,0,0,0-5.6-.4,6.742,6.742,0,0,0-3.418,1.439.772.772,0,0,0-.329.642c.012,1.289,0,2.578,0,3.867,0,.493,0,.5.509.5Q719.9,242.178,722.489,242.176Zm.088,16.45,2.048-4.613a7.2,7.2,0,0,1-4.089.046Zm4.229,3.366a1.34,1.34,0,0,0,1.391,1.387,1.389,1.389,0,0,0,1.4-1.394,1.409,1.409,0,0,0-1.405-1.4A1.393,1.393,0,0,0,726.806,261.992Zm-4.129-18.681c-.3,0-.526,0-.751,0-.6,0-1.2.012-1.8.013-.876,0-1.753-.02-2.628.01-.25.009-.589-.21-.752.122a2.484,2.484,0,0,0-.137.848c-.033.323.1.414.41.417a11.548,11.548,0,0,0,3.416-.467A9.221,9.221,0,0,0,722.676,243.311Zm7.551,4.449a.848.848,0,0,0-.407-.719c-.17-.1-.261-.076-.27.144-.012.311-.051.621-.061.932,0,.145-.161.349.014.423s.355-.092.493-.227A.9.9,0,0,0,730.228,247.76Zm-14.738.055c-.017-.322-.031-.62-.05-.918,0-.068.014-.167-.073-.18a.3.3,0,0,0-.188.078.828.828,0,0,0-.148,1.126c.094.128.219.28.371.242C715.58,248.118,715.452,247.916,715.49,247.815Z" transform="translate(-709.224 -234.42)" fill="#fff" />
			<path id="Контур_1342" data-name="Контур 1342" d="M861.866,261.116c0,.918-.193,1.134-1.117,1.227-.209.021-.251.121-.264.3-.055.83-.324,1.08-1.154,1.078a2.216,2.216,0,0,1-.682-.035.918.918,0,0,1-.638-.944c0-.287-.081-.4-.389-.406a.909.909,0,0,1-1-1.016c0-.157,0-.313,0-.47a.893.893,0,0,1,.958-.984c.339,0,.426-.121.431-.442a.89.89,0,0,1,.991-.948q.253,0,.506,0a.91.91,0,0,1,.978.964c.006.183-.054.387.253.42C861.687,259.962,861.869,260.176,861.866,261.116Zm-2.893.964c0,.12,0,.241,0,.362-.01.2.051.321.282.317.211,0,.268-.114.265-.3,0-.253,0-.506,0-.759-.006-.227.094-.333.324-.327.253.007.506,0,.759,0,.184,0,.3-.051.3-.263,0-.23-.113-.29-.315-.285-.253.006-.506,0-.759,0-.213,0-.308-.1-.3-.307,0-.253-.006-.506,0-.759,0-.2-.056-.32-.286-.315-.213,0-.266.117-.262.3,0,.265,0,.53,0,.8a.247.247,0,0,1-.286.286c-.253,0-.506,0-.76,0-.186,0-.331.019-.336.264-.005.265.15.293.351.284.108,0,.217,0,.326,0C858.97,261.37,858.97,261.37,858.972,262.081Z" transform="translate(-845.937 -256.735)" fill="#4faaed" />
		</g>
	</g>
</svg>
