<svg xmlns="http://www.w3.org/2000/svg" width="34.272" height="21.71" viewBox="0 0 34.272 21.71">
  <g id="GhG7y3.tif" transform="translate(-651.964 -318.355)">
    <g id="Сгруппировать_65" data-name="Сгруппировать 65" transform="translate(651.964 318.355)">
      <path id="Контур_1435" data-name="Контур 1435" d="M669.482,325.308c.271-.4.457-.791.733-1.121a3.255,3.255,0,0,1,.8-.739c.221-.132.188-.243.117-.462a3.785,3.785,0,0,1,.267-3.41,2.656,2.656,0,0,1,4.654.343,3.937,3.937,0,0,1,.067,3.182c-.047.118-.079.209.044.3a7.031,7.031,0,0,1,2.42,3.787,20.077,20.077,0,0,1,.616,2.342c.142.692.239.755.938.74.252-.006.311-.064.226-.321a2.208,2.208,0,0,1,.525-2.368,2.047,2.047,0,0,1,3.426.887,2.361,2.361,0,0,1-.083,1.666c-.049.117-.128.231.062.3a2.611,2.611,0,0,1,1.781,2.5c.041.521.164,1.034.164,1.56,0,.441-.2.686-.571.708a.6.6,0,0,1-.661-.626c-.047-.625-.154-1.242-.22-1.863a1.248,1.248,0,0,0-.85-1.092,2.942,2.942,0,0,0-.832-.182.707.707,0,0,1-.7-.449.783.783,0,0,1,.327-.924,1.019,1.019,0,0,0,.416-1.168.847.847,0,0,0-.921-.693.941.941,0,0,0-.76.961,1.085,1.085,0,0,0,.466.905.73.73,0,0,1,.327.889.656.656,0,0,1-.71.473c-.273,0-.431.076-.434.382a42.794,42.794,0,0,0,.469,6.766,1.75,1.75,0,0,0,.049.174.723.723,0,0,0,.07-.425c0-1.013,0-2.027,0-3.04a.655.655,0,0,1,.534-.725c.414-.055.706.225.709.71.008,1.025,0,2.049.005,3.074a.535.535,0,0,0,.066.384,3.2,3.2,0,0,0,.175-1.041,31.09,31.09,0,0,0,.078-4.465c-.036-.637.174-.948.6-.961.368-.011.629.343.643.931a34.048,34.048,0,0,1-.2,5.552,1.353,1.353,0,0,1-1.473,1.3c-.365,0-.73.008-1.094,0a1.272,1.272,0,0,1-1.376-1.149c-.187-1.065-.292-2.141-.379-3.218-.085-1.043-.133-2.089-.135-3.136,0-.25.026-.5.046-.749.014-.179-.045-.277-.24-.291-1.029-.072-1.467-.729-1.669-1.651a17.566,17.566,0,0,0-.926-3.174,6.726,6.726,0,0,0-.932-1.623,2.23,2.23,0,0,0-1.647-.918c-.377-.023-.588-.31-.591-.743a.66.66,0,0,1,.576-.724c.614-.083.646-.109.647-.719a3.76,3.76,0,0,0-.091-1.253,1.462,1.462,0,0,0-2.876.251,5.945,5.945,0,0,0-.006,1.194.514.514,0,0,0,.515.527c.52.059.655.236.647.8-.007.464-.159.629-.664.675a2.206,2.206,0,0,0-1.638,1.055,9.521,9.521,0,0,0-1.324,3.417c-.056.244-.1.491-.148.736a.647.647,0,0,1-.677.588.632.632,0,0,1-.565-.694c-.01-1.082-.024-2.164,0-3.245a1.562,1.562,0,0,0-.972-1.541,5.386,5.386,0,0,0-1.85-.448c-.312-.035-.558-.122-.654-.445a.858.858,0,0,1,.29-.976,1.845,1.845,0,0,0-.012-2.686,1.315,1.315,0,0,0-1.354-.19,1.439,1.439,0,0,0-.892,1.205,2.358,2.358,0,0,0,.085,1.081,1.006,1.006,0,0,0,.438.586.788.788,0,0,1,.332.893.673.673,0,0,1-.665.531,5.633,5.633,0,0,0-1.791.411,1.584,1.584,0,0,0-1.038,1.431c-.052,1.036-.01,2.071-.034,3.107a2.573,2.573,0,0,1-.784,1.869,2.066,2.066,0,0,1-1.043.551,7.213,7.213,0,0,1-1.941.037.572.572,0,0,1-.54-.493.686.686,0,0,1,.246-.792,1.1,1.1,0,0,0,.544-.825.986.986,0,0,0-.521-1.028.751.751,0,0,0-.857.141,1.057,1.057,0,0,0-.249,1.164,1.019,1.019,0,0,0,.42.522.672.672,0,0,1,.316.765.621.621,0,0,1-.573.551,2.007,2.007,0,0,0-1.586,1.157c-.161.288-.31.583-.466.874a.623.623,0,0,1-.822.343.613.613,0,0,1-.3-.839,4.756,4.756,0,0,1,1.834-2.4c.214-.121.137-.238.07-.389a2.281,2.281,0,0,1,.143-2.222,2.04,2.04,0,0,1,2.147-.946,2.22,2.22,0,0,1,1.615,1.6,2.25,2.25,0,0,1-.045,1.344c-.086.221.015.259.205.246a1.127,1.127,0,0,0,.918-.935,7.507,7.507,0,0,0,.059-1.189c.022-.637.009-1.275.007-1.913a2.822,2.822,0,0,1,1.952-2.932,3.055,3.055,0,0,1,.616-.2c.328-.058.392-.178.271-.506a3.2,3.2,0,0,1,.128-2.741,2.6,2.6,0,0,1,2.915-1.332,2.736,2.736,0,0,1,2.025,2.4,3.518,3.518,0,0,1-.261,1.834c-.09.191-.032.259.161.3a4.3,4.3,0,0,1,1.48.6A2.867,2.867,0,0,1,669.482,325.308Z" transform="translate(-651.963 -318.355)" fill="#fff"/>
      <path id="Контур_1436" data-name="Контур 1436" d="M905.177,439.481c-.3,0-.593,0-.889,0a1.9,1.9,0,0,1-1.864-1.669,19.286,19.286,0,0,1-.2-3.333c.009-.353-.1-.5-.465-.543a1.317,1.317,0,0,1-1.184-1.66,33.327,33.327,0,0,1,2.045-6.571c.209-.464.551-.636.908-.458a.6.6,0,0,1,.277.838,28.872,28.872,0,0,0-1.661,4.907c-.124.461-.219.93-.339,1.392-.061.234.018.336.254.368a23.512,23.512,0,0,0,6.162.005c.274-.035.348-.149.283-.408a37.269,37.269,0,0,0-1.963-6.206.631.631,0,0,1,.263-.9c.327-.16.659-.024.851.387a24.355,24.355,0,0,1,1.333,3.724c.254.9.489,1.8.717,2.7a1.393,1.393,0,0,1-1.239,1.9.351.351,0,0,0-.349.4c-.012,1.1-.069,2.2-.189,3.3a1.919,1.919,0,0,1-2,1.827Zm-.631-3.259q0-.341,0-.682c0-.227.006-.455,0-.682-.025-.726.17-.7-.76-.711-.24,0-.319.1-.32.329a21.831,21.831,0,0,0,.162,3.059.847.847,0,0,0,.338.607.492.492,0,0,0,.456.069c.173-.057.123-.225.124-.353C904.549,437.313,904.546,436.768,904.546,436.222Zm1.251-.054h0c0,.579,0,1.159,0,1.738,0,.3.125.389.409.3a.648.648,0,0,0,.466-.572,21.543,21.543,0,0,0,.194-2.748c.02-.89.063-.715-.74-.734-.255-.006-.338.1-.333.345C905.805,435.055,905.8,435.612,905.8,436.168Z" transform="translate(-883.501 -417.854)" fill="#fff"/>
      <path id="Контур_1437" data-name="Контур 1437" d="M788.332,435.071q0-2.886,0-5.772c0-.469.234-.77.588-.765a.689.689,0,0,1,.651.771c.008,1.765.008,3.529.008,5.294,0,2.027,0,4.053-.008,6.08,0,.7.451.729.913.674.215-.025.173-.21.174-.35,0-.922,0-1.844,0-2.767q0-1.691,0-3.382a1.207,1.207,0,0,1,.032-.338.6.6,0,0,1,.571-.463.575.575,0,0,1,.578.4,1.237,1.237,0,0,1,.073.5q0,2.955,0,5.909c0,.221-.088.5.315.5.49,0,.716-.126.756-.492a2.258,2.258,0,0,0,0-.239q0-5.619,0-11.237a1.815,1.815,0,0,1,.017-.34.593.593,0,0,1,.563-.512.547.547,0,0,1,.614.431,1.454,1.454,0,0,1,.051.4q.006,5.67,0,11.34a1.814,1.814,0,0,1-1.9,1.893c-.741,0-1.482,0-2.223,0a1.748,1.748,0,0,1-1.787-1.8Q788.329,437.94,788.332,435.071Z" transform="translate(-778.986 -420.983)" fill="#fff"/>
      <path id="Контур_1438" data-name="Контур 1438" d="M663.811,517.557h1.3c.478,0,.489-.013.322-.444a12.188,12.188,0,0,0-.942-2.005.623.623,0,0,1,.035-.815.593.593,0,0,1,1,.144,12.98,12.98,0,0,1,1.147,2.473A10.343,10.343,0,0,1,667,517.95a.608.608,0,0,1-.577.843c-.226.027-.29.121-.284.326.017.66-.029,1.318-.057,1.978a1.156,1.156,0,0,1-1,1.2,8.971,8.971,0,0,1-2.485-.01,1.149,1.149,0,0,1-.936-1,13.49,13.49,0,0,1-.058-2.079c0-.279-.061-.4-.376-.411a.6.6,0,0,1-.61-.86,14.479,14.479,0,0,1,1.492-3.4.635.635,0,0,1,.921-.3.6.6,0,0,1,.145.921,13.179,13.179,0,0,0-1.016,2.083c-.1.249-.046.325.216.319C662.854,517.549,663.333,517.557,663.811,517.557Zm1.069,2.361h.011c0-.272,0-.543,0-.815,0-.159-.015-.3-.231-.294s-.221.152-.221.305q0,.849,0,1.7c0,.142,0,.28.2.282s.239-.131.239-.294Q664.88,520.36,664.881,519.919Zm-2.028.026h.009c0,.307,0,.614,0,.921,0,.125.034.227.19.226.134,0,.179-.084.179-.2,0-.613,0-1.226,0-1.839,0-.122-.052-.227-.2-.231-.164,0-.174.119-.176.235C662.85,519.353,662.852,519.649,662.852,519.944Z" transform="translate(-659.983 -500.663)" fill="#fff"/>
    </g>
  </g>
</svg>
