<svg id="Сгруппировать_88" data-name="Сгруппировать 88" xmlns="http://www.w3.org/2000/svg" width="5.376" height="11.652" viewBox="0 0 5.376 11.652">
  <path id="Контур_46" data-name="Контур 46" d="M118.25,52.157c.193.006.386.014.579.016.078,0,.116.017.115.106,0,.6,0,1.191,0,1.786,0,.026-.005.052-.009.093h-.146c-.368,0-.735,0-1.1,0a.482.482,0,0,0-.544.5c-.017.42,0,.841,0,1.279h1.835l-.209,2.043h-1.627V63.81h-2.39c0-.041-.013-.083-.013-.124q0-2.765,0-5.53v-.171H113.6V55.938h1.137c0-.058,0-.1,0-.147.005-.493-.018-.988.023-1.478a2.118,2.118,0,0,1,1.277-1.931,4.885,4.885,0,0,1,.8-.2c.047-.011.1-.018.143-.026Z" transform="translate(-113.595 -52.157)" fill="#fff"/>
</svg>
