<svg xmlns="http://www.w3.org/2000/svg" width="30.5" height="27.136" viewBox="0 0 30.5 27.136">
  <g id="LQHHkl.tif" transform="translate(-683.55 -283.385)">
    <g id="Сгруппировать_59" data-name="Сгруппировать 59" transform="translate(683.55 283.385)">
      <path id="Контур_1420" data-name="Контур 1420" d="M698.792,310.52q-6.488,0-12.976,0a2.162,2.162,0,0,1-2.265-2.258q0-8.163,0-16.326a2.212,2.212,0,0,1,2.309-2.312c1.928-.008,3.855,0,5.783,0,.51,0,.51,0,.523-.493a1.486,1.486,0,0,1,1.427-1.579,16.972,16.972,0,0,1,1.8-.03c.273,0,.339-.079.292-.351a3.177,3.177,0,0,1,2.6-3.74,3.21,3.21,0,0,1,3.681,2.7,2.971,2.971,0,0,1-.01.983c-.07.4-.07.4.353.406a14.572,14.572,0,0,1,1.8.04,1.494,1.494,0,0,1,1.337,1.518c.015.547.015.548.576.548,1.9,0,3.808-.005,5.712,0a2.218,2.218,0,0,1,2.28,1.769,2.737,2.737,0,0,1,.044.56q0,8.163,0,16.326a2.148,2.148,0,0,1-2.244,2.238q-6.506,0-13.012,0Zm0-1.509h12.868c.672,0,.884-.211.884-.886q0-8.056,0-16.111c0-.586-.229-.842-.814-.875-.3-.017-.61.022-.915.021-1.618-.008-3.237-.021-4.855-.03-.512,0-.512,0-.522.523a1.49,1.49,0,0,1-1.6,1.585q-5.041,0-10.083,0a1.712,1.712,0,0,1-.488-.05,1.53,1.53,0,0,1-1.105-1.577c-.009-.482-.009-.485-.493-.481-.692.007-1.384.028-2.075.026-1.208,0-2.416-.027-3.624-.022-.666,0-.911.268-.912.925q0,8,0,16.005c0,.749.194.945.933.945Zm-.011-17.28c1.585,0,3.171-.007,4.756.006.311,0,.411-.1.4-.406q-.029-.933,0-1.867c.01-.311-.1-.411-.4-.406-.892.015-1.785,0-2.678.005a1.678,1.678,0,0,1-.523-.058.735.735,0,0,1-.43-1.1,3.423,3.423,0,0,1,.231-.31,1.678,1.678,0,0,0-1.589-2.669,1.682,1.682,0,0,0-1.355,1.231,1.662,1.662,0,0,0,.392,1.571.77.77,0,0,1,.162.878.834.834,0,0,1-.777.455c-.105.008-.211,0-.317,0-.857,0-1.715.01-2.572,0-.3-.005-.423.081-.412.4.021.622.025,1.245,0,1.867-.013.339.12.415.43.413C695.654,291.726,697.216,291.732,698.778,291.732Z" transform="translate(-683.55 -283.385)" fill="#fff"/>
      <path id="Контур_1421" data-name="Контур 1421" d="M736.519,464.726c-1.164,0-2.327,0-3.491,0a1.59,1.59,0,0,1-1.7-1.69,3.449,3.449,0,0,1,2.116-3.5c.621-.3.614-.317.34-.929a3.046,3.046,0,1,1,5.836-1.26,2.931,2.931,0,0,1-.417,1.58c-.133.218-.1.316.122.43a5.01,5.01,0,0,1,1.679,1.2,3.632,3.632,0,0,1,.685,2.964,1.512,1.512,0,0,1-1.537,1.205C738.94,464.732,737.729,464.726,736.519,464.726Zm0-1.508c1.092,0,2.185-.012,3.277.007.347.006.432-.116.436-.446a1.864,1.864,0,0,0-1.1-1.815c-.532-.274-1.053-.57-1.576-.862-.677-.378-.729-.946-.135-1.429.055-.044.114-.084.167-.13a1.535,1.535,0,0,0-1.486-2.612,1.5,1.5,0,0,0-1.048,1.221,1.539,1.539,0,0,0,.672,1.528c.6.486.548,1.041-.137,1.417-.556.306-1.111.612-1.674.9a1.865,1.865,0,0,0-1.083,1.823c0,.311.1.405.408.4C734.333,463.209,735.425,463.219,736.518,463.219Z" transform="translate(-727.946 -442.254)" fill="#fff"/>
      <path id="Контур_1422" data-name="Контур 1422" d="M940.657,516.162c1.2,0,2.4,0,3.6,0,.544,0,.851.262.86.715a.768.768,0,0,1-.851.786q-3.649.011-7.3,0a.774.774,0,0,1-.832-.771.758.758,0,0,1,.858-.731Q938.824,516.159,940.657,516.162Z" transform="translate(-918.284 -499.713)" fill="#fff"/>
      <path id="Контур_1423" data-name="Контур 1423" d="M940.673,467.326q1.8,0,3.595,0a.8.8,0,0,1,.752.366.752.752,0,0,1-.74,1.141c-1.386.007-2.772,0-4.159,0-1.01,0-2.021,0-3.031,0-.583,0-.949-.3-.941-.764s.369-.741.929-.743Q938.876,467.323,940.673,467.326Z" transform="translate(-918.3 -454.327)" fill="#fff"/>
      <path id="Контур_1424" data-name="Контур 1424" d="M939.4,565.894q-1.11,0-2.219,0a1.519,1.519,0,0,1-.521-.071.709.709,0,0,1-.512-.686.725.725,0,0,1,.51-.724,1.582,1.582,0,0,1,.521-.07c1.491,0,2.983,0,4.474,0,.634,0,1.034.295,1.046.755s-.4.79-1.045.793c-.752,0-1.5,0-2.255,0Z" transform="translate(-918.299 -544.491)" fill="#fff"/>
    </g>
  </g>
</svg>
