<svg xmlns="http://www.w3.org/2000/svg" width="23.445" height="28.027" viewBox="0 0 23.445 28.027">
  <g id="QuKFW1.tif" transform="translate(-685.427 -224.177)">
    <g id="Сгруппировать_62" data-name="Сгруппировать 62" transform="translate(685.427 224.177)">
      <path id="Контур_1428" data-name="Контур 1428" d="M685.829,252.2a.8.8,0,0,1-.4-.78c.005-2.187.011-4.375-.005-6.562a.879.879,0,0,1,.47-.845c1.066-.65,2.16-1.251,3.243-1.871q2.111-1.209,4.236-2.393a.44.44,0,0,0,.258-.455q-.022-.738,0-1.476a.643.643,0,0,0-.213-.527,4.634,4.634,0,0,1-1.125-1.662.525.525,0,0,0-.446-.363,3.534,3.534,0,0,1-1.53-6.275,1.016,1.016,0,0,0,.308-.4,6.744,6.744,0,0,1,5.688-4.354,6.9,6.9,0,0,1,7.32,4.273,1.246,1.246,0,0,0,.4.536,3.519,3.519,0,0,1,.322,5.183.629.629,0,0,0-.191.482c.011.565.005,1.13,0,1.7a.6.6,0,0,1-.656.665c-.72.006-1.44,0-2.16,0a.684.684,0,0,0-.686.69c.005.5.013,1,0,1.5a.46.46,0,0,0,.268.475c2.512,1.426,5.016,2.863,7.527,4.291a.667.667,0,0,1,.367.558,16.527,16.527,0,0,1,.039,1.857c.006,1.668,0,3.336,0,5a.777.777,0,0,1-.4.753Zm5.563-1.214h4.429c.344,0,.349,0,.216-.3q-1.9-4.3-3.8-8.6c-.081-.184-.159-.2-.326-.1q-2.5,1.437-5.007,2.861a.416.416,0,0,0-.241.41q.011,2.707,0,5.413c0,.256.079.325.327.324C688.457,250.985,689.925,250.99,691.392,250.99Zm11.453,0c1.486,0,2.971,0,4.457,0,.239,0,.336-.054.334-.319-.011-1.8-.009-3.609,0-5.414a.411.411,0,0,0-.24-.409q-2.5-1.414-4.985-2.846c-.225-.13-.294-.082-.39.137q-1.892,4.3-3.805,8.6c-.1.225-.038.254.174.254C699.874,250.988,701.359,250.991,702.845,250.991Zm-3.768-13.918c-.262,0-.451,0-.641,0-.457,0-.747-.251-.74-.626s.291-.607.73-.609c.6,0,1.2-.007,1.8,0a.4.4,0,0,0,.4-.224,4.132,4.132,0,0,0,.457-1.135,9.78,9.78,0,0,0,.107-1.932.355.355,0,0,0-.294-.407,4.641,4.641,0,0,1-2.229-1.6c-.227-.291-.218-.293-.521-.065a6.321,6.321,0,0,1-4.779,1.268c-.213-.028-.257.041-.255.225,0,.51.009,1.021,0,1.531a3.956,3.956,0,0,0,.923,2.621A4.046,4.046,0,0,0,699.077,237.073Zm-1.957-9.9a3.509,3.509,0,0,0-1.6.334,4,4,0,0,0-2.292,2.7c-.045.166-.056.3.175.33a5.488,5.488,0,0,0,1.82-.032,5.708,5.708,0,0,0,2.8-1.564c.529-.5.915-.425,1.226.226a3.465,3.465,0,0,0,1.64,1.658c.077.038.166.117.25.049.068-.055.034-.155.022-.234A4.046,4.046,0,0,0,697.12,227.168Zm-2.257,11.954c.033.262-.067.579.15.873.664.9,1.3,1.818,1.956,2.728.177.248.181.247.369-.015.493-.688.94-1.414,1.487-2.055a2.6,2.6,0,0,0,.615-2.06c-.021-.221-.058-.264-.27-.177a5.223,5.223,0,0,1-4.062-.006c-.209-.085-.259-.026-.248.174C694.87,238.748,694.863,238.912,694.863,239.122Zm2.267,10.928a.7.7,0,0,0,.084-.1c.485-1.09.968-2.181,1.457-3.27a.247.247,0,0,0-.068-.314c-.434-.43-.867-.86-1.295-1.3-.114-.116-.2-.124-.315,0q-.64.655-1.295,1.3a.261.261,0,0,0-.061.339c.191.413.369.833.555,1.249C696.5,248.64,696.807,249.328,697.13,250.051Zm-7.017-18.272a2.35,2.35,0,0,0,1.448,2.132c.277.107.317.082.318-.212,0-.8.01-1.6,0-2.4a5.476,5.476,0,0,1,.173-1.512c.068-.253.023-.291-.233-.223A2.32,2.32,0,0,0,690.113,231.779Zm7.008-5.886a5.43,5.43,0,0,1,3.21,1.072,5.311,5.311,0,0,1,1.109,1.124c.089.122.516.225.59.125.116-.158-.062-.261-.137-.362a5.806,5.806,0,0,0-9.481,0c-.075.1-.249.24-.156.34s.311.054.47.024c.114-.021.159-.142.225-.227A5.307,5.307,0,0,1,697.121,225.892Zm-3.143,14.919c-.217.131-.461.27-.7.425-.062.041-.007.12.017.175q.826,1.859,1.652,3.718c.061.137.114.135.211.036.351-.357.7-.713,1.063-1.061a.177.177,0,0,0,.02-.277q-1.039-1.44-2.072-2.884A.223.223,0,0,0,693.979,240.812Zm7.067.494c-.006-.093-.078-.124-.139-.16-.157-.091-.322-.171-.474-.27s-.221-.062-.314.068q-1.01,1.425-2.033,2.842a.225.225,0,0,0,.04.348q.491.474.965.965c.14.145.218.15.307-.052.522-1.192,1.052-2.379,1.579-3.568C701,241.421,701.023,241.361,701.045,241.306Zm1.371-7.666c.034.081-.069.241.057.3s.255-.056.371-.122.081-.172.093-.27c.048-.4.287-.65.652-.626.193.013.256-.072.321-.214a2.307,2.307,0,0,0-1.467-3.142c-.2-.056-.277-.028-.213.2a4.627,4.627,0,0,1,.184,1.072A21.992,21.992,0,0,1,702.417,233.64Zm-.008,2.2c.082,0,.164,0,.245,0,.063,0,.144.013.186-.019.186-.144.1-.355.081-.529s-.169-.058-.259-.05a2.872,2.872,0,0,0-.373.075c-.135.032-.37.335-.324.444.066.159.223.046.335.077A.442.442,0,0,0,702.409,235.836Z" transform="translate(-685.427 -224.177)" fill="#fff"/>
      <path id="Контур_1429" data-name="Контур 1429" d="M996.322,671.436c.291,0,.581,0,.872,0a.606.606,0,0,1,.612.542.624.624,0,0,1-.47.649.929.929,0,0,1-.241.037c-.527,0-1.054.009-1.58,0a.613.613,0,0,1-.679-.647.562.562,0,0,1,.559-.579c.154-.007.309,0,.463,0Z" transform="translate(-977.883 -646.927)" fill="#fff"/>
    </g>
  </g>
</svg>
