<svg id="c3Mk33.tif" xmlns="http://www.w3.org/2000/svg" width="8.3" height="6.244" viewBox="0 0 8.3 6.244">
	<g id="Сгруппировать_54" data-name="Сгруппировать 54" transform="translate(0 0)">
		<path class="mail__bottom" id="Контур_1413" data-name="Контур 1413" d="M335.4,279.887v4.15a.561.561,0,0,1-.594.4q-3.6-.007-7.192,0a.515.515,0,0,1-.234-.054.572.572,0,0,1-.28-.342v-4.215c.076.057.152.112.227.17l2.554,1.952c.347.265.693.534,1.044.794a.517.517,0,0,0,.654,0c.081-.058.161-.118.241-.177l3.484-2.616C335.33,279.92,335.355,279.889,335.4,279.887Z" transform="translate(-327.096 -278.192)" fill="#fff" />
		<path class="mail__top" id="Контур_1414" data-name="Контур 1414" d="M327.1,274.936v-.146a.567.567,0,0,1,.6-.4q3.555.007,7.111,0a.772.772,0,0,1,.193.012.552.552,0,0,1,.393.384v.146l-.842.646q-1.617,1.246-3.232,2.493a.1.1,0,0,1-.154,0c-.149-.12-.3-.236-.454-.353l-2.181-1.681Z" transform="translate(-327.096 -274.392)" fill="#fff" />
	</g>
</svg>
