<svg xmlns="http://www.w3.org/2000/svg" width="25.466" height="27.526" viewBox="0 0 25.466 27.526">
  <g id="siRUD1.tif" transform="translate(-691.453 -270.676)">
    <g id="Сгруппировать_63" data-name="Сгруппировать 63" transform="translate(691.453 270.676)">
      <path id="Контур_1430" data-name="Контур 1430" d="M716.914,283.931c0,1.674-.008,3.347,0,5.021a1.949,1.949,0,0,1-.762,1.57,6.1,6.1,0,0,1-2.614,1.17,15.8,15.8,0,0,1-3.97.388c-.8-.016-.8-.011-.793.8,0,.72-.018,1.441,0,2.161a1.911,1.911,0,0,1-.753,1.572,6.431,6.431,0,0,1-3.169,1.291,17.5,17.5,0,0,1-7-.118,5.876,5.876,0,0,1-2.587-1.152,1.958,1.958,0,0,1-.775-1.563c.008-2.722,0-5.445.008-8.167a.439.439,0,0,0-.376-.506,4.38,4.38,0,0,1-2.289-1.347,1.734,1.734,0,0,1-.391-1.115q0-5.148,0-10.3a1.826,1.826,0,0,1,.737-1.387,5.958,5.958,0,0,1,2.64-1.185,17.57,17.57,0,0,1,5.333-.329,12.215,12.215,0,0,1,3.259.645,3.975,3.975,0,0,1,1.937,1.269,1.719,1.719,0,0,1,.37,1.091c-.01.731,0,1.462,0,2.193,0,.213.053.283.278.225a16.17,16.17,0,0,1,4.858-.38,11.185,11.185,0,0,1,4.52,1.021,3.647,3.647,0,0,1,.838.57,1.943,1.943,0,0,1,.7,1.5C716.906,280.562,716.914,282.247,716.914,283.931Zm-7.206-7.1c-.244.013-.571.034-.9.046a12.386,12.386,0,0,0-3,.459,4.412,4.412,0,0,0-1.684.789.839.839,0,0,0,.016,1.442,3.454,3.454,0,0,0,.937.526,10.708,10.708,0,0,0,3.058.66,16.072,16.072,0,0,0,5.354-.342,4.4,4.4,0,0,0,2.024-.934.783.783,0,0,0,.008-1.267,3.29,3.29,0,0,0-1.2-.686A14.314,14.314,0,0,0,709.708,276.829Zm-8.016,10.12a24.146,24.146,0,0,0,2.488-.2,7.678,7.678,0,0,0,2.8-.878c.967-.6.952-1.33-.032-1.9a6.2,6.2,0,0,0-1.594-.613,16.2,16.2,0,0,0-5.2-.364,11.111,11.111,0,0,0-3.038.612,3.469,3.469,0,0,0-1.2.689.776.776,0,0,0-.017,1.262,3.824,3.824,0,0,0,1.56.815A15.524,15.524,0,0,0,701.692,286.95Zm-3.009-11.185a23.828,23.828,0,0,0,2.476-.2,7.785,7.785,0,0,0,2.743-.854c.37-.219.755-.476.743-.956s-.388-.752-.775-.974a5.64,5.64,0,0,0-1.536-.593,16.437,16.437,0,0,0-7.33-.038,5.306,5.306,0,0,0-1.956.8.876.876,0,0,0-.04,1.562,4.7,4.7,0,0,0,1.635.749A16.46,16.46,0,0,0,698.683,275.765ZM695.6,290.815a.892.892,0,0,0,.49,1.1,6.065,6.065,0,0,0,1.589.625,16.038,16.038,0,0,0,7.384.132,5.847,5.847,0,0,0,2.3-.876.764.764,0,0,0,.313-.983C705.024,292.524,698.247,292.5,695.6,290.815Zm-3.058-15.264a.945.945,0,0,0,.545,1.147,7.179,7.179,0,0,0,1.814.662,15.938,15.938,0,0,0,4.535.4,15.063,15.063,0,0,0,3.1-.46,5.818,5.818,0,0,0,1.7-.685.834.834,0,0,0,.44-.847c-.02-.171-.068-.2-.216-.116a6.739,6.739,0,0,1-1.219.536,15.048,15.048,0,0,1-5.013.639A11.765,11.765,0,0,1,692.538,275.551Zm3.053,17.287a.918.918,0,0,0,.481,1.109,5.023,5.023,0,0,0,1.015.448,15.674,15.674,0,0,0,8.551.174,5.156,5.156,0,0,0,1.641-.667.824.824,0,0,0,.451-.779c-.015-.216-.042-.3-.268-.165a6.108,6.108,0,0,1-1.192.519,15.09,15.09,0,0,1-5.014.632A11.73,11.73,0,0,1,695.59,292.838Zm12.1,2.01a6.755,6.755,0,0,1-1.853.794,16.769,16.769,0,0,1-5.7.444,10.213,10.213,0,0,1-4.386-1.14c-.142-.081-.177-.011-.2.126a.863.863,0,0,0,.511.9,6.482,6.482,0,0,0,1.9.708,16.2,16.2,0,0,0,6.583.164,7.848,7.848,0,0,0,2.642-.866A.946.946,0,0,0,707.692,294.849Zm8.126-14.2a15.074,15.074,0,0,1-12.089,0c-.1.577-.009.788.448,1.081a3.027,3.027,0,0,0,.393.207,12.784,12.784,0,0,0,5.179.94,14.515,14.515,0,0,0,3.464-.361,7.41,7.41,0,0,0,2.168-.792C715.847,281.438,715.923,281.21,715.818,280.644Zm-20.232,6.089a.945.945,0,0,0,.521,1.13,6.65,6.65,0,0,0,1.685.644,16.235,16.235,0,0,0,7.017.156,7.166,7.166,0,0,0,2.42-.831.817.817,0,0,0,.446-1.079C705.045,288.422,698.307,288.467,695.587,286.733Zm0,2.041a.912.912,0,0,0,.511,1.122c.1.056.2.112.31.16a12.811,12.811,0,0,0,5.209.949,14.5,14.5,0,0,0,3.433-.356,7.439,7.439,0,0,0,2.2-.8.809.809,0,0,0,.425-1.068,12.027,12.027,0,0,1-6.014,1.263A12.193,12.193,0,0,1,695.59,288.774Zm7.047-9.953c.008-.419.006-.425-.219-.371a17.472,17.472,0,0,1-6.178.271,9.53,9.53,0,0,1-3.312-.928c-.117-.061-.241-.227-.359-.145-.138.1-.055.294-.052.447a.52.52,0,0,0,.193.353,2.49,2.49,0,0,0,.8.5,13.458,13.458,0,0,0,5.22.875,13.691,13.691,0,0,0,3.425-.4C702.625,279.3,702.629,279.31,702.638,278.821Zm-10.087.788a.86.86,0,0,0,.439,1.092,4.249,4.249,0,0,0,.917.429,15.666,15.666,0,0,0,8.139.349c.641-.131.633-.143.6-.8-.01-.181-.057-.242-.25-.194a16.573,16.573,0,0,1-4.314.4,15.151,15.151,0,0,1-3.758-.521A6.824,6.824,0,0,1,692.551,279.609Zm23.278,3.067a.456.456,0,0,0-.1.029,10.147,10.147,0,0,1-4.305,1.176,24.527,24.527,0,0,1-2.631.051c-.194,0-.288.03-.181.25a2.025,2.025,0,0,1,.154.481.216.216,0,0,0,.23.206c.327.013.656.061.981.043a19.235,19.235,0,0,0,2.586-.242,8.528,8.528,0,0,0,2.764-.887A.913.913,0,0,0,715.829,282.676Zm-5.83,3.3h-.6c-.661,0-.616-.12-.618.629,0,.218.081.291.3.3a15.065,15.065,0,0,0,4.709-.477,5.4,5.4,0,0,0,1.638-.668.834.834,0,0,0,.442-.845c-.02-.164-.058-.206-.214-.123a7.329,7.329,0,0,1-.713.346A13.476,13.476,0,0,1,710,285.976Zm5.826,2.788a8.117,8.117,0,0,1-2.644.971,17.168,17.168,0,0,1-3.782.311c-.677-.01-.673,0-.62.689.012.158.072.23.229.236.338.012.677.059,1.012.04a19.353,19.353,0,0,0,2.553-.241,9.225,9.225,0,0,0,2.71-.85A.928.928,0,0,0,715.824,288.764Zm0-2.047a7.035,7.035,0,0,1-1.864.794,16.1,16.1,0,0,1-4.621.5c-.568-.013-.554,0-.568.564-.007.279.089.353.361.371a14.716,14.716,0,0,0,3.5-.223,7.78,7.78,0,0,0,2.728-.9A.918.918,0,0,0,715.825,286.718Zm-19.639-3.9a1.122,1.122,0,0,0-.175-.069,8.756,8.756,0,0,1-3.34-1.045c-.136-.082-.151-.015-.166.107a.87.87,0,0,0,.477.922,7.122,7.122,0,0,0,1.985.74.34.34,0,0,0,.324-.071A4.81,4.81,0,0,1,696.186,282.816Zm-3.637.856a.9.9,0,0,0,.484,1.123,6.469,6.469,0,0,0,.861.393c.629.25.627.25.615-.429,0-.146-.012-.275-.181-.325A7.511,7.511,0,0,1,692.549,283.671Z" transform="translate(-691.453 -270.676)" fill="#fff"/>
    </g>
  </g>
</svg>
