<svg xmlns="http://www.w3.org/2000/svg" width="8.727" height="14.522" viewBox="0 0 8.727 14.522">
  <g id="g2duqE.tif" transform="translate(-705.507 -54.665)">
    <g id="Сгруппировать_101" data-name="Сгруппировать 101" transform="translate(705.507 54.665)">
      <path id="Контур_1473" data-name="Контур 1473" d="M705.507,70.356v-.4c.031-.084.057-.17.094-.252a.877.877,0,0,1,.716-.534,1.043,1.043,0,0,1,.695.2c.144.09.276.2.422.285a4.767,4.767,0,0,0,3.177.6,4.228,4.228,0,0,0,2-.8,1.377,1.377,0,0,1,.478-.241.877.877,0,0,1,1.006.412,2.042,2.042,0,0,1,.138.34v.369a1.028,1.028,0,0,1-.334.482,5.03,5.03,0,0,1-2.509,1.2c-.243.043-.487.081-.749.125.033.038.05.06.069.079q.749.743,1.5,1.487.557.554,1.112,1.112a.827.827,0,0,1,.243.868.936.936,0,0,1-1.589.434c-.648-.667-1.313-1.318-1.965-1.981-.1-.1-.157-.106-.259,0-.641.654-1.29,1.3-1.935,1.951a1.05,1.05,0,0,1-.429.29,1,1,0,0,1-1.206-.748.874.874,0,0,1,.275-.821q1.269-1.265,2.534-2.534c.038-.038.093-.066.1-.135a.447.447,0,0,0-.054-.018l-.336-.049a5.3,5.3,0,0,1-2.664-1.091A1.586,1.586,0,0,1,705.507,70.356Z" transform="translate(-705.507 -61.885)" fill="#fff"/>
      <path id="Контур_1474" data-name="Контур 1474" d="M710.075,54.665h.906a.419.419,0,0,0,.055.015,3.692,3.692,0,1,1-4.161,3.1,3.631,3.631,0,0,1,2.524-2.969A4.276,4.276,0,0,1,710.075,54.665Zm-1.327,3.671a1.782,1.782,0,1,0,3.565.006,1.814,1.814,0,0,0-1.782-1.8A1.793,1.793,0,0,0,708.749,58.336Z" transform="translate(-706.165 -54.665)" fill="#fff"/>
    </g>
  </g>
</svg>
