 <svg xmlns="http://www.w3.org/2000/svg" style="width: 86px;" viewBox="0 0 120.82 54.69">
                                        <title>Praweb Union</title><g id="Слой_2" data-name="Слой 2">
                                            <g id="Слой_1-2" data-name="Слой 1">
                                            <path d="M47.78,27.29q0,6.79,0,13.58a.41.41,0,0,1-.24.42l-12,6.85L24.16,54.63a.31.31,0,0,1-.35,0L16.23,50.4a.32.32,0,0,1-.19-.32q0-4.09,0-8.19c0-.24,0-.25.23-.13L23.79,46a.44.44,0,0,0,.5,0l11.3-6.4L40.25,37a.29.29,0,0,0,.17-.29c0-.31,0-.63,0-.94,0-5.83,0-11.65,0-17.48a.35.35,0,0,0-.21-.36c-1.72-.9-3.39-1.89-5.09-2.85l-8.89-5-2-1.16a.32.32,0,0,0-.36,0l-10.64,6L8.66,17.45c-.51.29-.52.29-.51.87,0,3.21,0,6.43,0,9.64s0,6.14,0,9.22c0,2,0,4.1,0,6.14,0,.8,0,1.59,0,2.39,0,.21,0,.22-.21.11L.4,41.62a.44.44,0,0,1-.26-.44c0-2.77,0-5.54,0-8.32,0-2.42,0-4.83,0-7.25s0-5.13,0-7.69c0-1.4,0-2.8,0-4.19a.38.38,0,0,1,.22-.39L7.05,9.5l8.66-4.87L23.83.05a.32.32,0,0,1,.35,0L34.3,5.78,47,13l.59.34a.24.24,0,0,1,.14.25c0,.07,0,.13,0,.2Q47.78,20.54,47.78,27.29Z"></path>
                                            <path d="M23.95,35.52a11.28,11.28,0,0,1-2.88.87l1.58,3.24a9.75,9.75,0,0,0,3.65-2.75,6.89,6.89,0,0,0,1-3.88A12.47,12.47,0,0,1,23.95,35.52Z"></path><path d="M18,23.41a6.88,6.88,0,0,0-3.84,1.11,9.75,9.75,0,0,0-2.6,3.75l3.3,1.45a11.28,11.28,0,0,1,.76-2.91A12.48,12.48,0,0,1,18,23.41Z"></path>
                                            <path d="M32.11,18.52s0,0,0,0l0,0a19.47,19.47,0,0,0-9.56,3c-3.39,2.38-5.85,7.65-5.85,7.65l2.81,2.6h0L22,34.47s5.16-2.6,7.42-6c2.54-3.87,2.68-9.05,2.69-9.85l0-.06ZM27.62,28.59C25.18,31.45,20.94,32,20.94,32a17,17,0,0,0,6.48-4.43,20.53,20.53,0,0,0,3.79-6.73A17.53,17.53,0,0,1,27.62,28.59Z"></path><text></text>
                                            <path d="M57.1,31.74v1.39a2.3,2.3,0,0,1-2.54,2.63h-.8v4h-1.7V29.11h2.51A2.3,2.3,0,0,1,57.1,31.74Zm-3.34-1.11v3.61h.8c.54,0,.84-.24.84-1v-1.6c0-.76-.29-1-.84-1Z"></path>
                                            <path d="M61.45,39.76a3.23,3.23,0,0,1-.15-1.31V36.78c0-1-.34-1.35-1.11-1.35H59.6v4.34h-1.7V29.11h2.57c1.76,0,2.52.81,2.52,2.45v.84a2.11,2.11,0,0,1-1.11,2.16c.85.35,1.13,1.16,1.13,2.27v1.64a3.1,3.1,0,0,0,.19,1.29ZM59.6,30.63V33.9h.67c.63,0,1-.27,1-1.13v-1c0-.76-.26-1.1-.87-1.1Z"></path>
                                            <path d="M69.62,39.76H67.9l-.29-1.93H65.52l-.29,1.93H63.66L65.4,29.11h2.49Zm-3.88-3.38h1.64L66.56,31Z"></path><path d="M74,34.09l-.62,5.68H71L69.79,29.11h1.66l.91,8.4.82-8.4h1.64l.85,8.46.88-8.46H78L76.83,39.76H74.57Z"></path>
                                            <path d="M80.59,33.6h2.34v1.52H80.59v3.12h2.94v1.52H78.89V29.11h4.64v1.52H80.59Z"></path>
                                            <path d="M89.67,31.56v.38a2.08,2.08,0,0,1-1.1,2.15,2.15,2.15,0,0,1,1.27,2.28v.87a2.28,2.28,0,0,1-2.58,2.53H84.58V29.11h2.57C88.91,29.11,89.67,29.92,89.67,31.56Zm-3.39-.93v2.82h.67c.63,0,1-.27,1-1.13v-.59c0-.76-.26-1.1-.87-1.1Zm0,4.34v3.27h1c.57,0,.88-.26.88-1v-.93c0-1-.32-1.29-1.1-1.29Z"></path>
                                            <path d="M94.88,29.11v8.22c0,.76.34,1,.88,1s.88-.27.88-1V29.11h1.61v8.11a2.54,2.54,0,1,1-5.08,0V29.11Z"></path><path d="M100.93,32v7.72H99.4V29.11h2.14l1.75,6.38V29.11h1.52V39.76h-1.75Z"></path><path d="M106,29.11h1.7V39.76H106Z"></path>
                                            <path d="M108.82,31.67a2.59,2.59,0,1,1,5.17,0v5.54a2.59,2.59,0,1,1-5.17,0Zm1.7,5.65c0,.76.34,1.05.88,1.05s.88-.29.88-1.05V31.56c0-.76-.34-1.05-.88-1.05s-.88.29-.88,1.05Z"></path>
                                            <path d="M116.6,32v7.72h-1.53V29.11h2.14L119,35.49V29.11h1.52V39.76h-1.75Z"></path>
                                            <path d="M57.28,20.45l-.77,7.18H53.61L52.1,14.16h2.06L55.3,24.79l1-10.63h2l1.06,10.71,1.1-10.71h1.85l-1.5,13.48H58.05Z"></path>
                                            <path d="M65.55,19.84h2.91v1.93H65.55v3.95h3.66v1.93H63.43V14.16h5.78v1.93H65.55Z"></path>
                                            <path d="M76.85,17.26v.48c0,1.39-.42,2.27-1.37,2.72,1.14.44,1.58,1.46,1.58,2.89v1.1a2.87,2.87,0,0,1-3.22,3.2H70.51V14.16h3.2C75.91,14.16,76.85,15.18,76.85,17.26Zm-4.22-1.17v3.56h.83c.79,0,1.27-.35,1.27-1.43v-.75c0-1-.33-1.39-1.08-1.39Zm0,5.49v4.14h1.21c.71,0,1.1-.33,1.1-1.33V23.21c0-1.25-.4-1.64-1.37-1.64Z"></path>
                                            <path d="M84.17,14c2.06,0,3.12,1.23,3.12,3.39v.42h-2v-.56c0-1-.39-1.33-1.06-1.33s-1.06.37-1.06,1.33c0,2.77,4.14,3.29,4.14,7.15,0,2.16-1.08,3.39-3.16,3.39S81,26.56,81,24.4v-.83h2v1c0,1,.42,1.31,1.1,1.31s1.1-.35,1.1-1.31c0-2.77-4.14-3.29-4.14-7.15C81,15.23,82.11,14,84.17,14Z"></path>
                                            <path d="M87.91,14.16h6.55v1.93H92.24V27.64H90.12V16.08H87.91Z"></path><path d="M97.4,14.16v10.4c0,1,.42,1.31,1.1,1.31s1.1-.35,1.1-1.31V14.16h2V24.42c0,2.16-1.08,3.39-3.16,3.39s-3.16-1.23-3.16-3.39V14.16Z"></path>
                                            <path d="M103,14.16h3.35c2.12,0,3.16,1.17,3.16,3.33V24.3c0,2.16-1,3.33-3.16,3.33H103Zm2.12,1.93v9.63h1.19c.67,0,1.08-.35,1.08-1.31v-7c0-1-.4-1.31-1.08-1.31Z"></path><path d="M110.9,14.16H113V27.64H110.9Z"></path>
                                            <path d="M114.39,17.39c0-2.16,1.14-3.39,3.22-3.39s3.22,1.23,3.22,3.39v7c0,2.16-1.14,3.39-3.22,3.39s-3.22-1.23-3.22-3.39Zm2.12,7.15c0,1,.42,1.33,1.1,1.33s1.1-.37,1.1-1.33V17.26c0-1-.42-1.33-1.1-1.33s-1.1.37-1.1,1.33Z"></path></g></g>
                                    </svg>
