<svg xmlns="http://www.w3.org/2000/svg" width="43.623" height="31.552" viewBox="0 0 43.623 31.552">
  <g id="Сгруппировать_9394" data-name="Сгруппировать 9394" transform="translate(-201.835 -320.129)" opacity="0.093">
    <path id="Контур_3733" data-name="Контур 3733" d="M317.906,339.183c0-2.405.024-4.811,0-7.216a9.336,9.336,0,0,1,5.341-8.841c2.17-1.155,4.534-1.946,6.811-2.9.555-.232.846-.056.887.558.08,1.22.047,2.235-1.264,3.029a8.7,8.7,0,0,0-4.154,5.179,7.134,7.134,0,0,0-.2,1.006c-.183,1.532.15,1.9,1.72,1.9,2.027,0,4.055-.011,6.082,0a4.19,4.19,0,0,1,4.444,4.463q.022,5.412,0,10.823a4.225,4.225,0,0,1-4.547,4.474q-5.257.005-10.515,0a4.291,4.291,0,0,1-4.605-4.645Q317.906,343.1,317.906,339.183Z" transform="translate(-92.125)" fill="#4a4a4a"/>
    <path id="Контур_3734" data-name="Контур 3734" d="M201.845,339.165c0-2.371.039-4.743-.007-7.114-.084-4.3,1.979-7.274,5.7-9.127,2.052-1.022,4.239-1.77,6.36-2.655.634-.264.9-.032.946.6a2.7,2.7,0,0,1-1.251,2.94,8.688,8.688,0,0,0-4.39,6.068c-.249,1.572.119,2.044,1.673,2.047,2.028,0,4.056-.008,6.083,0a4.248,4.248,0,0,1,4.536,4.5q.021,5.516,0,11.032a4.154,4.154,0,0,1-4.168,4.219q-5.618.065-11.238,0a4.207,4.207,0,0,1-4.243-4.368C201.838,344.595,201.844,341.88,201.845,339.165Z" transform="translate(0 -0.026)" fill="#4a4a4a"/>
  </g>
</svg>
