<svg xmlns="http://www.w3.org/2000/svg" width="8.915" height="9.578" viewBox="0 0 8.915 9.578">
	<path id="Контур_1475" data-name="Контур 1475" d="M681.635,275.642a3.569,3.569,0,0,1-1.58-.384,8.656,8.656,0,0,1-2.73-2.211,8.26,8.26,0,0,1-1.619-2.581,3.677,3.677,0,0,1,.086-2.991,3.627,3.627,0,0,1,1.253-1.3.558.558,0,0,1,.716.033,3.691,3.691,0,0,1,1.2,1.933.8.8,0,0,1-.307.83c-.184.15-.369.3-.554.446a.8.8,0,0,0-.313.979,2.054,2.054,0,0,0,.224.5,6.81,6.81,0,0,0,1.746,1.94A2.539,2.539,0,0,0,680,273a.844.844,0,0,0,1.155-.144c.121-.119.234-.247.357-.366a.983.983,0,0,1,1.237-.19,5.147,5.147,0,0,1,1.408,1.2.654.654,0,0,1-.091,1,4.047,4.047,0,0,1-1.2.908A3.455,3.455,0,0,1,681.635,275.642Z" transform="translate(-675.43 -266.064)" fill="#fff" />
</svg>
