<svg xmlns="http://www.w3.org/2000/svg" viewBox="0 0 120.82 54.69"><defs><style>.cls-1{fill:#f6f6f6;}</style></defs><g id="Слой_2" data-name="Слой 2"><g id="Слой_1-2" data-name="Слой 1"><path class="cls-1" d="M47.78,27.29q0,6.78,0,13.58a.43.43,0,0,1-.24.42q-6,3.41-12,6.84l-11.37,6.5a.34.34,0,0,1-.35,0L16.23,50.4a.32.32,0,0,1-.19-.31q0-4.1,0-8.19c0-.24,0-.25.24-.13L23.79,46a.45.45,0,0,0,.5,0q5.64-3.21,11.3-6.4,2.32-1.32,4.66-2.63a.3.3,0,0,0,.17-.29c0-.32,0-.63,0-.94,0-5.83,0-11.65,0-17.48a.36.36,0,0,0-.21-.36c-1.73-.9-3.4-1.89-5.09-2.85l-8.89-5c-.68-.39-1.37-.77-2.05-1.17a.32.32,0,0,0-.35,0l-10.64,6L8.66,17.45c-.51.28-.51.28-.5.87.05,3.21,0,6.43,0,9.64s0,6.14,0,9.21c0,2,0,4.1,0,6.15,0,.8,0,1.59,0,2.39,0,.21,0,.22-.21.11L.4,41.62a.43.43,0,0,1-.26-.44c0-2.77,0-5.54,0-8.32,0-2.41,0-4.83,0-7.24,0-2.57,0-5.13,0-7.69,0-1.4,0-2.8,0-4.2a.38.38,0,0,1,.22-.39C2.5,12.07,4.78,10.78,7.05,9.5l8.66-4.87L23.83.05a.33.33,0,0,1,.36,0Q29.24,2.93,34.3,5.78L47.05,13c.19.12.39.23.59.34a.24.24,0,0,1,.14.25V27.29Z"/><path class="cls-1" d="M24,35.52a11.17,11.17,0,0,1-2.88.87l1.58,3.24a9.66,9.66,0,0,0,3.65-2.75,6.87,6.87,0,0,0,1-3.88A12.44,12.44,0,0,1,24,35.52Z"/><path class="cls-1" d="M18,23.41a6.89,6.89,0,0,0-3.83,1.1,9.76,9.76,0,0,0-2.61,3.76l3.3,1.45a11.23,11.23,0,0,1,.75-2.91A12.61,12.61,0,0,1,18,23.41Z"/><path class="cls-1" d="M32.11,18.52v0l0,0a19.57,19.57,0,0,0-9.57,3c-3.39,2.38-5.85,7.66-5.85,7.66l2.81,2.59h0L22,34.47s5.16-2.6,7.42-6c2.54-3.87,2.69-9,2.69-9.85l0-.06ZM27.62,28.59C25.18,31.45,20.94,32,20.94,32a17,17,0,0,0,6.48-4.43,20.7,20.7,0,0,0,3.79-6.73A17.56,17.56,0,0,1,27.62,28.59Z"/><text/><path class="cls-1" d="M57.1,31.74v1.39c0,1.7-.83,2.63-2.53,2.63h-.81v4h-1.7V29.11h2.51C56.27,29.11,57.1,30,57.1,31.74Zm-3.34-1.11v3.61h.81c.54,0,.83-.24.83-1V31.64c0-.76-.29-1-.83-1Z"/><path class="cls-1" d="M61.45,39.76a3.3,3.3,0,0,1-.15-1.31V36.78c0-1-.34-1.35-1.12-1.35H59.6v4.33H57.89V29.11h2.57c1.77,0,2.52.81,2.52,2.45v.84a2.11,2.11,0,0,1-1.11,2.16c.85.35,1.13,1.16,1.13,2.27v1.64a3.05,3.05,0,0,0,.19,1.29ZM59.6,30.63V33.9h.66c.63,0,1-.27,1-1.12V31.73c0-.76-.26-1.1-.86-1.1Z"/><path class="cls-1" d="M69.62,39.76H67.9l-.29-1.93H65.52l-.29,1.93H63.66L65.4,29.11h2.49Zm-3.88-3.38h1.64L66.56,31Z"/><path class="cls-1" d="M74,34.09l-.62,5.67H71L69.79,29.11h1.66l.91,8.4.82-8.4h1.64l.85,8.46.88-8.46H78L76.83,39.76H74.57Z"/><path class="cls-1" d="M80.59,33.6h2.34v1.52H80.59v3.12h2.94v1.52H78.89V29.11h4.64v1.52H80.59Z"/><path class="cls-1" d="M89.67,31.56v.38a2.08,2.08,0,0,1-1.1,2.15,2.13,2.13,0,0,1,1.27,2.28v.87a2.28,2.28,0,0,1-2.58,2.52H84.58V29.11h2.57C88.91,29.11,89.67,29.92,89.67,31.56Zm-3.39-.93v2.82H87c.63,0,1-.28,1-1.13v-.59c0-.76-.26-1.1-.87-1.1Zm0,4.34v3.27h1c.57,0,.88-.26.88-1.05v-.93c0-1-.32-1.29-1.1-1.29Z"/><path class="cls-1" d="M94.88,29.11v8.22c0,.76.34,1,.89,1s.88-.27.88-1V29.11h1.61v8.11c0,1.71-.87,2.68-2.54,2.68s-2.54-1-2.54-2.68V29.11Z"/><path class="cls-1" d="M100.93,32.05v7.71H99.4V29.11h2.14l1.75,6.38V29.11h1.51V39.76h-1.75Z"/><path class="cls-1" d="M106,29.11h1.71V39.76H106Z"/><path class="cls-1" d="M108.82,31.67a2.59,2.59,0,1,1,5.17,0v5.54a2.59,2.59,0,1,1-5.17,0Zm1.7,5.64c0,.76.35,1,.89,1s.88-.29.88-1V31.56c0-.76-.34-1-.88-1s-.89.29-.89,1Z"/><path class="cls-1" d="M116.6,32.05v7.71h-1.53V29.11h2.14L119,35.49V29.11h1.51V39.76h-1.74Z"/><path class="cls-1" d="M57.28,20.45l-.77,7.19h-2.9L52.1,14.16h2.06L55.3,24.79l1-10.63h2l1.06,10.7,1.1-10.7h1.85l-1.5,13.48H58.05Z"/><path class="cls-1" d="M65.55,19.84h2.9v1.92h-2.9v3.95h3.66v1.93H63.43V14.16h5.78v1.92H65.55Z"/><path class="cls-1" d="M76.85,17.26v.48c0,1.38-.42,2.27-1.37,2.71,1.14.45,1.58,1.47,1.58,2.89v1.1a2.87,2.87,0,0,1-3.21,3.2H70.51V14.16h3.2C75.91,14.16,76.85,15.18,76.85,17.26Zm-4.22-1.18v3.56h.83c.79,0,1.27-.34,1.27-1.42v-.75c0-1-.33-1.39-1.08-1.39Zm0,5.49v4.14h1.22c.71,0,1.09-.33,1.09-1.33V23.21c0-1.25-.4-1.64-1.36-1.64Z"/><path class="cls-1" d="M84.17,14c2.06,0,3.12,1.23,3.12,3.39v.42h-2v-.55c0-1-.39-1.33-1.06-1.33s-1.06.36-1.06,1.33c0,2.77,4.14,3.29,4.14,7.14,0,2.16-1.08,3.39-3.16,3.39S81,26.56,81,24.4v-.83h2v1c0,1,.43,1.31,1.1,1.31s1.1-.35,1.1-1.31c0-2.78-4.14-3.3-4.14-7.15C81.05,15.23,82.11,14,84.17,14Z"/><path class="cls-1" d="M87.91,14.16h6.54v1.92H92.24V27.64H90.12V16.08H87.91Z"/><path class="cls-1" d="M97.4,14.16v10.4c0,1,.42,1.31,1.1,1.31s1.1-.35,1.1-1.31V14.16h2V24.42c0,2.16-1.08,3.39-3.16,3.39s-3.16-1.23-3.16-3.39V14.16Z"/><path class="cls-1" d="M103,14.16h3.36c2.11,0,3.15,1.17,3.15,3.33V24.3c0,2.16-1,3.34-3.15,3.34H103Zm2.12,1.92v9.63h1.2c.67,0,1.08-.35,1.08-1.31v-7c0-1-.41-1.31-1.08-1.31Z"/><path class="cls-1" d="M110.9,14.16H113V27.64H110.9Z"/><path class="cls-1" d="M114.39,17.39c0-2.16,1.13-3.39,3.21-3.39s3.22,1.23,3.22,3.39v7c0,2.16-1.14,3.39-3.22,3.39s-3.21-1.23-3.21-3.39Zm2.12,7.15c0,1,.42,1.33,1.09,1.33s1.1-.37,1.1-1.33V17.26c0-1-.42-1.33-1.1-1.33s-1.09.36-1.09,1.33Z"/></g></g></svg>
